<svg xmlns="http://www.w3.org/2000/svg" width="89" height="89" viewBox="0 0 89 89">
  <g id="_1" data-name="1" transform="translate(-13907 -4205)">
    <rect id="Rectangle_174" data-name="Rectangle 174" width="89" height="89" rx="25" transform="translate(13907 4205)" fill="#fff"/>
    <g id="Group_520" data-name="Group 520" transform="translate(13929 4232)">
      <g id="Group_519" data-name="Group 519" transform="translate(0 0)">
        <g id="Group_518" data-name="Group 518" transform="translate(0 8.274)">
          <path id="Path_578" data-name="Path 578" d="M42.94,175.22H40.326V157.927a1.3,1.3,0,0,0-1.3-1.3H31.855a1.3,1.3,0,0,0-1.3,1.3V175.22H27V152.79a1.3,1.3,0,0,0-1.3-1.3H18.534a1.3,1.3,0,0,0-1.3,1.3V175.22H13.683V156.555a1.3,1.3,0,0,0-1.3-1.3H5.212a1.3,1.3,0,0,0-1.3,1.3V175.22H1.3a1.3,1.3,0,1,0,0,2.593H42.94a1.3,1.3,0,1,0,0-2.593Zm-36.429,0V157.852h4.574V175.22Zm13.321,0V154.086h4.574V175.22Zm13.322,0v-16h4.574v16Z" transform="translate(0 -151.493)" fill="#019ee2"/>
        </g>
        <path id="Path_579" data-name="Path 579" d="M50.6,60.718a1.3,1.3,0,0,0-1-1.376l-4.19-1.018a1.3,1.3,0,0,0-.613,2.52l1.185.288L42.629,63.2,29.892,55.954a1.3,1.3,0,0,0-1.192-.047L16.039,61.849,9.987,58.072a1.3,1.3,0,1,0-1.373,2.2l6.651,4.151A1.3,1.3,0,0,0,16.5,64.5L29.193,58.54l12.821,7.3a1.339,1.339,0,0,0,1.323-.023L47.409,63.3l-.271,1.27a1.3,1.3,0,0,0,2.536.542l.9-4.21a1.494,1.494,0,0,0,.029-.187Z" transform="translate(-7.311 -55.784)" fill="#019ee2"/>
      </g>
    </g>
  </g>
</svg>
