<svg xmlns="http://www.w3.org/2000/svg" width="89" height="89" viewBox="0 0 89 89">
  <g id="_2" data-name="2" transform="translate(-14027 -4205)">
    <rect id="Rectangle_175" data-name="Rectangle 175" width="89" height="89" rx="25" transform="translate(14027 4205)" fill="#fff"/>
    <g id="Group_521" data-name="Group 521" transform="translate(14050 4227.791)">
      <path id="Path_580" data-name="Path 580" d="M12.267,360.391a1.332,1.332,0,0,0-1.884,0L.394,370.38a1.332,1.332,0,1,0,1.884,1.884l9.989-9.989A1.332,1.332,0,0,0,12.267,360.391Zm0,0" transform="translate(-0.004 -330.033)" fill="#019ee2"/>
      <path id="Path_581" data-name="Path 581" d="M180.385,384.392l-4,4a1.332,1.332,0,1,0,1.884,1.883l4-4a1.332,1.332,0,0,0-1.884-1.883Zm0,0" transform="translate(-161.35 -352.036)" fill="#019ee2"/>
      <path id="Path_582" data-name="Path 582" d="M49.339,262.66a1.327,1.327,0,0,0,.942-.39l4-4a1.332,1.332,0,1,0-1.884-1.883l-4,4a1.332,1.332,0,0,0,.942,2.274Zm0,0" transform="translate(-44.012 -234.691)" fill="#019ee2"/>
      <path id="Path_583" data-name="Path 583" d="M130.595,1.366a1.4,1.4,0,0,0-.031-.321c-.006-.021-.013-.042-.02-.063a1.313,1.313,0,0,0-.1-.249c-.013-.026-.025-.051-.04-.076a1.332,1.332,0,0,0-.2-.267,1.31,1.31,0,0,0-.266-.2c-.027-.016-.053-.029-.081-.042a1.305,1.305,0,0,0-.241-.093.711.711,0,0,0-.074-.022A1.359,1.359,0,0,0,129.231,0c-.026,0-.051.006-.077.008a1.259,1.259,0,0,0-.266.048c-.017,0-.033,0-.049.009L96.874,10.719a1.332,1.332,0,0,0-.521,2.206l21.31,21.31a1.332,1.332,0,0,0,2.206-.521L130.524,1.749c.005-.016,0-.033.009-.048a1.348,1.348,0,0,0,.048-.266.317.317,0,0,0,.013-.069Zm-6.26,3.013L107.953,20.757l-8.191-8.191Zm-6.31,26.454-8.188-8.191L126.215,6.259Zm0,0" transform="translate(-87.975 0.001)" fill="#019ee2"/>
      <path id="Path_584" data-name="Path 584" d="M162.281,322.472a1.343,1.343,0,0,0,.386-.939,1.321,1.321,0,0,0-.393-.939,1.364,1.364,0,0,0-1.878,0,1.31,1.31,0,0,0-.393.939,1.332,1.332,0,0,0,2.277.939Zm0,0" transform="translate(-146.685 -293.564)" fill="#019ee2"/>
      <path id="Path_585" data-name="Path 585" d="M128.379,480.587a1.332,1.332,0,1,0,2.277.939,1.348,1.348,0,0,0-.393-.946A1.379,1.379,0,0,0,128.379,480.587Zm0,0" transform="translate(-117.338 -440.237)" fill="#019ee2"/>
      <path id="Path_586" data-name="Path 586" d="M1.336,354.868a1.328,1.328,0,0,0,.939-2.271,1.373,1.373,0,0,0-1.885,0,1.342,1.342,0,0,0-.386.939,1.369,1.369,0,0,0,.386.946,1.357,1.357,0,0,0,.946.386Zm0,0" transform="translate(-0.004 -322.903)" fill="#019ee2"/>
    </g>
  </g>
</svg>
