<svg xmlns="http://www.w3.org/2000/svg" width="89" height="89" viewBox="0 0 89 89">
  <g id="_4" data-name="4" transform="translate(-14274 -4205)">
    <rect id="Rectangle_177" data-name="Rectangle 177" width="89" height="89" rx="25" transform="translate(14274 4205)" fill="#fff"/>
    <g id="Group_524" data-name="Group 524" transform="translate(14297.755 4228)">
      <path id="Path_590" data-name="Path 590" d="M47.475,15.19l4.863,4.062a1.274,1.274,0,0,0,2.09-.977V15.083A7.6,7.6,0,0,0,53.154,0H39.381a7.6,7.6,0,0,0-7.332,9.577h-.586A5.64,5.64,0,0,0,30.19,20.711v1.881a1.274,1.274,0,0,0,2.09.977l3.249-2.713h5.447a5.646,5.646,0,0,0,5.639-5.639c0-.009,0-.018,0-.027h.86ZM34.333,7.6a5.053,5.053,0,0,1,5.047-5.048H53.155a5.048,5.048,0,0,1,0,10.1,1.274,1.274,0,0,0-1.274,1.274v1.635l-3.127-2.612a1.274,1.274,0,0,0-.816-.3H39.381A5.053,5.053,0,0,1,34.333,7.6Zm9.735,7.621a3.1,3.1,0,0,1-3.092,3.092H35.067a1.274,1.274,0,0,0-.816.3l-1.513,1.264v-.287a1.274,1.274,0,0,0-1.274-1.273,3.092,3.092,0,0,1,0-6.185h1.825a7.588,7.588,0,0,0,6.093,3.065h4.687c0,.009,0,.018,0,.027Zm0,0" transform="translate(-23.675 0)" fill="#019ee2"/>
      <path id="Path_591" data-name="Path 591" d="M11.146,322.869a4.764,4.764,0,1,0-7.267,0A8.164,8.164,0,0,0,.5,326,3.538,3.538,0,0,0,.477,329.6a3.574,3.574,0,0,0,3.138,1.826H11.41a3.574,3.574,0,0,0,3.138-1.826A3.538,3.538,0,0,0,14.521,326a8.166,8.166,0,0,0-3.375-3.133Zm1.189,5.467a1.048,1.048,0,0,1-.925.54H3.615a1.047,1.047,0,0,1-.925-.54A1.012,1.012,0,0,1,2.7,327.3a5.6,5.6,0,0,1,9.635,0A1.013,1.013,0,0,1,12.336,328.336ZM5.944,318.221a2.218,2.218,0,1,1-.649,1.568,2.212,2.212,0,0,1,.649-1.568Zm0,0" transform="translate(0 -288.803)" fill="#019ee2"/>
      <path id="Path_592" data-name="Path 592" d="M293.764,282.179a10.111,10.111,0,0,0-4.607-4.079,5.745,5.745,0,1,0-8.126,0,10.112,10.112,0,0,0-4.607,4.079,4.177,4.177,0,0,0-.032,4.245,4.223,4.223,0,0,0,3.709,2.158h9.984a4.224,4.224,0,0,0,3.709-2.158A4.178,4.178,0,0,0,293.764,282.179Zm-2.181,2.984a1.7,1.7,0,0,1-1.5.872H280.1a1.7,1.7,0,0,1-1.5-.872,1.648,1.648,0,0,1,.01-1.685,7.528,7.528,0,0,1,12.957,0A1.649,1.649,0,0,1,291.582,285.163ZM281.9,274.038a3.2,3.2,0,1,1,.937,2.262A3.177,3.177,0,0,1,281.9,274.038Zm0,0" transform="translate(-252.869 -245.962)" fill="#019ee2"/>
    </g>
  </g>
</svg>
