<svg xmlns="http://www.w3.org/2000/svg" width="89" height="89" viewBox="0 0 89 89">
  <g id="_5" data-name="5" transform="translate(-14391 -4205)">
    <rect id="Rectangle_178" data-name="Rectangle 178" width="89" height="89" rx="25" transform="translate(14391 4205)" fill="#fff"/>
    <g id="Group_526" data-name="Group 526" transform="translate(14414.19 4228)">
      <g id="Group_525" data-name="Group 525">
        <path id="Path_593" data-name="Path 593" d="M200.815,70.534l-2.221-.334-1-2.009a1.249,1.249,0,0,0-2.234,0l-1,2.009-2.221.334a1.249,1.249,0,0,0-.69,2.124l1.6,1.576-.368,2.216a1.249,1.249,0,0,0,1.807,1.313l1.993-1.035,1.993,1.035a1.249,1.249,0,0,0,1.807-1.313l-.368-2.216,1.6-1.576a1.249,1.249,0,0,0-.69-2.124Zm-3.124,2.376a1.524,1.524,0,0,0-.29,1.486l-.352-.183a1.249,1.249,0,0,0-1.151,0l-.352.183a1.491,1.491,0,0,0-.573-1.764l.4-.06c.822-.129.991-.875,1.1-1.03l.178.355a1.524,1.524,0,0,0,1.323.735Z" transform="translate(-175.163 -61.881)" fill="#019ee2"/>
        <path id="Path_594" data-name="Path 594" d="M41.371,2.5H35.029q.015-.62.016-1.249A1.249,1.249,0,0,0,33.8,0H8.824A1.249,1.249,0,0,0,7.575,1.249q0,.629.016,1.249H1.249A1.249,1.249,0,0,0,0,3.746V6.909A13.123,13.123,0,0,0,12.491,19.962a12.459,12.459,0,0,0,5.051,4.219,18.276,18.276,0,0,1-2.275,7.862,16.337,16.337,0,0,1-2.332,3.285h0a1.259,1.259,0,0,0-.366.883v3.912H11.321a1.249,1.249,0,0,0,0,2.5H31.3a1.249,1.249,0,0,0,0-2.5H30.05V36.21a1.262,1.262,0,0,0-.366-.883h0a18.3,18.3,0,0,1-4.608-11.146,12.457,12.457,0,0,0,5.051-4.219A13.122,13.122,0,0,0,42.62,6.909V3.746A1.249,1.249,0,0,0,41.371,2.5ZM2.5,6.909V4.995H7.717a33.1,33.1,0,0,0,3.111,12.232A10.609,10.609,0,0,1,2.5,6.909ZM15.067,40.123V37.459H27.553v2.664Zm8.36-17.987a1.249,1.249,0,0,0-.868,1.189,20.716,20.716,0,0,0,3.656,11.637H16.405a20.716,20.716,0,0,0,3.656-11.637,1.249,1.249,0,0,0-.868-1.189c-2.961-.948-5.043-3.7-6.381-6.533A33.081,33.081,0,0,1,10.088,2.5H32.531a33.079,33.079,0,0,1-2.724,13.1c-1.325,2.8-3.4,5.58-6.381,6.533Zm16.7-15.227a10.609,10.609,0,0,1-8.33,10.318A33.1,33.1,0,0,0,34.9,4.994h5.219Z" fill="#019ee2"/>
      </g>
    </g>
  </g>
</svg>
