<svg xmlns="http://www.w3.org/2000/svg" xmlns:xlink="http://www.w3.org/1999/xlink" width="165" height="212.685" viewBox="0 0 165 212.685">
  <defs>
    <linearGradient id="linear-gradient" x1="0.5" x2="0.5" y2="1" gradientUnits="objectBoundingBox">
      <stop offset="0" stop-color="#1445cc" stop-opacity="0"/>
      <stop offset="1" stop-color="#1445cc"/>
    </linearGradient>
    <linearGradient id="linear-gradient-2" x1="0.5" x2="0.5" y2="1" gradientUnits="objectBoundingBox">
      <stop offset="0" stop-color="#019EE2" stop-opacity="0"/>
      <stop offset="1" stop-color="#019EE2"/>
    </linearGradient>
  </defs>
  <g id="Group_501" data-name="Group 501" transform="translate(-567 -930.055)">
    <g id="Group_496" data-name="Group 496" transform="translate(568 944.517)">
      <g id="Group_497" data-name="Group 497" transform="translate(54.595 -14.462)">
        <path id="Path_574" data-name="Path 574" d="M0,0H54.2V121L27.273,136.72,0,121Z" opacity="0.5" fill="url(#linear-gradient)"/>
      </g>
      <g id="Group_498" data-name="Group 498" transform="translate(85.262 67.668)">
        <path id="Path_574-2" data-name="Path 574" d="M0,0H77.391V128.261L38.943,144.92,0,128.261Z" transform="translate(0 -22.663)" opacity="0.5" fill="url(#linear-gradient-2)"/>
      </g>
      <g id="Group_499" data-name="Group 499" transform="translate(16.148 67.668)">
        <path id="Path_574-3" data-name="Path 574" d="M0,0H76.584V128.261L38.537,144.92,0,128.261Z" transform="translate(-15.749 -22.663)" opacity="0.5" fill="url(#linear-gradient-2)"/>
      </g>
      <g id="Group_495" data-name="Group 495" transform="translate(0 34.221)">
        <path id="Union_12" data-name="Union 12" d="M-6281.825-4587.769c-.036,0-.072-.011-.109-.016-.138-.02-.275-.041-.411-.072-.043-.01-.087-.023-.132-.034-.127-.032-.252-.069-.377-.111-.045-.016-.09-.032-.135-.05-.124-.046-.244-.1-.363-.156-.027-.013-.055-.021-.081-.034l-36.067-18.034-36.067,18.034c-.027.013-.055.021-.08.034-.118.056-.24.109-.365.156-.045.018-.09.034-.135.05-.124.043-.249.079-.377.111-.043.011-.086.026-.132.036-.133.03-.271.053-.409.071-.039,0-.074.013-.109.016a4.424,4.424,0,0,1-.529.032,4.787,4.787,0,0,1-.525-.03c-.036,0-.069-.011-.106-.016-.138-.02-.276-.042-.411-.072-.043-.01-.086-.022-.128-.032-.128-.032-.255-.069-.377-.112-.045-.015-.09-.032-.133-.048-.124-.046-.244-.1-.361-.154-.026-.011-.053-.021-.077-.032l-38.522-19.1a4.773,4.773,0,0,1-2.654-4.278v-48.073c0-.032,0-.066,0-.1s0-.091,0-.138c.007-.128.018-.257.034-.384,0-.019,0-.037.008-.058.018-.118.04-.236.064-.352.008-.032.014-.064.022-.1.032-.132.069-.262.111-.389,0-.015.009-.027.013-.039.042-.118.088-.233.137-.347.013-.029.025-.06.04-.088.055-.121.112-.238.177-.352.014-.026.03-.05.043-.076.054-.092.112-.182.172-.27.024-.035.046-.069.07-.1.072-.1.149-.2.23-.3l.085-.095c.064-.072.132-.143.2-.212.031-.031.061-.062.093-.09.092-.088.189-.172.289-.251.032-.025.066-.05.1-.074.093-.071.188-.138.286-.2.021-.012.039-.027.061-.041l.014-.009c.118-.073.236-.138.357-.2l.039-.021,35.869-17.786v-45.109c0-.029,0-.058,0-.086,0-.047,0-.093,0-.138.007-.127.016-.251.032-.373,0-.016,0-.032.006-.046.016-.125.039-.25.066-.373.008-.034.016-.068.022-.1.032-.131.068-.262.111-.389a.111.111,0,0,1,0-.014c.042-.124.09-.248.142-.367.014-.032.027-.062.042-.093.055-.121.113-.238.177-.354l.037-.06c.055-.1.114-.189.175-.281.026-.037.05-.072.076-.107.072-.1.148-.2.228-.3.026-.032.053-.061.082-.092.064-.072.13-.143.2-.212l.1-.1c.093-.086.188-.17.288-.249.03-.025.063-.048.093-.072.09-.067.182-.133.278-.2l.074-.05c.01,0,.019-.013.029-.018.111-.069.225-.13.341-.189l.034-.02,38.2-19.1a4.781,4.781,0,0,1,4.271,0l38.2,19.1.036.02c.114.059.228.12.339.189a.253.253,0,0,1,.029.018c.026.016.05.034.074.05.1.063.188.128.278.2.03.024.064.047.093.072.1.079.2.163.289.249l.1.1c.069.069.135.14.2.212.027.031.057.06.082.092.079.095.156.192.228.3.026.035.048.071.074.107.063.092.121.185.177.281.011.02.024.039.035.06.064.116.124.233.178.354.013.03.027.061.04.093q.078.181.143.367s0,.008,0,.014c.042.127.079.257.109.389.01.034.016.068.022.1.027.122.051.247.069.373,0,.015,0,.03,0,.046.016.122.026.246.031.373,0,.045,0,.091,0,.138,0,.029,0,.058,0,.086v45.108l35.869,17.787c.013.006.024.014.039.022.121.061.241.125.356.2a.046.046,0,0,0,.016.009c.02.015.039.027.061.042.1.063.191.13.285.2l.1.075c.1.079.2.163.288.251.034.029.063.059.093.09.069.069.137.14.2.212.029.032.058.063.085.095.082.1.157.194.229.3.024.034.047.067.071.1.06.088.117.178.172.271.013.024.029.048.043.074.064.114.124.231.178.35.013.03.027.061.039.09.05.114.095.229.137.347a.323.323,0,0,0,.013.039c.043.126.079.257.111.389.008.032.015.064.022.1.024.116.047.234.064.352,0,.021.006.039.01.058.018.127.027.255.034.384,0,.047,0,.092,0,.138s0,.066,0,.1v48.073a4.772,4.772,0,0,1-2.656,4.278l-38.521,19.1c-.024.011-.051.021-.077.032-.119.056-.238.108-.361.154-.043.016-.087.034-.132.048-.125.043-.25.08-.379.112-.043.01-.085.024-.128.032-.136.03-.273.053-.411.072-.035,0-.071.013-.106.016a5.206,5.206,0,0,1-.525.03A4.743,4.743,0,0,1-6281.825-4587.769Zm5.3-49.854v37.411l28.971-14.365v-37.412Zm-114.929,23.046,28.972,14.365v-37.411l-28.972-14.366Zm105.377,14.337v-37.395l-28.652-14.328v37.4Zm-66.855-37.395v37.393l28.652-14.326v-37.393Zm71.639-8.286,27.764-13.767-27.761-13.767-27.535,13.768Zm-104.186-13.767,27.763,13.767,27.532-13.766-27.533-13.767Zm70.75-45.122v37.4l28.652-14.326v-37.4Zm-38.2,23.07,28.652,14.326v-37.4l-28.652-14.326Zm5.9-45.122,27.523,13.763,27.526-13.763-27.526-13.764Z" transform="translate(6401 4750.738)" fill="#fff" stroke="#019EE2" stroke-width="2"/>
      </g>
    </g>
  </g>
</svg>
