<svg xmlns="http://www.w3.org/2000/svg" width="41.364" height="41.364" viewBox="0 0 41.364 41.364">
  <g id="icon-3" transform="translate(0 0)">
    <rect id="Rectangle_158" data-name="Rectangle 158" width="3" height="5" transform="translate(19.364 6.404)" fill="#019EE2"/>
    <path id="Path_566" data-name="Path 566" d="M17.6,21.384h9.192a4.6,4.6,0,0,0,4.6-4.6V7.6a4.6,4.6,0,0,0-4.6-4.6H17.6A4.6,4.6,0,0,0,13,7.6v9.192A4.6,4.6,0,0,0,17.6,21.384Z" transform="translate(9.98 -3)" fill="#019EE2" opacity="0.35"/>
    <path id="Path_567" data-name="Path 567" d="M7.6,21.384h9.192a4.6,4.6,0,0,0,4.6-4.6V7.6a4.6,4.6,0,0,0-4.6-4.6H7.6A4.6,4.6,0,0,0,3,7.6v9.192A4.6,4.6,0,0,0,7.6,21.384Z" transform="translate(-3 -3)" fill="#019EE2" opacity="0.35"/>
    <rect id="Rectangle_159" data-name="Rectangle 159" width="3" height="5" transform="translate(19.364 30.404)" fill="#019EE2"/>
    <rect id="Rectangle_160" data-name="Rectangle 160" width="3" height="5" transform="translate(35.364 19.404) rotate(90)" fill="#019EE2"/>
    <rect id="Rectangle_161" data-name="Rectangle 161" width="3" height="5" transform="translate(11.364 19.404) rotate(90)" fill="#019EE2"/>
    <path id="Path_568" data-name="Path 568" d="M17.6,31.384h9.192a4.6,4.6,0,0,0,4.6-4.6V17.6a4.6,4.6,0,0,0-4.6-4.6H17.6A4.6,4.6,0,0,0,13,17.6v9.192A4.6,4.6,0,0,0,17.6,31.384Z" transform="translate(9.98 9.98)" fill="#019EE2" opacity="0.35"/>
    <path id="Path_569" data-name="Path 569" d="M7.6,31.384h9.192a4.6,4.6,0,0,0,4.6-4.6V17.6a4.6,4.6,0,0,0-4.6-4.6H7.6A4.6,4.6,0,0,0,3,17.6v9.192A4.6,4.6,0,0,0,7.6,31.384Z" transform="translate(-3 9.98)" fill="#019EE2" opacity="0.35"/>
  </g>
</svg>
