<svg xmlns="http://www.w3.org/2000/svg" width="41.364" height="48.257" viewBox="0 0 41.364 48.257">
  <g id="icon-2" transform="translate(0)">
    <circle id="Ellipse_53" data-name="Ellipse 53" cx="3.5" cy="3.5" r="3.5" transform="translate(25.177 2)" fill="#019EE2" opacity="0.35"/>
    <path id="Path_563" data-name="Path 563" d="M37.47,9.894h-16.2a5.922,5.922,0,0,0,.115-1.149,5.745,5.745,0,0,0-11.49,0,5.922,5.922,0,0,0,.115,1.149H9.894A6.893,6.893,0,0,0,3,16.788V37.47a6.893,6.893,0,0,0,6.894,6.894H37.47a6.893,6.893,0,0,0,6.894-6.894V16.788A6.893,6.893,0,0,0,37.47,9.894Z" transform="translate(-3 3.894)" fill="#019EE2" opacity="0.35"/>
    <ellipse id="Ellipse_54" data-name="Ellipse 54" cx="3.5" cy="4" rx="3.5" ry="4" transform="translate(30.177 27)" fill="#019EE2"/>
    <path id="Path_564" data-name="Path 564" d="M18.745,0A5.745,5.745,0,1,0,24.49,5.745,5.744,5.744,0,0,0,18.745,0Zm.728,7.88h0a.616.616,0,0,1-1.232,0V4.4l-.331.25a.552.552,0,1,1-.657-.887l.905-.662a.827.827,0,0,1,1.317.666V7.88Z" transform="translate(9.98)" fill="#019EE2"/>
    <path id="Path_565" data-name="Path 565" d="M7.3,11.192h6.363s0-.007,0-.011a1.233,1.233,0,0,0-1.119-1.151,3.385,3.385,0,0,0-.731.087.634.634,0,0,1-.754-.648l.094-2.588a.872.872,0,0,1,.873-.841H14.3a.747.747,0,0,1,0,1.494H12.629l-.053,1.312a1.615,1.615,0,0,1,.3-.087,1.418,1.418,0,0,1,.285-.032,2.228,2.228,0,0,1,2.158,2.4c0,.021,0,.044,0,.064h5.658a7.913,7.913,0,0,0,.117-1.149A8.043,8.043,0,1,0,5.154,11.566,6.83,6.83,0,0,1,7.3,11.192Z" transform="translate(-0.404 2.596)" fill="#019EE2"/>
  </g>
</svg>
