<svg xmlns="http://www.w3.org/2000/svg" width="89" height="89" viewBox="0 0 89 89">
  <g id="_3" data-name="3" transform="translate(-14146 -4205)">
    <rect id="Rectangle_176" data-name="Rectangle 176" width="89" height="89" rx="25" transform="translate(14146 4205)" fill="#fff"/>
    <g id="Group_523" data-name="Group 523" transform="translate(14169 4228)">
      <g id="Group_522" data-name="Group 522" transform="translate(0)">
        <path id="Path_587" data-name="Path 587" d="M161.916,7.847h4.1v4.1a1.249,1.249,0,0,0,1.249,1.249h10.7a1.249,1.249,0,0,0,1.249-1.249v-4.1h4.1A1.249,1.249,0,0,0,184.563,6.6V1.249A1.249,1.249,0,0,0,183.314,0h-21.4a1.249,1.249,0,0,0-1.249,1.249V6.6A1.249,1.249,0,0,0,161.916,7.847Zm14.8,2.852h-8.2V7.847h8.2ZM163.164,2.5h18.9V5.35h-18.9Z" transform="translate(-147.293)" fill="#019ee2"/>
        <path id="Path_588" data-name="Path 588" d="M260.274,189.009c-.328.23-3.207,2.325-3.207,5.035a3.923,3.923,0,0,0,7.847,0c0-2.71-2.879-4.805-3.207-5.035A1.249,1.249,0,0,0,260.274,189.009Zm.716,6.461a1.428,1.428,0,0,1-1.426-1.426,3.673,3.673,0,0,1,1.429-2.391,3.986,3.986,0,0,1,1.424,2.391A1.428,1.428,0,0,1,260.99,195.47Z" transform="translate(-235.668 -173.068)" fill="#019ee2"/>
        <path id="Path_589" data-name="Path 589" d="M42.253,303.372a6.918,6.918,0,0,0-9.789,0l-4.556,4.556a4.257,4.257,0,0,0-4.258-4.253H16.629a7.279,7.279,0,0,0-7.16,6.018H1.249a1.249,1.249,0,0,0,0,2.5h9.362a1.249,1.249,0,0,0,1.249-1.249,4.775,4.775,0,0,1,4.77-4.77H23.65a1.761,1.761,0,0,1,0,3.521H18.635a1.249,1.249,0,0,0,0,2.5h8.024a1.249,1.249,0,0,0,.883-.366l6.688-6.688a4.429,4.429,0,0,1,5.25-.757l-12,12H1.249a1.249,1.249,0,0,0,0,2.5H28a1.249,1.249,0,0,0,.883-.366l13.374-13.374a1.249,1.249,0,0,0,0-1.767Z" transform="translate(0 -276.258)" fill="#019ee2"/>
      </g>
    </g>
  </g>
</svg>
