<svg xmlns="http://www.w3.org/2000/svg" width="89" height="89" viewBox="0 0 89 89">
  <g id="_6" data-name="6" transform="translate(-14522 -4205)">
    <rect id="Rectangle_179" data-name="Rectangle 179" width="89" height="89" rx="25" transform="translate(14522 4205)" fill="#fff"/>
    <g id="Group_528" data-name="Group 528" transform="translate(14545 4228)">
      <g id="Group_527" data-name="Group 527">
        <path id="Path_595" data-name="Path 595" d="M38.874,0H3.746A3.75,3.75,0,0,0,0,3.746V38.874A3.75,3.75,0,0,0,3.746,42.62H38.874a3.75,3.75,0,0,0,3.746-3.746V3.746A3.75,3.75,0,0,0,38.874,0Zm1.249,38.874a1.25,1.25,0,0,1-1.249,1.249H3.746A1.25,1.25,0,0,1,2.5,38.874V12.486H24.639a1.248,1.248,0,0,0,1.039-.556l1.294-1.941H33.96l1.294,1.941a1.248,1.248,0,0,0,1.039.556h3.829V38.874Zm0-28.885H36.961L35.667,8.048a1.248,1.248,0,0,0-1.039-.556H26.3a1.248,1.248,0,0,0-1.039.556L23.971,9.989H2.5V3.746A1.25,1.25,0,0,1,3.746,2.5H38.874a1.25,1.25,0,0,1,1.249,1.249Z" fill="#019ee2"/>
        <ellipse id="Ellipse_69" data-name="Ellipse 69" cx="1.573" cy="1.18" rx="1.573" ry="1.18" transform="translate(4.635 4.979)" fill="#019ee2"/>
        <ellipse id="Ellipse_70" data-name="Ellipse 70" cx="1.18" cy="1.18" rx="1.18" ry="1.18" transform="translate(10.139 4.979)" fill="#019ee2"/>
        <ellipse id="Ellipse_71" data-name="Ellipse 71" cx="1.18" cy="1.18" rx="1.18" ry="1.18" transform="translate(14.858 4.979)" fill="#019ee2"/>
        <path id="Path_596" data-name="Path 596" d="M80.249,235A1.249,1.249,0,0,0,79,236.249V247.07a1.249,1.249,0,1,0,2.5,0V236.249A1.249,1.249,0,0,0,80.249,235Z" transform="translate(-72.424 -215.438)" fill="#019ee2"/>
        <path id="Path_597" data-name="Path 597" d="M143.9,244.586a1.249,1.249,0,0,0-1.759.154,3.014,3.014,0,0,1-2.452,1.081,4.162,4.162,0,1,1,2.326-7.614,1.249,1.249,0,1,0,1.4-2.069,6.66,6.66,0,1,0-3.724,12.181,5.507,5.507,0,0,0,4.365-1.973A1.249,1.249,0,0,0,143.9,244.586Z" transform="translate(-121.952 -215.438)" fill="#019ee2"/>
        <path id="Path_598" data-name="Path 598" d="M287.659,235a6.659,6.659,0,1,0,6.659,6.659A6.667,6.667,0,0,0,287.659,235Zm0,10.821a4.162,4.162,0,1,1,4.162-4.162A4.167,4.167,0,0,1,287.659,245.821Z" transform="translate(-257.609 -215.438)" fill="#019ee2"/>
      </g>
    </g>
  </g>
</svg>
