<svg xmlns="http://www.w3.org/2000/svg" xmlns:xlink="http://www.w3.org/1999/xlink" width="163.001" height="197.222" viewBox="0 0 163.001 197.222">
  <defs>
    <linearGradient id="linear-gradient" x1="0.5" x2="0.5" y2="1" gradientUnits="objectBoundingBox">
      <stop offset="0" stop-color="#1445cc" stop-opacity="0"/>
      <stop offset="1" stop-color="#1445cc"/>
    </linearGradient>
    <linearGradient id="linear-gradient-2" x1="0.5" x2="0.5" y2="1" gradientUnits="objectBoundingBox">
      <stop offset="0" stop-color="#15b78a" stop-opacity="0"/>
      <stop offset="1" stop-color="#15b78a"/>
    </linearGradient>
  </defs>
  <g id="Group_500" data-name="Group 500" transform="translate(-568 -944.517)">
    <g id="Group_496" data-name="Group 496" transform="translate(568 944.517)">
      <g id="Group_497" data-name="Group 497" transform="translate(54.595 0)">
        <path id="Path_574" data-name="Path 574" d="M0,0H54.2V108.2L27.273,122.257,0,108.2Z" opacity="0.5" fill="url(#linear-gradient)"/>
      </g>
      <g id="Group_498" data-name="Group 498" transform="translate(92.274 67.668)">
        <path id="Path_574-2" data-name="Path 574" d="M0,0H54.2V108.2L27.273,122.257,0,108.2Z" transform="translate(0 0)" opacity="0.5" fill="url(#linear-gradient-2)"/>
      </g>
      <g id="Group_499" data-name="Group 499" transform="translate(16.148 67.668)">
        <path id="Path_574-3" data-name="Path 574" d="M0,0H54.2V108.2L27.273,122.257,0,108.2Z" transform="translate(0 0)" opacity="0.5" fill="url(#linear-gradient-2)"/>
      </g>
      <g id="Group_495" data-name="Group 495" transform="translate(0 34.221)">
        <path id="Path_571" data-name="Path 571" d="M327.27,234.777q0-.069,0-.138c-.006-.128-.016-.257-.034-.384,0-.019-.006-.037-.009-.057-.017-.118-.04-.236-.065-.352l-.022-.1c-.032-.132-.068-.261-.111-.389a.356.356,0,0,1-.014-.039c-.041-.117-.087-.231-.136-.346l-.039-.09q-.082-.179-.179-.351c-.014-.026-.03-.05-.044-.075-.055-.093-.112-.183-.172-.271-.024-.035-.046-.068-.071-.1-.072-.1-.148-.2-.229-.3l-.086-.1c-.065-.072-.132-.143-.2-.211-.03-.031-.06-.061-.092-.091-.092-.087-.189-.17-.289-.25l-.1-.075c-.093-.07-.188-.137-.286-.2l-.061-.041-.015-.01c-.117-.072-.236-.137-.357-.2-.014-.007-.025-.016-.039-.022L286.1,211.5a4.775,4.775,0,1,0-4.243,8.556l29.892,14.824-27.763,13.767L247.908,230.6a4.775,4.775,0,1,0-4.272,8.542L279.2,256.928v37.4l-31.293-15.647a4.776,4.776,0,0,0-4.272,8.544l38.2,19.1c.026.012.053.021.08.034.119.057.24.109.364.155.045.017.09.035.134.05.124.042.25.08.378.112.045.011.088.024.132.034.136.031.272.054.41.072.037.005.073.012.109.016a4.64,4.64,0,0,0,.529.031,4.9,4.9,0,0,0,.525-.03c.035,0,.071-.011.106-.016.139-.019.276-.041.412-.072.044-.009.086-.022.128-.032.129-.032.255-.07.379-.112.045-.015.088-.032.133-.048.123-.047.242-.1.361-.154.026-.011.052-.02.077-.032l38.522-19.1a4.774,4.774,0,0,0,2.655-4.278V234.875c0-.032,0-.066,0-.1Zm-9.547,45.209L288.752,294.35V256.939l28.971-14.366Zm0,0" transform="translate(-164.272 -143.824)" fill="#fff"/>
        <path id="Path_572" data-name="Path 572" d="M84.012,230.812a4.778,4.778,0,0,0-4.646-.209L43.289,248.642,15.526,234.875l29.894-14.824a4.775,4.775,0,0,0-4.243-8.556L2.654,230.6c-.012.006-.025.015-.039.021-.121.061-.24.127-.357.2l-.015.01c-.021.012-.04.027-.061.04-.1.065-.193.132-.286.2l-.1.075c-.1.08-.2.163-.289.25-.032.029-.062.06-.093.091-.068.068-.136.139-.2.211l-.086.1c-.08.1-.157.194-.229.295-.025.035-.047.068-.071.1-.06.088-.117.178-.172.27-.014.025-.03.05-.044.075-.065.114-.123.233-.178.352-.014.03-.027.06-.04.09-.049.113-.095.229-.136.346,0,.012-.009.025-.014.039-.042.128-.078.257-.111.389l-.022.1c-.025.116-.047.234-.065.352,0,.02-.006.039-.009.057-.016.127-.027.256-.034.384q0,.069,0,.138c0,.032,0,.066,0,.1v48.073a4.775,4.775,0,0,0,2.654,4.278l38.522,19.1c.025.012.052.021.077.032.118.056.239.108.362.154.044.016.088.034.133.049.123.042.25.08.378.112.042.01.085.022.128.032.136.03.272.053.412.072.036.005.071.012.106.016a4.892,4.892,0,0,0,.526.03,4.635,4.635,0,0,0,.527-.031c.036,0,.072-.011.109-.016.138-.019.276-.041.41-.071.045-.01.088-.024.132-.035.128-.032.254-.068.378-.112.045-.015.09-.032.134-.05.124-.046.246-.1.364-.155.026-.012.053-.021.08-.034l38.2-19.1a4.778,4.778,0,0,0,2.64-4.272V234.875a4.777,4.777,0,0,0-2.265-4.063ZM9.551,242.573l28.971,14.366v37.411L9.551,279.986ZM76.725,280,48.073,294.322V256.928L76.725,242.6Zm0,0" transform="translate(-0.001 -143.824)" fill="#fff"/>
        <path id="Path_573" data-name="Path 573" d="M206.955,23.791c0-.047,0-.093,0-.139,0-.126-.015-.25-.03-.372,0-.016,0-.032-.006-.047-.017-.126-.041-.25-.068-.373-.006-.034-.014-.066-.022-.1-.031-.132-.067-.262-.109-.39a.1.1,0,0,1,0-.014c-.042-.124-.091-.246-.143-.367-.012-.031-.026-.062-.04-.092-.055-.121-.113-.239-.178-.354-.011-.02-.025-.04-.036-.06-.056-.1-.114-.189-.177-.281-.025-.036-.048-.072-.075-.107-.072-.1-.148-.2-.228-.3-.026-.031-.055-.061-.082-.091-.065-.072-.131-.143-.2-.213-.032-.032-.063-.065-.1-.1-.092-.087-.189-.17-.289-.25-.03-.025-.062-.047-.093-.071-.09-.068-.182-.134-.277-.2-.025-.016-.048-.034-.075-.05l-.029-.019c-.111-.068-.225-.129-.339-.189l-.035-.02L166.114.5a4.781,4.781,0,0,0-4.272,0l-38.2,19.1-.034.02c-.116.06-.23.121-.341.189-.01.006-.019.014-.029.019l-.075.05c-.1.062-.188.128-.277.2-.031.024-.063.046-.093.071q-.149.119-.287.25c-.034.031-.066.063-.1.1-.07.07-.136.141-.2.213-.027.03-.055.06-.081.091-.081.1-.157.194-.229.3l-.075.107c-.061.092-.121.185-.175.281l-.037.06c-.065.116-.122.234-.177.354-.015.03-.027.061-.041.092-.052.119-.1.243-.142.367a.045.045,0,0,0,0,.014c-.044.128-.078.259-.111.39l-.022.1c-.027.123-.051.247-.067.373,0,.015,0,.031-.006.047-.016.122-.025.246-.031.372,0,.046,0,.092,0,.139,0,.029,0,.057,0,.086V71.95a4.776,4.776,0,0,0,2.64,4.272l38.2,19.1c.025.012.052.021.078.034.119.057.24.109.366.155.045.017.088.035.134.05.123.044.25.08.378.113.044.011.087.024.131.034.136.03.272.052.412.071.036,0,.072.014.108.017a4.684,4.684,0,0,0,1.056,0l.108-.017c.139-.019.277-.041.412-.071.044-.01.087-.022.132-.034.128-.034.254-.07.378-.113.045-.015.09-.032.134-.05.124-.046.245-.1.364-.155.026-.012.053-.021.08-.034l38.2-19.1a4.776,4.776,0,0,0,2.64-4.272V23.877c0-.029,0-.057,0-.086ZM163.979,10.114,191.5,23.877,163.979,37.64,136.454,23.877ZM130.551,31.6,159.2,45.93v37.4L130.551,69ZM197.407,69,168.754,83.325V45.93L197.407,31.6Zm0,0" transform="translate(-82.478 0)" fill="#fff"/>
      </g>
    </g>
  </g>
</svg>
