<?xml version="1.0" standalone="no"?>
<!DOCTYPE svg PUBLIC "-//W3C//DTD SVG 1.1//EN" "http://www.w3.org/Graphics/SVG/1.1/DTD/svg11.dtd" >
<svg xmlns="http://www.w3.org/2000/svg" xmlns:xlink="http://www.w3.org/1999/xlink" version="1.1">
<metadata>
Created by FontForge 20190801 at Fri Sep  9 15:41:26 2016
 By www-data
Copyright (c) 2016 by Lucas Sharp. All rights reserved.
</metadata>
<defs>
<font id="SharpSans_10" horiz-adv-x="638" >
  <font-face 
    font-family="SharpSans_10"
    font-weight="600"
    font-stretch="normal"
    units-per-em="1000"
    panose-1="0 0 0 0 0 0 0 0 0 0"
    ascent="800"
    descent="-200"
    x-height="540"
    cap-height="730"
    bbox="-60 -288 1432 1096"
    underline-thickness="50"
    underline-position="-100"
    unicode-range="U+000D-F472"
  />
<missing-glyph horiz-adv-x="715" 
d="M74 730h567v-730h-567v730zM183 104h350v522h-350v-522z" />
    <glyph glyph-name=".notdef" horiz-adv-x="715" 
d="M74 730h567v-730h-567v730zM183 104h350v522h-350v-522z" />
    <glyph glyph-name=".null" horiz-adv-x="0" 
 />
    <glyph glyph-name="nonmarkingreturn" unicode="&#xd;" horiz-adv-x="240" 
 />
    <glyph glyph-name="NULL" horiz-adv-x="0" 
 />
    <glyph glyph-name="NULL" horiz-adv-x="0" 
 />
    <glyph glyph-name="space" unicode=" " horiz-adv-x="240" 
 />
    <glyph glyph-name="exclam" unicode="!" horiz-adv-x="244" 
d="M93 218q-5 40 -9.5 88t-7.5 99.5t-5 104.5t-2 103v117h107v-117q0 -50 -2 -103t-5 -104.5t-7.5 -99.5t-9.5 -88h-59zM46 60q0 33 21.5 55t54.5 22q34 0 55.5 -22t21.5 -55t-21.5 -55t-55.5 -22t-55 22t-21 55z" />
    <glyph glyph-name="quotedbl" unicode="&#x22;" horiz-adv-x="333" 
d="M85 500q-3 9 -8 27.5t-9.5 40t-7.5 42.5t-3 36v84h88v-84q0 -15 -3.5 -36t-8 -42.5t-9.5 -40t-8 -27.5h-31zM217 500q-3 9 -8 27.5t-9.5 40t-7.5 42.5t-3 36v84h88v-84q0 -15 -3.5 -36t-8 -42.5t-9.5 -40t-8 -27.5h-31z" />
    <glyph glyph-name="numbersign" unicode="#" horiz-adv-x="837" 
d="M511 171h-189v-171h-108v171h-169v104h169v189h-169v104h169v162h108v-162h189v162h109v-162h172v-104h-172v-189h172v-104h-172v-171h-109v171zM322 275h189v189h-189v-189z" />
    <glyph glyph-name="dollar" unicode="$" horiz-adv-x="581" 
d="M544 209q0 -38 -13 -73t-38 -64.5t-61.5 -50t-82.5 -27.5v-114h-106v114q-70 11 -124.5 45.5t-92.5 83.5l96 75q22 -38 53.5 -63t69.5 -36v243q-35 11 -68.5 26t-60 37.5t-43 55.5t-16.5 80q0 37 13.5 69.5t38.5 58t59 43t75 24.5v104h106v-105q60 -9 102.5 -35.5
t76.5 -66.5l-89 -67q-17 26 -40 44.5t-52 26.5v-217q36 -12 71 -28t63 -40.5t45.5 -59t17.5 -83.5zM434 209q0 39 -24.5 62t-62.5 38v-210q41 12 64 42t23 68zM166 544q0 -35 22 -55.5t57 -34.5v185q-36 -11 -57.5 -36t-21.5 -59z" />
    <glyph glyph-name="percent" unicode="%" horiz-adv-x="860" 
d="M145 566q0 -35 24 -59.5t58 -24.5t58 24.5t24 59.5q0 18 -6.5 33t-17.5 26.5t-26 18t-32 6.5t-32 -6.5t-26 -18t-17.5 -26.5t-6.5 -33zM465 164q0 36 13.5 67.5t37 55.5t55.5 37.5t68 13.5t67.5 -13.5t55.5 -37.5t37.5 -55.5t13.5 -67.5t-13.5 -68t-37.5 -56t-55.5 -37.5
t-67.5 -13.5t-68 13.5t-55.5 37.5t-37 56t-13.5 68zM678 730h137l-627 -730h-137zM557 164q0 -18 6.5 -33t17.5 -26.5t26 -18t32 -6.5t32 6.5t26 18t17.5 26.5t6.5 33q0 35 -24 59t-58 24t-58 -24t-24 -59zM53 566q0 36 13.5 68t37.5 55.5t55.5 37t67.5 13.5t67.5 -13.5
t55.5 -37t37.5 -55.5t13.5 -68t-13.5 -67.5t-37.5 -55.5t-55.5 -37.5t-67.5 -13.5t-67.5 13.5t-55.5 37.5t-37.5 55.5t-13.5 67.5z" />
    <glyph glyph-name="ampersand" unicode="&#x26;" horiz-adv-x="802" 
d="M273 -10q-50 0 -91 13.5t-70.5 39t-46 62t-16.5 82.5q0 40 15 72.5t39.5 59t56 48t64.5 40.5q-37 41 -56 78t-20 83q0 34 12 65t36 55t59.5 38t82.5 14q44 0 78 -13.5t57 -36.5t34.5 -52.5t11.5 -62.5q0 -31 -11.5 -56.5t-31 -48t-45 -41.5t-53.5 -36l128 -128l137 174
h132l-193 -241l207 -198h-154l-119 118q-63 -69 -119.5 -98.5t-123.5 -29.5zM275 90q41 0 81.5 21.5t86.5 74.5l-155 154q-27 -16 -50.5 -32t-41 -33.5t-28 -37.5t-10.5 -42q0 -26 9.5 -45.5t25.5 -33t37.5 -20t44.5 -6.5zM253 574q0 -32 13.5 -56.5t47.5 -59.5
q43 25 71.5 52.5t28.5 63.5q0 32 -21 54.5t-57 22.5q-38 0 -60.5 -22.5t-22.5 -54.5z" />
    <glyph glyph-name="quotesingle" unicode="'" horiz-adv-x="202" 
d="M85 500q-3 9 -8 27.5t-9.5 40t-7.5 42.5t-3 36v84h88v-84q0 -15 -3.5 -36t-8 -42.5t-9.5 -40t-8 -27.5h-31v0z" />
    <glyph glyph-name="parenleft" unicode="(" horiz-adv-x="429" 
d="M323 -251q-60 41 -110.5 91.5t-88 112.5t-58.5 136t-21 161q0 88 20.5 160.5t56.5 132.5t85.5 110t108.5 93l73 -80q-50 -35 -92 -76.5t-73 -92.5t-48 -112t-17 -134q0 -71 16.5 -131.5t46.5 -111.5t73 -93.5t97 -77.5l-69 -88v0z" />
    <glyph glyph-name="parenright" unicode=")" horiz-adv-x="429" 
d="M270 249q0 73 -17 134t-48 112t-73 93t-92 76l73 81q58 -43 108 -93t86 -110.5t56.5 -133t20.5 -159.5t-21 -161t-58.5 -136t-88 -112.5t-110.5 -91.5l-69 87q54 35 97 77.5t73 93.5t46.5 111.5t16.5 131.5z" />
    <glyph glyph-name="asterisk" unicode="*" horiz-adv-x="440" 
d="M246 509l21 -132h-94l20 132l-104 -84l-46 82l124 47l-124 49l48 81l103 -85l-21 132h94l-21 -132l104 84l47 -82l-126 -47l126 -48l-49 -81z" />
    <glyph glyph-name="plus" unicode="+" horiz-adv-x="477" 
d="M54 411h140v138h90v-138h140v-92h-140v-140h-90v140h-140v92z" />
    <glyph glyph-name="comma" unicode="," horiz-adv-x="256" 
d="M101 -9q-28 0 -44.5 19t-16.5 45q0 38 23 60t59 22q42 0 66 -29t24 -71q0 -54 -33.5 -99t-86.5 -80l-37 42q46 32 69.5 63t23.5 66v2q-3 -21 -15.5 -30.5t-31.5 -9.5z" />
    <glyph glyph-name="hyphen" unicode="-" horiz-adv-x="477" 
d="M54 299h370v-93h-370v93z" />
    <glyph glyph-name="period" unicode="." horiz-adv-x="230" 
d="M39 60q0 33 21.5 55t54.5 22q34 0 55.5 -22t21.5 -55t-21.5 -55t-55.5 -22t-55 22t-21 55z" />
    <glyph glyph-name="slash" unicode="/" horiz-adv-x="517" 
d="M375 730h115l-346 -730h-115z" />
    <glyph glyph-name="zero" unicode="0" horiz-adv-x="679" 
d="M338 95q40 0 72.5 12t55.5 41.5t35.5 79t12.5 124.5v34q0 75 -12.5 123t-35.5 76.5t-55 39.5t-71 11q-40 0 -72.5 -12t-55.5 -40.5t-35.5 -76.5t-12.5 -121v-34q0 -76 12.5 -125.5t35 -79t54.5 -41t72 -11.5zM339 -10q-63 0 -115.5 19.5t-89.5 62.5t-57.5 112t-20.5 168
v34q0 95 21.5 162t59.5 110t89.5 62.5t112.5 19.5q62 0 114.5 -20t90 -63t58.5 -110t21 -161v-34q0 -101 -21 -170t-59 -111.5t-90 -61.5t-114 -19z" />
    <glyph glyph-name="one" unicode="1" horiz-adv-x="389" 
d="M198 0v569q-19 -39 -57 -62.5t-91 -23.5h-12v108h5q41 0 71 10.5t49 29.5t28.5 44t10.5 55h105v-730h-109z" />
    <glyph glyph-name="two" unicode="2" horiz-adv-x="559" 
d="M46 104q0 45 17 82t45 68.5t63 58.5t70 51q30 21 58 41.5t49.5 41.5t34.5 43t13 47q0 47 -32 77.5t-91 30.5q-51 0 -86 -29t-57 -76l-94 48q32 69 92.5 110.5t144.5 41.5q54 0 97.5 -16t73.5 -43.5t46.5 -65t16.5 -79.5q0 -43 -16.5 -77.5t-43.5 -64t-61 -54.5t-68 -49
q-31 -21 -60.5 -42.5t-52 -44t-36 -47t-13.5 -53.5h352v-104h-462v104z" />
    <glyph glyph-name="three" unicode="3" horiz-adv-x="582" 
d="M278 -10q-91 0 -152.5 31.5t-107.5 95.5l91 69q30 -51 71 -74t98 -23q65 0 105.5 33.5t40.5 87.5q0 53 -39.5 84t-105.5 31h-84v101h77q65 0 99 32t34 80q0 45 -32 76t-97 31q-54 0 -89.5 -21.5t-59.5 -65.5l-92 53q39 60 98.5 94.5t143.5 34.5q55 0 98.5 -14.5t73.5 -41
t46 -63t16 -80.5q0 -54 -24 -95t-67 -67q52 -23 82 -65.5t30 -105.5q0 -47 -17.5 -86.5t-50 -69t-79.5 -46t-107 -16.5z" />
    <glyph glyph-name="four" unicode="4" horiz-adv-x="619" 
d="M367 168h-327v100l323 462h111v-463h107v-99h-107v-168h-107v168zM367 267v298l-209 -298h209z" />
    <glyph glyph-name="five" unicode="5" horiz-adv-x="589" 
d="M296 -10q-45 0 -84 10.5t-70.5 29t-55 43.5t-38.5 53l101 61q20 -40 55.5 -68t91.5 -28q29 0 54.5 10t44.5 29t30 44.5t11 57.5q0 33 -11 60t-30.5 45.5t-45 29t-54.5 10.5q-53 0 -87.5 -24t-55.5 -64l-99 45l56 396h388v-102h-300l-28 -197q25 19 58.5 32t75.5 13
q48 0 92 -15.5t77.5 -46t53.5 -76t20 -106.5q0 -54 -19 -98.5t-52 -76.5t-79 -49.5t-100 -17.5z" />
    <glyph glyph-name="six" unicode="6" horiz-adv-x="633" 
d="M326 -10q-60 0 -110 22t-88 70q-17 21 -30.5 46.5t-22.5 57.5t-14 71.5t-5 89.5q0 96 24.5 169.5t70 123t110 75t143.5 25.5q38 0 74 -6.5t58 -14.5l-42 -103q-17 8 -44 14t-54 6q-104 0 -166.5 -61t-71.5 -188q29 49 77.5 75.5t111.5 26.5q49 0 92.5 -18.5t76 -51.5
t51 -78.5t18.5 -99.5q0 -53 -20 -99t-54.5 -80t-82 -53t-102.5 -19zM325 91q32 0 60 11.5t48.5 31.5t32.5 47.5t12 59.5t-11.5 59t-31.5 47t-48.5 31.5t-61.5 11.5q-32 0 -59 -11t-47.5 -31t-32 -47.5t-11.5 -59.5t11.5 -59.5t32 -47.5t47.5 -31.5t59 -11.5z" />
    <glyph glyph-name="seven" unicode="7" horiz-adv-x="569" 
d="M407 626h-361v104h474v-94l-280 -636h-116z" />
    <glyph glyph-name="eight" unicode="8" horiz-adv-x="601" 
d="M300 -10q-63 0 -111.5 16t-81.5 45.5t-50 70.5t-17 91q0 57 28 101.5t78 73.5q-37 26 -57 64t-20 87q0 45 16.5 82t46.5 63.5t73 41t97 14.5q53 0 96 -14.5t74 -41t47.5 -63.5t16.5 -82q0 -49 -21.5 -87t-59.5 -64q49 -29 77.5 -73.5t28.5 -101.5q0 -50 -17.5 -91
t-51.5 -70.5t-82.5 -45.5t-109.5 -16zM300 87q37 0 66.5 10t49.5 27t30.5 40t10.5 49q0 25 -10 48t-30 40t-49 27t-67 10t-67 -10t-49 -27.5t-30.5 -40t-10.5 -47.5q0 -26 10 -49t30 -40t49 -27t67 -10zM301 431q69 0 101.5 31t32.5 77q0 45 -33 76.5t-99 31.5t-100 -31.5
t-34 -76.5q0 -46 31.5 -77t100.5 -31z" />
    <glyph glyph-name="nine" unicode="9" horiz-adv-x="624" 
d="M248 -11q-61 0 -108 12.5t-84 35.5l64 101q26 -19 59.5 -31t65.5 -12q200 0 217 244q-29 -44 -74 -67t-103 -23q-49 0 -92 18t-75.5 50.5t-51 77.5t-18.5 98q0 52 19.5 97.5t53.5 78.5t80.5 52t100.5 19q60 0 113 -26t89 -71q16 -20 28 -44t20 -54t12 -68.5t4 -87.5
q0 -95 -21.5 -169.5t-62.5 -125.5t-100.5 -78t-135.5 -27zM306 348q31 0 58 11t47 30t32 45.5t12 58.5q0 31 -12 58t-33 46.5t-48.5 30.5t-58.5 11t-58 -11t-46.5 -30.5t-31 -46.5t-11.5 -58t11.5 -57.5t31.5 -46t47.5 -30.5t59.5 -11z" />
    <glyph glyph-name="colon" unicode=":" horiz-adv-x="230" 
d="M39 60q0 33 21.5 55t54.5 22q34 0 55.5 -22t21.5 -55t-21.5 -55t-55.5 -22t-55 22t-21 55zM39 423q0 33 21.5 55t54.5 22q34 0 55.5 -22t21.5 -55t-21.5 -55t-55.5 -22t-55 22t-21 55z" />
    <glyph glyph-name="semicolon" unicode=";" horiz-adv-x="256" 
d="M55 -100q46 32 69.5 63t23.5 66v1q-7 -39 -47 -39q-28 0 -44.5 19t-16.5 45q0 38 23 60t59 22q42 0 66 -29t24 -71q0 -54 -33.5 -99t-86.5 -80zM43 423q0 33 21.5 55t54.5 22q34 0 55.5 -22t21.5 -55t-21.5 -55t-55.5 -22t-55 22t-21 55z" />
    <glyph glyph-name="less" unicode="&#x3c;" horiz-adv-x="477" 
d="M54 319v92l370 136v-95l-257 -87l257 -89v-95z" />
    <glyph glyph-name="equal" unicode="=" horiz-adv-x="477" 
d="M54 492h370v-92h-370v92zM54 327h370v-92h-370v92z" />
    <glyph glyph-name="greater" unicode="&#x3e;" horiz-adv-x="477" 
d="M54 276l256 89l-256 87v95l370 -136v-92l-370 -138v95z" />
    <glyph glyph-name="question" unicode="?" horiz-adv-x="551" 
d="M211 224q0 56 13 93t33 62t42.5 42t42.5 33.5t33 37t13 52.5q0 45 -32.5 73.5t-83.5 28.5q-49 0 -78.5 -25.5t-45.5 -63.5l-99 37q23 63 79.5 104.5t145.5 41.5q49 0 90 -14t71 -40t46.5 -62.5t16.5 -80.5q0 -47 -14 -78t-35 -52.5t-46 -38t-46 -36t-35 -46.5t-14 -68
v-10h-97v10zM260 -17q-34 0 -55.5 22t-21.5 55t21.5 55t55.5 22t55 -22t21 -55t-21.5 -55t-54.5 -22z" />
    <glyph glyph-name="at" unicode="@" horiz-adv-x="836" 
d="M418 -125q-78 0 -146 29.5t-118.5 80t-79.5 119t-29 146.5t29.5 146t80.5 119t119.5 80.5t146.5 29.5q84 0 152.5 -28.5t116.5 -75.5t74.5 -108t26.5 -125q0 -43 -11 -81t-32 -66.5t-51.5 -45t-69.5 -16.5q-44 0 -73 16t-44 39q-19 -25 -51 -40.5t-77 -15.5q-31 0 -61 12
t-52.5 35t-35 56.5t-7.5 77.5q5 46 23.5 79.5t44 55.5t55 33t57.5 11q35 0 61 -11.5t43 -31.5q1 12 2 19.5t1 11.5v6h93l-20 -181q-9 -82 48 -82q32 0 49.5 32.5t17.5 85.5q0 47 -19.5 92t-56 80t-88.5 56.5t-116 21.5q-59 0 -111 -22.5t-90.5 -61.5t-60.5 -91.5t-22 -111.5
t21.5 -111.5t59.5 -91.5t89.5 -61.5t110.5 -22.5q63 0 115.5 23.5t91.5 65.5l68 -57q-48 -53 -119.5 -86.5t-155.5 -33.5zM402 164q40 0 65.5 28.5t29.5 67.5q4 38 -16.5 66.5t-59.5 28.5q-19 0 -36.5 -7t-31 -19t-22.5 -29.5t-10 -38.5q-3 -20 2 -38t16 -31t27 -20.5
t36 -7.5z" />
    <glyph glyph-name="A" unicode="A" horiz-adv-x="718" 
d="M304 730h110l282 -730h-113l-59 156h-330l-58 -156h-114zM233 260h252l-126 334z" />
    <glyph glyph-name="B" unicode="B" horiz-adv-x="690" 
d="M74 730h314q111 0 175.5 -53t64.5 -147q0 -51 -23.5 -90.5t-69.5 -62.5q49 -23 75.5 -65t26.5 -102q0 -102 -66.5 -156t-178.5 -54h-318v730zM181 323v-223h211q65 0 100.5 30.5t35.5 81.5q0 52 -34 81.5t-110 29.5h-203zM181 631v-207h210q66 0 97 30t31 76
q0 48 -33 74.5t-98 26.5h-207z" />
    <glyph glyph-name="C" unicode="C" horiz-adv-x="797" 
d="M428 -10q-81 0 -149.5 29.5t-119 80.5t-78.5 119t-28 146q0 80 29 148.5t80 119t119.5 79t146.5 28.5q52 0 99.5 -13.5t89 -37.5t76 -58t58.5 -75l-95 -59q-34 63 -92 100.5t-136 37.5q-57 0 -105.5 -21t-84.5 -57.5t-56 -86t-20 -105.5t20 -104.5t55.5 -85t84 -57.5
t105.5 -21q85 0 144.5 42t91.5 108l98 -52q-24 -46 -58 -83.5t-76.5 -64.5t-92.5 -42t-106 -15z" />
    <glyph glyph-name="D" unicode="D" horiz-adv-x="722" 
d="M74 730h212q89 0 160 -28t120.5 -77t76 -115.5t26.5 -144.5t-28.5 -145t-79 -115.5t-120 -76.5t-151.5 -28h-216v730zM183 630v-529h96q63 0 114.5 20t88.5 55.5t57 84t20 104.5q0 57 -18.5 106t-54.5 84t-89 55t-122 20h-92z" />
    <glyph glyph-name="E" unicode="E" horiz-adv-x="616" 
d="M74 730h478v-104h-371v-208h371v-104h-371v-209h371v-105h-478v730z" />
    <glyph glyph-name="F" unicode="F" horiz-adv-x="583" 
d="M74 730h453v-104h-344v-208h344v-104h-344v-314h-109v730z" />
    <glyph glyph-name="G" unicode="G" horiz-adv-x="844" 
d="M432 -10q-83 0 -152.5 30t-119.5 81t-78.5 119t-28.5 145q0 78 28.5 146.5t78.5 119t119.5 80t151.5 29.5q103 0 181.5 -42.5t130.5 -114.5l-92 -64q-37 56 -92.5 86.5t-127.5 30.5q-59 0 -108.5 -21.5t-85 -58.5t-55.5 -86.5t-20 -104.5q0 -56 20 -105t56 -86t85.5 -58
t108.5 -21q52 0 94 15t73.5 42t51.5 64t29 81h-262v103h376v-39q0 -74 -24.5 -141.5t-71 -118.5t-114 -81t-152.5 -30z" />
    <glyph glyph-name="H" unicode="H" horiz-adv-x="715" 
d="M533 315h-350v-315h-109v730h109v-311h350v311h108v-730h-108v315z" />
    <glyph glyph-name="I" unicode="I" horiz-adv-x="272" 
d="M81 730h110v-730h-110v730z" />
    <glyph glyph-name="J" unicode="J" horiz-adv-x="500" 
d="M230 -10q-77 0 -131.5 37.5t-75.5 98.5l104 45q11 -35 37 -57.5t64 -22.5q45 0 69 30t24 80v529h108v-522q0 -103 -52.5 -160.5t-146.5 -57.5z" />
    <glyph glyph-name="K" unicode="K" horiz-adv-x="668" 
d="M319 377l-137 -162v-215h-108v730h108v-378l315 378h134l-232 -275l245 -455h-125z" />
    <glyph glyph-name="L" unicode="L" horiz-adv-x="586" 
d="M74 730h109v-624h355v-106h-464v730z" />
    <glyph glyph-name="M" unicode="M" horiz-adv-x="843" 
d="M74 730h108l238 -330l246 330h103v-730h-107v559l-244 -328l-236 321v-552h-108v730z" />
    <glyph glyph-name="N" unicode="N" horiz-adv-x="739" 
d="M74 730h119l366 -554v554h106v-730h-111l-373 564v-564h-107v730z" />
    <glyph glyph-name="O" unicode="O" horiz-adv-x="855" 
d="M427 -10q-78 0 -146 29.5t-118.5 80.5t-80 119t-29.5 146t29.5 146t80 119t118.5 80.5t146 29.5t146.5 -29.5t119 -80.5t80 -119t29.5 -146t-29.5 -146t-80 -119t-119 -80.5t-146.5 -29.5zM427 96q56 0 104.5 21t84.5 58t56.5 85.5t20.5 104.5q0 55 -20.5 104.5t-56.5 86
t-84.5 58t-104.5 21.5t-104.5 -21.5t-84 -58t-56 -86t-20.5 -104.5q0 -56 20.5 -104.5t56 -85.5t84 -58t104.5 -21z" />
    <glyph glyph-name="P" unicode="P" horiz-adv-x="681" 
d="M74 730h284q58 0 107 -20t84.5 -54.5t55 -82t19.5 -101.5t-19.5 -101t-55 -82t-85 -55t-108.5 -20h-173v-214h-109v730zM183 630v-315h166q38 0 69 12t52.5 33t33 50t11.5 62q0 34 -11.5 63t-33 50t-52.5 33t-69 12h-166z" />
    <glyph glyph-name="Q" unicode="Q" horiz-adv-x="855" 
d="M427 -10q-78 0 -146 29.5t-118.5 80.5t-80 119t-29.5 146t29.5 146t80 119t118.5 80.5t146 29.5t146.5 -29.5t119 -80.5t80 -119t29.5 -146q0 -67 -22.5 -127t-63.5 -109l104 -129h-133l-47 59q-46 -33 -100 -51t-113 -18zM427 96q84 0 149 45l-156 198h129l99 -125
q21 32 33 70.5t12 80.5q0 55 -20.5 104.5t-56.5 86t-84.5 58t-104.5 21.5t-104.5 -21.5t-84 -58t-56 -86t-20.5 -104.5q0 -56 20.5 -104.5t56 -85.5t84 -58t104.5 -21z" />
    <glyph glyph-name="R" unicode="R" horiz-adv-x="671" 
d="M74 730h284q60 0 108 -18.5t82.5 -51t53 -77t18.5 -97.5q0 -69 -36.5 -128t-104.5 -88l155 -270h-124l-132 241h-196v-241h-108v730zM182 629v-288h167q42 0 72.5 12.5t50.5 33t29.5 47t9.5 55.5q0 63 -40.5 101.5t-121.5 38.5h-167z" />
    <glyph glyph-name="S" unicode="S" 
d="M337 -10q-114 0 -189.5 41.5t-127.5 112.5l95 75q40 -65 95 -95.5t124 -30.5q74 0 111.5 32t37.5 82q0 33 -16 53.5t-42.5 34t-61 21.5t-71.5 16q-42 9 -84 20.5t-75 33t-53.5 56t-20.5 89.5q0 43 18.5 81t52 66.5t79.5 45t101 16.5q94 0 159.5 -32.5t118.5 -92.5
l-90 -71q-16 22 -34 39.5t-40.5 30.5t-50 20t-63.5 7q-74 0 -106.5 -30.5t-32.5 -78.5q0 -28 15 -45.5t40 -29t57.5 -19t68.5 -14.5q43 -9 86.5 -21.5t78 -36t56.5 -61t22 -97.5q0 -42 -17 -81.5t-50 -69.5t-81 -48.5t-110 -18.5z" />
    <glyph glyph-name="T" unicode="T" horiz-adv-x="618" 
d="M255 630h-207v100h522v-100h-207v-630h-108v630z" />
    <glyph glyph-name="U" unicode="U" horiz-adv-x="707" 
d="M353 -10q-62 0 -114 20t-89.5 56.5t-58 89t-20.5 118.5v456h111v-462q0 -37 12.5 -69t35 -56t54.5 -37.5t70 -13.5t69.5 13.5t54 37.5t35 56t12.5 69v462h111v-456q0 -66 -21 -118.5t-58.5 -89t-89.5 -56.5t-114 -20z" />
    <glyph glyph-name="V" unicode="V" horiz-adv-x="718" 
d="M22 730h115l222 -589l221 589h116l-282 -730h-110z" />
    <glyph glyph-name="W" unicode="W" horiz-adv-x="1046" 
d="M26 730h114l153 -564l180 564h100l177 -565l160 565h110l-215 -730h-106l-177 568l-181 -568h-109z" />
    <glyph glyph-name="X" unicode="X" horiz-adv-x="657" 
d="M328 283l-177 -283h-123l236 371l-225 359h122l168 -267l167 267h122l-226 -356l237 -374h-123z" />
    <glyph glyph-name="Y" unicode="Y" horiz-adv-x="661" 
d="M276 308l-258 422h122l191 -319l192 319h120l-259 -423v-307h-108v308z" />
    <glyph glyph-name="Z" unicode="Z" horiz-adv-x="656" 
d="M53 100l418 529h-403v101h530v-99l-416 -527h419v-104h-548v100z" />
    <glyph glyph-name="bracketleft" unicode="[" horiz-adv-x="380" 
d="M54 730h273v-103h-165v-754h165v-103h-273v960z" />
    <glyph glyph-name="backslash" unicode="\" horiz-adv-x="517" 
d="M29 730h115l346 -730h-115z" />
    <glyph glyph-name="bracketright" unicode="]" horiz-adv-x="380" 
d="M54 -127h164v754h-164v103h273v-960h-273v103z" />
    <glyph glyph-name="asciicircum" unicode="^" horiz-adv-x="505" 
d="M215 710h74l121 -169h-91l-67 96l-65 -96h-92z" />
    <glyph glyph-name="underscore" unicode="_" horiz-adv-x="527" 
d="M54 -10h420v-92h-420v92z" />
    <glyph glyph-name="grave" unicode="`" horiz-adv-x="505" 
d="M128 769h114l116 -166h-82z" />
    <glyph glyph-name="a" unicode="a" horiz-adv-x="607" 
d="M231 -11q-47 0 -82.5 12t-59.5 33.5t-36.5 51t-12.5 63.5q0 84 64.5 131.5t178.5 47.5h160v9q0 54 -34 88t-106 34q-54 0 -93 -23.5t-62 -63.5l-96 56q40 53 102.5 88t149.5 35q58 0 103.5 -15.5t76.5 -44t47 -68.5t16 -89v-334h-104v95q-32 -48 -88 -77t-124 -29z
M254 83q29 0 57 8t53 22.5t45.5 35.5t33.5 48v45h-153q-75 0 -107.5 -22t-32.5 -62q0 -35 25 -55t79 -20z" />
    <glyph glyph-name="b" unicode="b" horiz-adv-x="664" 
d="M355 -11q-56 0 -106 23.5t-81 65.5v-78h-106v790h107v-328q31 42 80.5 65.5t104.5 23.5q54 0 102.5 -20t86 -57t59.5 -88.5t22 -115.5q0 -63 -22.5 -115t-59.5 -89t-86 -57t-101 -20zM340 88q37 0 69 14t56 39t37.5 58.5t13.5 71.5t-13.5 71.5t-37.5 58t-56 38.5t-69 14
q-38 0 -70.5 -14.5t-56.5 -39t-37.5 -58t-13.5 -70.5q0 -38 13.5 -71.5t37.5 -58t56.5 -39t70.5 -14.5z" />
    <glyph glyph-name="c" unicode="c" horiz-adv-x="617" 
d="M325 -11q-60 0 -112 22t-90 60t-59.5 89t-21.5 110q0 60 22 111t60 89t89.5 59.5t110.5 21.5q45 0 84.5 -12t72.5 -34t58.5 -52.5t40.5 -66.5l-97 -42q-21 50 -62.5 78t-96.5 28q-38 0 -70 -14t-55.5 -38.5t-37 -57.5t-13.5 -70t13.5 -70t37.5 -57.5t56.5 -38.5t70.5 -14
q58 0 98.5 31.5t60.5 78.5l98 -41q-32 -75 -98 -122.5t-160 -47.5z" />
    <glyph glyph-name="d" unicode="d" horiz-adv-x="666" 
d="M313 -11q-53 0 -102 20t-86.5 57t-60 89t-22.5 115q0 64 22 115.5t59.5 88.5t87 57t103.5 20t103.5 -23t80.5 -63v325h106v-790h-106v79q-32 -42 -81.5 -66t-103.5 -24zM327 88q38 0 70.5 14.5t56 39t37 58t13.5 71.5q0 37 -13.5 70.5t-37 58t-56 39t-70.5 14.5
t-70.5 -14t-56.5 -38.5t-37.5 -58t-13.5 -71.5t13.5 -71.5t37.5 -58.5t56.5 -39t70.5 -14z" />
    <glyph glyph-name="e" unicode="e" horiz-adv-x="643" 
d="M329 -11q-65 0 -117.5 21.5t-90.5 59t-58.5 88.5t-20.5 110q0 60 21.5 111.5t59.5 89.5t89 60t111 22t110.5 -20.5t87.5 -57.5t58 -87.5t21 -110.5v-45h-454q12 -66 60 -105.5t123 -39.5q57 0 95.5 24t62.5 63l89 -53q-39 -59 -99 -94.5t-148 -35.5zM323 456
q-65 0 -111 -37.5t-62 -96.5h341q-12 64 -56.5 99t-111.5 35z" />
    <glyph glyph-name="f" unicode="f" horiz-adv-x="398" 
d="M26 540h94v31q0 63 10.5 104.5t35 66.5t66 35.5t104.5 10.5h26v-100h-18q-39 0 -62.5 -4t-35.5 -17t-16 -36t-4 -61v-30h136v-97h-136v-443h-106v443h-94v97z" />
    <glyph glyph-name="g" unicode="g" horiz-adv-x="668" 
d="M313 -11q-53 0 -102 20t-86.5 57t-60 89t-22.5 115q0 64 22 115.5t59.5 88.5t87 57t103.5 20t103.5 -23.5t80.5 -65.5v78h108v-497q0 -60 -21.5 -109.5t-59 -85t-88 -55t-108.5 -19.5q-98 0 -161.5 29t-107.5 84l87 71q32 -44 73 -64.5t107 -20.5q39 0 70.5 12t54 34
t35 52.5t12.5 67.5v42q-31 -43 -81 -67.5t-105 -24.5zM327 88q38 0 70.5 14.5t56 39t37 58t13.5 71.5q0 37 -13.5 70.5t-37 58t-56 39t-70.5 14.5t-70.5 -14t-56.5 -38.5t-37.5 -58t-13.5 -71.5t13.5 -71.5t37.5 -58.5t56.5 -39t70.5 -14z" />
    <glyph glyph-name="h" unicode="h" horiz-adv-x="622" 
d="M62 788h107v-320q29 38 72.5 60.5t98.5 22.5q51 0 92.5 -16.5t70 -47t44 -75t15.5 -99.5v-313h-110v305q0 69 -34.5 110t-103.5 41q-30 0 -56.5 -11t-46 -31.5t-30.5 -50t-11 -65.5v-298h-108v788z" />
    <glyph glyph-name="i" unicode="i" horiz-adv-x="233" 
d="M62 540h109v-540h-109v540zM40 702q0 33 21.5 55t54.5 22q34 0 55.5 -22t21.5 -55t-21.5 -55t-55.5 -22t-55 22t-21 55z" />
    <glyph glyph-name="j" unicode="j" horiz-adv-x="233" 
d="M-56 -114q38 0 61 4t36 16.5t17 35t4 60.5v538h109v-539q0 -62 -10.5 -103.5t-35.5 -66.5t-65 -36t-100 -11h-16v102zM40 702q0 33 21.5 55t54.5 22q34 0 55.5 -22t21.5 -55t-21.5 -55t-55.5 -22t-55 22t-21 55z" />
    <glyph glyph-name="k" unicode="k" horiz-adv-x="574" 
d="M266 245l-97 -105v-140h-107v788h107v-524l252 276h132l-209 -227l221 -313h-127z" />
    <glyph glyph-name="l" unicode="l" horiz-adv-x="233" 
d="M62 788h109v-788h-109v788z" />
    <glyph glyph-name="m" unicode="m" horiz-adv-x="947" 
d="M62 540h107v-62q25 34 63 53.5t90 19.5q65 0 107.5 -25t64.5 -70q26 43 71 69t105 26q55 0 96 -16t68 -46t40 -72t13 -94v-323h-111v317q0 63 -29 101t-93 38q-58 0 -92.5 -37t-34.5 -112v-307h-109v324q0 62 -28.5 97t-90.5 35q-60 0 -94.5 -38.5t-34.5 -115.5v-302
h-108v540z" />
    <glyph glyph-name="n" unicode="n" horiz-adv-x="622" 
d="M62 540h106v-75q28 39 71.5 62.5t100.5 23.5q51 0 92.5 -16.5t70 -47t44 -75t15.5 -99.5v-313h-109v305q0 69 -35 110t-103 41q-31 0 -57.5 -11t-46 -31.5t-30.5 -50t-11 -65.5v-298h-108v540z" />
    <glyph glyph-name="o" unicode="o" horiz-adv-x="646" 
d="M323 -11q-59 0 -110 22t-89 60t-60 89t-22 110q0 58 22 109.5t60 89.5t89 60t110 22q58 0 109.5 -22t89.5 -60t60 -89.5t22 -109.5q0 -59 -22 -110t-60 -89t-89.5 -60t-109.5 -22zM323 90q37 0 68.5 14t55 38.5t37 57t13.5 70.5q0 37 -13.5 70t-37 57.5t-55.5 38.5
t-68 14q-37 0 -68.5 -14t-55 -38.5t-36.5 -57.5t-13 -70q0 -38 13 -70.5t36.5 -57t55 -38.5t68.5 -14z" />
    <glyph glyph-name="p" unicode="p" horiz-adv-x="663" 
d="M353 -11q-57 0 -106.5 21t-79.5 62v-288h-105v756h105v-80q31 42 80.5 66.5t105.5 24.5q54 0 102.5 -20t86 -57t59.5 -88.5t22 -115.5q0 -63 -22.5 -115t-60 -89t-86.5 -57t-101 -20zM338 88q37 0 69.5 14t56.5 39t37.5 58.5t13.5 71.5t-13.5 71.5t-37.5 58t-56.5 38.5
t-69.5 14q-38 0 -70.5 -14.5t-56.5 -39t-37.5 -58t-13.5 -70.5q0 -38 13.5 -71.5t37.5 -58t56.5 -39t70.5 -14.5z" />
    <glyph glyph-name="q" unicode="q" horiz-adv-x="665" 
d="M313 -11q-53 0 -102 20t-86.5 57t-60 89t-22.5 115q0 64 22 115.5t59.5 88.5t87 57t103.5 20t103.5 -23.5t80.5 -65.5v78h105v-756h-105v290q-31 -41 -79.5 -63t-105.5 -22zM327 88q38 0 70.5 14.5t56 39t37 58t13.5 71.5q0 37 -13.5 70.5t-37 58t-56 39t-70.5 14.5
t-70.5 -14t-56.5 -38.5t-37.5 -58t-13.5 -71.5t13.5 -71.5t37.5 -58.5t56.5 -39t70.5 -14z" />
    <glyph glyph-name="r" unicode="r" horiz-adv-x="428" 
d="M61 540h106v-94q17 51 56 76.5t91 25.5q28 0 51.5 -5.5t39.5 -15.5l-42 -104q-24 16 -68 16q-58 0 -92 -31t-34 -104v-304h-108v540z" />
    <glyph glyph-name="s" unicode="s" horiz-adv-x="513" 
d="M257 -11q-86 0 -144.5 30t-93.5 89l97 55q25 -38 60 -59t86 -21q53 0 80 22.5t27 53.5q0 18 -11.5 29.5t-30.5 19t-43.5 13t-51.5 11.5q-34 7 -67.5 17.5t-60.5 28t-43.5 45t-16.5 68.5q0 31 14.5 60.5t41.5 52t65.5 35.5t86.5 13q76 0 129 -26.5t88 -74.5l-93 -53
q-20 30 -50 47t-74 17q-50 0 -74 -20t-24 -49q0 -32 34.5 -45t96.5 -26q34 -7 68 -17.5t61.5 -28.5t45 -46t17.5 -70q0 -30 -13.5 -60.5t-40.5 -55t-68.5 -40t-97.5 -15.5z" />
    <glyph glyph-name="t" unicode="t" horiz-adv-x="424" 
d="M22 540h107v117l106 69v-186h151v-97h-151v-266q0 -45 19.5 -65t51.5 -20q31 0 55 21l51 -90q-23 -16 -51.5 -24.5t-62.5 -8.5q-81 0 -125 43t-44 143v267h-107v97z" />
    <glyph glyph-name="u" unicode="u" horiz-adv-x="621" 
d="M284 -11q-108 0 -165.5 63.5t-57.5 175.5v312h110v-305q0 -69 34 -109.5t103 -40.5q30 0 56.5 11t45.5 31.5t30 49.5t11 65v298h108v-540h-106v74q-28 -39 -71.5 -62t-97.5 -23z" />
    <glyph glyph-name="v" unicode="v" horiz-adv-x="579" 
d="M19 540h114l155 -406l161 406h112l-224 -540h-106z" />
    <glyph glyph-name="w" unicode="w" horiz-adv-x="923" 
d="M24 540h111l126 -393l147 393h105l145 -393l130 393h111l-188 -540h-103l-149 396l-150 -396h-106z" />
    <glyph glyph-name="x" unicode="x" horiz-adv-x="584" 
d="M224 274l-199 266h130l136 -184l137 184h128l-199 -265l211 -275h-133l-145 192l-142 -192h-132z" />
    <glyph glyph-name="y" unicode="y" horiz-adv-x="586" 
d="M112 -200q-38 0 -74.5 11.5t-62.5 31.5l64 91q14 -14 31.5 -22.5t40.5 -8.5q21 0 37.5 5t30.5 16.5t26.5 30.5t25.5 48l10 23l-222 514h116l162 -387l155 387h115l-241 -567q-20 -48 -41.5 -81t-47 -53.5t-56 -29.5t-69.5 -9z" />
    <glyph glyph-name="z" unicode="z" horiz-adv-x="541" 
d="M41 99l327 344h-318v97h445v-99l-327 -344h332v-97h-459v99z" />
    <glyph glyph-name="braceleft" unicode="{" horiz-adv-x="407" 
d="M353 -230q-63 0 -105 11t-67.5 36.5t-36.5 67t-11 102.5v108q0 29 -3 49t-12.5 32t-28.5 17t-50 5v100q31 0 50 5t28.5 17t12.5 32t3 49v112q0 61 11 102.5t36.5 67t67.5 36.5t105 11h11v-99q-40 0 -64 -5t-37.5 -18t-18 -36t-4.5 -60v-112q0 -60 -16 -97t-56 -55
q40 -18 56 -55t16 -97v-108q0 -37 4.5 -60t18 -36t37.5 -18t64 -5v-99h-11z" />
    <glyph glyph-name="bar" unicode="|" horiz-adv-x="225" 
d="M59 730h108v-960h-108v960z" />
    <glyph glyph-name="braceright" unicode="}" horiz-adv-x="407" 
d="M44 -130q39 0 63.5 4.5t38 17.5t18 36t4.5 60v108q0 60 15.5 97t55.5 55q-40 18 -55.5 55t-15.5 97v112q0 37 -4.5 60t-18 36t-38 17.5t-63.5 4.5v100h11q63 0 105 -11t67.5 -36.5t36.5 -67t11 -102.5v-112q0 -29 3 -49t12.5 -32t28 -17t50.5 -5v-100q-32 0 -50.5 -5
t-28 -17t-12.5 -32t-3 -49v-108q0 -61 -11 -102.5t-36.5 -67t-67.5 -36.5t-105 -11h-11v100z" />
    <glyph glyph-name="asciitilde" unicode="~" horiz-adv-x="492" 
d="M76 568q1 57 27.5 91.5t73.5 34.5q25 0 43 -8t34 -17q14 -9 27.5 -17t27.5 -8q31 0 32 45h70q0 -57 -25.5 -91.5t-75.5 -34.5q-29 0 -49.5 10.5t-37.5 20.5q-12 8 -23 13t-23 5q-29 0 -30 -44h-71v0z" />
    <glyph glyph-name="nonbreakingspace" unicode="&#xa0;" horiz-adv-x="240" 
 />
    <glyph glyph-name="exclamdown" unicode="&#xa1;" horiz-adv-x="244" 
d="M68 -113q0 50 2 103t5.5 104.5t8 99t9.5 88.5h59q5 -41 9.5 -88.5t7.5 -99t4.5 -104.5t1.5 -103v-117h-107v117zM122 363q-34 0 -55.5 22t-21.5 55t21.5 55t55.5 22t55 -22t21 -55t-21.5 -55t-54.5 -22z" />
    <glyph glyph-name="cent" unicode="&#xa2;" horiz-adv-x="583" 
d="M246 -4q-45 9 -82 32.5t-63.5 57t-41.5 75.5t-15 89q0 48 15 90t42 75t64 56t81 32v127h109v-125q66 -12 114.5 -51.5t72.5 -97.5l-96 -41q-19 44 -55.5 69.5t-86.5 25.5q-33 0 -61 -12.5t-49 -34t-33 -51t-12 -62.5q0 -34 12 -63t33 -50.5t49.5 -33.5t61.5 -12
q51 0 87.5 27.5t53.5 69.5l97 -41q-26 -59 -74 -99.5t-114 -52.5v-125h-109v126z" />
    <glyph glyph-name="sterling" unicode="&#xa3;" horiz-adv-x="713" 
d="M79 407h102q-12 28 -19 59t-7 68q0 46 16.5 84t46 65t70.5 42t90 15q84 0 139 -35t82 -91l-97 -47q-17 36 -47 57.5t-76 21.5q-51 0 -82.5 -31t-31.5 -79q0 -35 10 -67t25 -62h185v-87h-141q13 -29 22 -57.5t9 -60.5q0 -43 -12 -80q25 -19 49.5 -32t51.5 -13
q45 0 64.5 23.5t19.5 80.5v34h111v-48q0 -84 -40.5 -130.5t-132.5 -46.5q-46 0 -84 19.5t-73 45.5q-24 -30 -58.5 -48t-80.5 -18q-76 0 -110.5 31.5t-34.5 82.5q0 49 32.5 82t92.5 33q32 0 60 -10.5t53 -26.5v1q0 35 -17 68t-39 70h-148v87zM189 62q23 0 41.5 11.5
t31.5 31.5q-21 15 -42 25t-41 10q-23 0 -34 -10.5t-11 -27.5t14.5 -28.5t40.5 -11.5z" />
    <glyph glyph-name="currency" unicode="&#xa4;" horiz-adv-x="793" 
d="M401 102q-41 0 -77 11.5t-67 31.5l-110 -114l-73 72l111 114q-20 31 -31.5 67.5t-11.5 77.5t11.5 77.5t31.5 67.5l-113 120l74 71l113 -118q30 20 66 31t76 11q39 0 74.5 -10.5t65.5 -30.5l107 110l73 -72l-106 -109q21 -32 33 -69t12 -79t-12 -80t-35 -70l107 -110
l-73 -71l-108 110q-62 -39 -138 -39zM401 202q32 0 60 12.5t49 34.5t33 51t12 62t-12 62t-33 51t-49 34.5t-60 12.5q-33 0 -61 -12.5t-48.5 -34.5t-32 -51t-11.5 -62t11.5 -62t32 -51t48.5 -34.5t61 -12.5z" />
    <glyph glyph-name="yen" unicode="&#xa5;" horiz-adv-x="664" 
d="M117 383h161v2l-237 345h122l170 -255l170 255h121l-238 -347h161v-88h-161v-93h161v-88h-161v-114h-108v114h-161v88h161v93h-161v88z" />
    <glyph glyph-name="brokenbar" unicode="&#xa6;" horiz-adv-x="246" 
d="M59 730h108v-420h-108v420zM59 190h108v-420h-108v420z" />
    <glyph glyph-name="section" unicode="&#xa7;" horiz-adv-x="609" 
d="M302 -10q-51 0 -92.5 13t-72 35t-49.5 49.5t-25 56.5l108 28q7 -39 42.5 -66t95.5 -27q45 0 75.5 16t30.5 48q0 17 -11.5 28t-32.5 19.5t-50 15t-64 14.5q-49 12 -88 25t-66.5 31t-42 41.5t-14.5 56.5q0 41 25 73t65 47q-43 37 -43 94q0 33 14 61.5t40.5 48.5t64.5 31.5
t86 10.5q48 0 87 -12t67 -31.5t45.5 -45.5t23.5 -53l-103 -27q-6 37 -35.5 61t-86.5 24q-45 0 -73 -16t-28 -48q0 -17 11 -28.5t31.5 -20.5t49 -17t63.5 -16q49 -12 88 -25t66.5 -31t42 -41.5t14.5 -55.5q0 -40 -23.5 -71t-61.5 -46q22 -17 33 -39.5t11 -52.5q0 -35 -16 -64
t-44.5 -50t-69 -33t-88.5 -11zM316 302q21 -5 41 -10t37 -11q31 9 46 26t15 37q0 31 -44 49t-120 35q-21 5 -40 10t-36 12q-30 -6 -46.5 -23.5t-16.5 -39.5q0 -33 44 -50.5t120 -34.5z" />
    <glyph glyph-name="dieresis" unicode="&#xa8;" horiz-adv-x="508" 
d="M80 667q0 30 19 49t49 19t49 -19t19 -49t-19 -49t-49 -19q-31 0 -49.5 19t-18.5 49zM287 667q0 30 19.5 49t48.5 19q30 0 49.5 -19t19.5 -49t-19.5 -49t-49.5 -19t-49 19t-19 49z" />
    <glyph glyph-name="copyright" unicode="&#xa9;" horiz-adv-x="837" 
d="M419 -10q-78 0 -146 29.5t-118.5 80.5t-80 119t-29.5 146t29.5 146t80 119t118.5 80.5t146 29.5t146 -29.5t118.5 -80.5t80 -119t29.5 -146t-29.5 -146t-80 -119t-118.5 -80.5t-146 -29.5zM419 78q60 0 111.5 22.5t89.5 61.5t60 91.5t22 111.5t-22 111.5t-60 91.5
t-89.5 62t-111.5 23t-112 -23t-89.5 -62t-59 -91.5t-21.5 -111.5t21.5 -111.5t59 -91.5t89.5 -61.5t112 -22.5zM424 165q-44 0 -81 15.5t-64 42.5t-42 63.5t-15 78.5t15 78.5t42 63.5t64 43t81 16q60 0 106.5 -30t69.5 -75q-20 -9 -36 -17t-27 -14q-13 -7 -23 -13
q-9 23 -32.5 40.5t-58.5 17.5q-23 0 -42.5 -8.5t-34.5 -23.5t-23.5 -35t-8.5 -43t8.5 -43t23.5 -35t34.5 -23.5t42.5 -8.5q35 0 59.5 18t33.5 43l88 -37q-23 -49 -70.5 -81.5t-109.5 -32.5z" />
    <glyph glyph-name="ordfeminine" unicode="&#xaa;" horiz-adv-x="392" 
d="M147 435q-48 0 -75 24.5t-27 61.5q0 45 34.5 71.5t95.5 26.5h87v2q0 23 -14.5 35t-50.5 12q-26 0 -44.5 -10t-32.5 -31l-67 42q21 29 58 48t87 19q65 0 102.5 -31.5t37.5 -84.5v-179h-76v49q-16 -26 -46.5 -40.5t-68.5 -14.5zM165 498q27 0 54.5 12t41.5 39v11h-82
q-29 0 -42 -8t-13 -25q0 -15 12 -22t29 -7z" />
    <glyph glyph-name="guillemotleft" unicode="&#xab;" horiz-adv-x="491" 
d="M65 222v62l173 114v-75l-107 -70l107 -71v-74zM253 222v62l173 114v-75l-107 -70l107 -71v-74z" />
    <glyph glyph-name="logicalnot" unicode="&#xac;" horiz-adv-x="623" 
d="M470 418h-432v104h540v-344h-108v240z" />
    <glyph glyph-name="uni00AD" unicode="&#xad;" horiz-adv-x="477" 
d="M54 299h370v-93h-370v93z" />
    <glyph glyph-name="registered" unicode="&#xae;" horiz-adv-x="837" 
d="M419 -125q-78 0 -146 29.5t-118.5 80.5t-80 119t-29.5 146t29.5 146t80 119t118.5 80.5t146 29.5t146 -29.5t118.5 -80.5t80 -119t29.5 -146t-29.5 -146t-80 -119t-118.5 -80.5t-146 -29.5zM419 -38q60 0 111.5 23t89.5 62t60 91.5t22 111.5t-22 111.5t-60 91.5t-89.5 62
t-111.5 23t-112 -23t-89.5 -62t-59 -91.5t-21.5 -111.5t21.5 -111.5t59 -91.5t89.5 -62t112 -23zM272 442h160q37 0 67 -10.5t50 -28.5t31 -41t11 -48q0 -42 -19.5 -74t-60.5 -46l78 -126h-106l-101 181h43q29 0 49 15.5t20 44.5q0 30 -20.5 42t-49.5 12h-58v-295h-94v374z
" />
    <glyph glyph-name="macron" unicode="&#xaf;" horiz-adv-x="505" 
d="M121 695h264v-77h-264v77z" />
    <glyph glyph-name="degree" unicode="&#xb0;" horiz-adv-x="435" 
d="M218 433q-32 0 -60 12t-49 33t-33 49t-12 60t12 60t33 48.5t49 32.5t60 12t60 -12t48.5 -32.5t32.5 -48.5t12 -60t-12 -60t-32.5 -49t-48.5 -33t-60 -12zM218 523q26 0 44.5 18.5t18.5 44.5t-18.5 44.5t-44.5 18.5t-44.5 -18.5t-18.5 -44.5t18.5 -44.5t44.5 -18.5z" />
    <glyph glyph-name="plusminus" unicode="&#xb1;" horiz-adv-x="477" 
d="M54 516h140v139h90v-139h140v-92h-140v-139h-90v139h-140v92zM54 214h370v-92h-370v92z" />
    <glyph glyph-name="twosuperior" unicode="&#xb2;" horiz-adv-x="354" 
d="M34 383q0 29 10 52t26.5 41t37 32.5t40.5 26.5q32 20 55.5 37.5t23.5 40.5q0 18 -13 30.5t-39 12.5t-43 -17t-27 -40l-79 41q20 45 58 70.5t92 25.5q33 0 60 -9.5t46 -26t29.5 -39t10.5 -48.5q0 -28 -10.5 -49.5t-26.5 -38.5t-36.5 -30.5t-39.5 -25.5q-30 -18 -53 -35
t-25 -39h190v-87h-287v75z" />
    <glyph glyph-name="threesuperior" unicode="&#xb3;" horiz-adv-x="355" 
d="M169 302q-98 0 -153 64l73 61q16 -20 34.5 -30.5t44.5 -10.5q25 0 44 13t19 36t-19.5 35t-49.5 12h-43v83h42q30 0 46 13.5t16 33.5t-15.5 32t-46.5 12q-23 0 -38.5 -10.5t-28.5 -28.5l-75 52q24 29 60.5 48t83.5 19q72 0 113 -32.5t41 -88.5q0 -28 -12.5 -50t-35.5 -37
q27 -15 42.5 -38.5t15.5 -56.5q0 -28 -11 -52t-31.5 -41.5t-50 -27.5t-65.5 -10z" />
    <glyph glyph-name="acute" unicode="&#xb4;" horiz-adv-x="505" 
d="M244 769h114l-148 -166h-82z" />
    <glyph glyph-name="mu" unicode="&#xb5;" horiz-adv-x="571" 
d="M54 500h109v-266q0 -71 31.5 -110.5t88.5 -39.5q27 0 50 10t40.5 28t27 44t9.5 59v275h107v-500h-106v61q-24 -32 -61 -51.5t-84 -19.5q-32 0 -58 9.5t-47 24.5v-254h-107v730z" />
    <glyph glyph-name="mu" unicode="&#x3bc;" horiz-adv-x="571" 
d="M54 500h109v-266q0 -71 31.5 -110.5t88.5 -39.5q27 0 50 10t40.5 28t27 44t9.5 59v275h107v-500h-106v61q-24 -32 -61 -51.5t-84 -19.5q-32 0 -58 9.5t-47 24.5v-254h-107v730z" />
    <glyph glyph-name="paragraph" unicode="&#xb6;" horiz-adv-x="652" 
d="M347 302h-91q-47 0 -86.5 16.5t-68.5 45.5t-45.5 68t-16.5 84t16.5 84t45.5 68t68.5 45.5t85.5 16.5h339v-730h-94v630h-60v-630h-93v302z" />
    <glyph glyph-name="periodcentered" unicode="&#xb7;" horiz-adv-x="230" 
d="M43 252q0 32 20 52t52 20t52 -20t20 -52t-20 -52t-52 -20t-52 20t-20 52z" />
    <glyph glyph-name="cedilla" unicode="&#xb8;" horiz-adv-x="505" 
d="M236 -237q-43 0 -79.5 15.5t-64.5 41.5l69 42q18 -14 35.5 -24t45.5 -10q25 0 43 10t18 25q0 32 -64 32h-46v125h75v-73q54 2 85.5 -21.5t31.5 -58.5q0 -23 -12 -42t-32 -33t-47 -21.5t-58 -7.5z" />
    <glyph glyph-name="onesuperior" unicode="&#xb9;" horiz-adv-x="243" 
d="M102 308v292q-8 -24 -30 -37.5t-48 -13.5h-6v91h3q45 0 63.5 24.5t18.5 65.5h89v-422h-90z" />
    <glyph glyph-name="ordmasculine" unicode="&#xba;" horiz-adv-x="377" 
d="M189 435q-31 0 -58.5 12t-47.5 32t-32 47.5t-12 58.5t12 59t32 48t47.5 32t58.5 12t58 -12t47.5 -32t32 -48t11.5 -59t-11.5 -58.5t-32 -47.5t-47.5 -32t-58 -12zM189 511q31 0 51.5 22t20.5 52q0 32 -20.5 54t-51.5 22t-52 -22t-21 -54q0 -30 21 -52t52 -22z" />
    <glyph glyph-name="guillemotright" unicode="&#xbb;" horiz-adv-x="491" 
d="M253 183l108 70l-108 71v75l173 -115v-61l-173 -115v75zM65 183l108 70l-108 71v75l173 -115v-61l-173 -115v75z" />
    <glyph glyph-name="onequarter" unicode="&#xbc;" horiz-adv-x="838" 
d="M626 90h-176v83l174 249h90v-251h61v-81h-61v-90h-88v90zM626 171v113l-79 -113h79zM596 730h125l-527 -730h-125zM142 308v292q-8 -24 -30 -37.5t-48 -13.5h-6v91h3q45 0 63.5 24.5t18.5 65.5h89v-422h-90z" />
    <glyph glyph-name="onehalf" unicode="&#xbd;" horiz-adv-x="873" 
d="M523 75q0 29 10 52t26.5 41t37 32.5t40.5 26.5q32 20 55.5 37.5t23.5 40.5q0 18 -13 30.5t-39 12.5t-43 -17t-27 -40l-79 41q20 45 58 70.5t92 25.5q33 0 60 -9.5t46 -26t29.5 -39t10.5 -48.5q0 -28 -10.5 -49.5t-26.5 -38.5t-36.5 -30.5t-39.5 -25.5q-30 -18 -53 -35
t-25 -39h190v-87h-287v75zM596 730h125l-527 -730h-125zM142 308v292q-8 -24 -30 -37.5t-48 -13.5h-6v91h3q45 0 63.5 24.5t18.5 65.5h89v-422h-90z" />
    <glyph glyph-name="threequarters" unicode="&#xbe;" horiz-adv-x="931" 
d="M199 302q-98 0 -153 64l73 61q16 -20 34.5 -30.5t44.5 -10.5q25 0 44 13t19 36t-19.5 35t-49.5 12h-43v83h42q30 0 46 13.5t16 33.5t-15.5 32t-46.5 12q-23 0 -38.5 -10.5t-28.5 -28.5l-75 52q24 29 60.5 48t83.5 19q72 0 113 -32.5t41 -88.5q0 -28 -12.5 -50t-35.5 -37
q27 -15 42.5 -38.5t15.5 -56.5q0 -28 -11 -52t-31.5 -41.5t-50 -27.5t-65.5 -10zM719 90h-176v83l174 249h90v-251h61v-81h-61v-90h-88v90zM719 171v113l-79 -113h79zM689 730h125l-527 -730h-125z" />
    <glyph glyph-name="questiondown" unicode="&#xbf;" horiz-adv-x="551" 
d="M277 -240q-49 0 -90 14t-71 40t-46.5 62.5t-16.5 80.5q0 47 14 78t35 52.5t46 38t46 36t35 46t14 68.5v10h97v-10q0 -56 -13 -93t-33 -62t-42.5 -42t-42.5 -33.5t-33 -37t-13 -52.5q0 -45 32.5 -73.5t83.5 -28.5q49 0 78.5 25.5t45.5 63.5l99 -37q-23 -63 -79.5 -104.5
t-145.5 -41.5zM291 363q-34 0 -55 22t-21 55t21.5 55t54.5 22q34 0 55.5 -22t21.5 -55t-21.5 -55t-55.5 -22z" />
    <glyph glyph-name="Agrave" unicode="&#xc0;" horiz-adv-x="718" 
d="M304 730h110l282 -730h-113l-59 156h-330l-58 -156h-114zM233 260h252l-126 334zM196 959h114l116 -166h-82z" />
    <glyph glyph-name="Aacute" unicode="&#xc1;" horiz-adv-x="718" 
d="M304 730h110l282 -730h-113l-59 156h-330l-58 -156h-114zM233 260h252l-126 334zM433 959h114l-148 -166h-82z" />
    <glyph glyph-name="Acircumflex" unicode="&#xc2;" horiz-adv-x="718" 
d="M304 730h110l282 -730h-113l-59 156h-330l-58 -156h-114zM233 260h252l-126 334zM318 962h75l119 -166h-91l-66 94l-64 -94h-92z" />
    <glyph glyph-name="Atilde" unicode="&#xc3;" horiz-adv-x="718" 
d="M304 730h110l282 -730h-113l-59 156h-330l-58 -156h-114zM233 260h252l-126 334zM189 796q0 58 27.5 93t74.5 35q25 0 43.5 -8t35.5 -18q15 -10 29 -18t28 -8q33 0 33 48h71q0 -59 -26 -93.5t-77 -34.5q-29 0 -50 10.5t-39 21.5q-13 8 -23.5 13.5t-24.5 5.5
q-31 0 -31 -47h-71z" />
    <glyph glyph-name="Adieresis" unicode="&#xc4;" horiz-adv-x="718" 
d="M304 730h110l282 -730h-113l-59 156h-330l-58 -156h-114zM233 260h252l-126 334zM182 857q0 30 19 49t49 19t49 -19t19 -49t-19 -49t-49 -19q-31 0 -49.5 19t-18.5 49zM389 857q0 30 19.5 49t48.5 19q30 0 49.5 -19t19.5 -49t-19.5 -49t-49.5 -19t-49 19t-19 49z" />
    <glyph glyph-name="Aring" unicode="&#xc5;" horiz-adv-x="718" 
d="M291 696q-18 15 -28.5 36.5t-10.5 46.5q0 23 8.5 42.5t23 34t33.5 23t41 8.5q23 0 43 -8.5t34.5 -23t23 -34t8.5 -42.5q0 -26 -11 -47.5t-29 -35.5l269 -696h-113l-59 156h-330l-58 -156h-114zM233 260h252l-126 334zM310 777q0 -20 12.5 -32.5t31.5 -14.5h8
q20 2 33.5 15.5t13.5 33.5t-15 35t-36 15q-20 0 -34 -16t-14 -36z" />
    <glyph glyph-name="AE" unicode="&#xc6;" horiz-adv-x="993" 
d="M362 730h567v-103h-428l51 -209h377v-103h-352l51 -211h301v-104h-389l-37 154h-292l-71 -154h-117zM257 254h222l-75 318z" />
    <glyph glyph-name="Ccedilla" unicode="&#xc7;" horiz-adv-x="797" 
d="M428 -242q-43 0 -79.5 15.5t-64.5 41.5l69 42q18 -14 35.5 -24t45.5 -10q25 0 43 10t18 25q0 32 -64 32h-46v103q-73 7 -134 39t-105 82t-68.5 114.5t-24.5 136.5q0 80 29 148.5t80 119t119.5 79t146.5 28.5q52 0 99.5 -13.5t89 -37.5t76 -58t58.5 -75l-95 -59
q-34 63 -92 100.5t-136 37.5q-57 0 -105.5 -21t-84.5 -57.5t-56 -86t-20 -105.5t20 -104.5t55.5 -85t84 -57.5t105.5 -21q85 0 144.5 42t91.5 108l98 -52q-45 -85 -122.5 -140t-178.5 -63v-50q54 2 85.5 -21.5t31.5 -58.5q0 -23 -12 -42t-32 -33t-47 -21.5t-58 -7.5z" />
    <glyph glyph-name="Egrave" unicode="&#xc8;" horiz-adv-x="616" 
d="M74 730h478v-104h-371v-208h371v-104h-371v-209h371v-105h-478v730zM155 959h114l116 -166h-82z" />
    <glyph glyph-name="Eacute" unicode="&#xc9;" horiz-adv-x="616" 
d="M74 730h478v-104h-371v-208h371v-104h-371v-209h371v-105h-478v730zM372 959h114l-148 -166h-82z" />
    <glyph glyph-name="Ecircumflex" unicode="&#xca;" horiz-adv-x="616" 
d="M74 730h478v-104h-371v-208h371v-104h-371v-209h371v-105h-478v730zM277 962h75l119 -166h-91l-66 94l-64 -94h-92z" />
    <glyph glyph-name="Edieresis" unicode="&#xcb;" horiz-adv-x="616" 
d="M74 730h478v-104h-371v-208h371v-104h-371v-209h371v-105h-478v730zM141 857q0 30 19 49t49 19t49 -19t19 -49t-19 -49t-49 -19q-31 0 -49.5 19t-18.5 49zM348 857q0 30 19.5 49t48.5 19q30 0 49.5 -19t19.5 -49t-19.5 -49t-49.5 -19t-49 19t-19 49z" />
    <glyph glyph-name="Igrave" unicode="&#xcc;" horiz-adv-x="272" 
d="M81 730h110v-730h-110v730zM-26 959h114l116 -166h-82z" />
    <glyph glyph-name="Iacute" unicode="&#xcd;" horiz-adv-x="272" 
d="M81 730h110v-730h-110v730zM191 959h114l-148 -166h-82z" />
    <glyph glyph-name="Icircumflex" unicode="&#xce;" horiz-adv-x="272" 
d="M81 730h110v-730h-110v730zM96 962h75l119 -166h-91l-66 94l-64 -94h-92z" />
    <glyph glyph-name="Idieresis" unicode="&#xcf;" horiz-adv-x="272" 
d="M81 730h110v-730h-110v730zM-40 857q0 30 19 49t49 19t49 -19t19 -49t-19 -49t-49 -19q-31 0 -49.5 19t-18.5 49zM167 857q0 30 19.5 49t48.5 19q30 0 49.5 -19t19.5 -49t-19.5 -49t-49.5 -19t-49 19t-19 49z" />
    <glyph glyph-name="Eth" unicode="&#xd0;" horiz-adv-x="744" 
d="M15 417h81v313h212q89 0 160 -28t120.5 -77t76 -115.5t26.5 -144.5t-28.5 -145t-79 -115.5t-120 -76.5t-151.5 -28h-216v330h-81v87zM205 330v-229h96q63 0 114.5 20t88.5 55.5t57 84t20 104.5q0 57 -18.5 106t-54.5 84t-89 55t-122 20h-92v-213h179v-87h-179z" />
    <glyph glyph-name="Ntilde" unicode="&#xd1;" horiz-adv-x="739" 
d="M74 730h119l366 -554v554h106v-730h-111l-373 564v-564h-107v730zM434 948h114l-148 -166h-82z" />
    <glyph glyph-name="Ograve" unicode="&#xd2;" horiz-adv-x="855" 
d="M427 -10q-78 0 -146 29.5t-118.5 80.5t-80 119t-29.5 146t29.5 146t80 119t118.5 80.5t146 29.5t146.5 -29.5t119 -80.5t80 -119t29.5 -146t-29.5 -146t-80 -119t-119 -80.5t-146.5 -29.5zM427 96q56 0 104.5 21t84.5 58t56.5 85.5t20.5 104.5q0 55 -20.5 104.5t-56.5 86
t-84.5 58t-104.5 21.5t-104.5 -21.5t-84 -58t-56 -86t-20.5 -104.5q0 -56 20.5 -104.5t56 -85.5t84 -58t104.5 -21zM265 964h114l116 -166h-82z" />
    <glyph glyph-name="Oacute" unicode="&#xd3;" horiz-adv-x="855" 
d="M427 -10q-78 0 -146 29.5t-118.5 80.5t-80 119t-29.5 146t29.5 146t80 119t118.5 80.5t146 29.5t146.5 -29.5t119 -80.5t80 -119t29.5 -146t-29.5 -146t-80 -119t-119 -80.5t-146.5 -29.5zM427 96q56 0 104.5 21t84.5 58t56.5 85.5t20.5 104.5q0 55 -20.5 104.5t-56.5 86
t-84.5 58t-104.5 21.5t-104.5 -21.5t-84 -58t-56 -86t-20.5 -104.5q0 -56 20.5 -104.5t56 -85.5t84 -58t104.5 -21zM258 801q0 58 27.5 93t74.5 35q25 0 43.5 -8t35.5 -18q15 -10 29 -18t28 -8q33 0 33 48h71q0 -59 -26 -93.5t-77 -34.5q-29 0 -50 10.5t-39 21.5
q-13 8 -23.5 13.5t-24.5 5.5q-31 0 -31 -47h-71z" />
    <glyph glyph-name="Ocircumflex" unicode="&#xd4;" horiz-adv-x="855" 
d="M427 -10q-78 0 -146 29.5t-118.5 80.5t-80 119t-29.5 146t29.5 146t80 119t118.5 80.5t146 29.5t146.5 -29.5t119 -80.5t80 -119t29.5 -146t-29.5 -146t-80 -119t-119 -80.5t-146.5 -29.5zM427 96q56 0 104.5 21t84.5 58t56.5 85.5t20.5 104.5q0 55 -20.5 104.5t-56.5 86
t-84.5 58t-104.5 21.5t-104.5 -21.5t-84 -58t-56 -86t-20.5 -104.5q0 -56 20.5 -104.5t56 -85.5t84 -58t104.5 -21zM387 967h75l119 -166h-91l-66 94l-64 -94h-92z" />
    <glyph glyph-name="Otilde" unicode="&#xd5;" horiz-adv-x="855" 
d="M427 -10q-78 0 -146 29.5t-118.5 80.5t-80 119t-29.5 146t29.5 146t80 119t118.5 80.5t146 29.5t146.5 -29.5t119 -80.5t80 -119t29.5 -146t-29.5 -146t-80 -119t-119 -80.5t-146.5 -29.5zM427 96q56 0 104.5 21t84.5 58t56.5 85.5t20.5 104.5q0 55 -20.5 104.5t-56.5 86
t-84.5 58t-104.5 21.5t-104.5 -21.5t-84 -58t-56 -86t-20.5 -104.5q0 -56 20.5 -104.5t56 -85.5t84 -58t104.5 -21zM258 801q0 58 27.5 93t74.5 35q25 0 43.5 -8t35.5 -18q15 -10 29 -18t28 -8q33 0 33 48h71q0 -59 -26 -93.5t-77 -34.5q-29 0 -50 10.5t-39 21.5
q-13 8 -23.5 13.5t-24.5 5.5q-31 0 -31 -47h-71z" />
    <glyph glyph-name="Odieresis" unicode="&#xd6;" horiz-adv-x="855" 
d="M427 -10q-78 0 -146 29.5t-118.5 80.5t-80 119t-29.5 146t29.5 146t80 119t118.5 80.5t146 29.5t146.5 -29.5t119 -80.5t80 -119t29.5 -146t-29.5 -146t-80 -119t-119 -80.5t-146.5 -29.5zM427 96q56 0 104.5 21t84.5 58t56.5 85.5t20.5 104.5q0 55 -20.5 104.5t-56.5 86
t-84.5 58t-104.5 21.5t-104.5 -21.5t-84 -58t-56 -86t-20.5 -104.5q0 -56 20.5 -104.5t56 -85.5t84 -58t104.5 -21zM251 862q0 30 19 49t49 19t49 -19t19 -49t-19 -49t-49 -19q-31 0 -49.5 19t-18.5 49zM458 862q0 30 19.5 49t48.5 19q30 0 49.5 -19t19.5 -49t-19.5 -49
t-49.5 -19t-49 19t-19 49z" />
    <glyph glyph-name="multiply" unicode="&#xd7;" horiz-adv-x="477" 
d="M62 251l113 113l-113 114l63 63l113 -114l114 114l64 -64l-114 -114l113 -112l-63 -63l-113 112l-113 -113z" />
    <glyph glyph-name="Oslash" unicode="&#xd8;" horiz-adv-x="855" 
d="M427 -10q-58 0 -110.5 16.5t-97.5 45.5l-82 -103l-54 41l84 105q-54 51 -84 120.5t-30 149.5q0 78 29.5 146t80 119t118.5 80.5t146 29.5q57 0 108.5 -16t95.5 -45l78 98l55 -42l-79 -99q54 -51 85.5 -120.5t31.5 -150.5q0 -78 -29.5 -146t-80 -119t-119 -80.5
t-146.5 -29.5zM427 96q56 0 104.5 21t84.5 58t56.5 85.5t20.5 104.5q0 54 -19.5 102.5t-54.5 85.5l-333 -417q31 -19 66.5 -29.5t74.5 -10.5zM162 365q0 -54 19 -101.5t53 -83.5l331 416q-62 39 -138 39q-56 0 -104.5 -21.5t-84 -58t-56 -86t-20.5 -104.5z" />
    <glyph glyph-name="Ugrave" unicode="&#xd9;" horiz-adv-x="707" 
d="M353 -10q-62 0 -114 20t-89.5 56.5t-58 89t-20.5 118.5v456h111v-462q0 -37 12.5 -69t35 -56t54.5 -37.5t70 -13.5t69.5 13.5t54 37.5t35 56t12.5 69v462h111v-456q0 -66 -21 -118.5t-58.5 -89t-89.5 -56.5t-114 -20zM190 948h114l116 -166h-82z" />
    <glyph glyph-name="Uacute" unicode="&#xda;" horiz-adv-x="707" 
d="M353 -10q-62 0 -114 20t-89.5 56.5t-58 89t-20.5 118.5v456h111v-462q0 -37 12.5 -69t35 -56t54.5 -37.5t70 -13.5t69.5 13.5t54 37.5t35 56t12.5 69v462h111v-456q0 -66 -21 -118.5t-58.5 -89t-89.5 -56.5t-114 -20zM407 948h114l-148 -166h-82z" />
    <glyph glyph-name="Ucircumflex" unicode="&#xdb;" horiz-adv-x="707" 
d="M353 -10q-62 0 -114 20t-89.5 56.5t-58 89t-20.5 118.5v456h111v-462q0 -37 12.5 -69t35 -56t54.5 -37.5t70 -13.5t69.5 13.5t54 37.5t35 56t12.5 69v462h111v-456q0 -66 -21 -118.5t-58.5 -89t-89.5 -56.5t-114 -20zM312 951h75l119 -166h-91l-66 94l-64 -94h-92z" />
    <glyph glyph-name="Udieresis" unicode="&#xdc;" horiz-adv-x="707" 
d="M353 -10q-62 0 -114 20t-89.5 56.5t-58 89t-20.5 118.5v456h111v-462q0 -37 12.5 -69t35 -56t54.5 -37.5t70 -13.5t69.5 13.5t54 37.5t35 56t12.5 69v462h111v-456q0 -66 -21 -118.5t-58.5 -89t-89.5 -56.5t-114 -20zM176 846q0 30 19 49t49 19t49 -19t19 -49t-19 -49
t-49 -19q-31 0 -49.5 19t-18.5 49zM383 846q0 30 19.5 49t48.5 19q30 0 49.5 -19t19.5 -49t-19.5 -49t-49.5 -19t-49 19t-19 49z" />
    <glyph glyph-name="Yacute" unicode="&#xdd;" horiz-adv-x="661" 
d="M276 308l-258 422h122l191 -319l192 319h120l-259 -423v-307h-108v308zM387 949h114l-148 -166h-82z" />
    <glyph glyph-name="Thorn" unicode="&#xde;" horiz-adv-x="628" 
d="M74 730h109v-139h173q50 0 92 -16.5t72 -46t47 -69.5t17 -86q0 -47 -17 -86.5t-47 -69t-72 -46t-92 -16.5h-173v-155h-109v730zM183 490v-235h166q58 0 92 33.5t34 84.5t-34 84t-92 33h-166z" />
    <glyph glyph-name="germandbls" unicode="&#xdf;" horiz-adv-x="586" 
d="M-54 -146q36 0 58.5 6t35 19.5t17 36t4.5 55.5v591q-1 50 14 92t44 72t72 47t97 17q50 0 91.5 -16t71 -44.5t46 -67.5t16.5 -85q0 -57 -28.5 -100t-79.5 -65q30 -10 55.5 -28t44.5 -42t29.5 -54t10.5 -64q0 -51 -17 -93.5t-48 -74t-75.5 -49t-98.5 -17.5q-23 0 -45 3.5
t-39 11.5v98q6 -4 16 -6.5t22 -4t24 -2.5t21 -1q27 0 51 10t41 28t27 42.5t10 53.5q0 27 -11 51.5t-31 42.5t-48.5 28.5t-64.5 10.5h-22v100h22q56 0 92 34t36 88q0 25 -8.5 46.5t-24.5 38t-38 26t-49 9.5q-54 0 -88.5 -31.5t-34.5 -92.5v-603q0 -60 -10 -101.5t-33 -68
t-62 -38t-96 -11.5h-17v102z" />
    <glyph glyph-name="agrave" unicode="&#xe0;" horiz-adv-x="607" 
d="M231 -11q-47 0 -82.5 12t-59.5 33.5t-36.5 51t-12.5 63.5q0 84 64.5 131.5t178.5 47.5h160v9q0 54 -34 88t-106 34q-54 0 -93 -23.5t-62 -63.5l-96 56q40 53 102.5 88t149.5 35q58 0 103.5 -15.5t76.5 -44t47 -68.5t16 -89v-334h-104v95q-32 -48 -88 -77t-124 -29z
M254 83q29 0 57 8t53 22.5t45.5 35.5t33.5 48v45h-153q-75 0 -107.5 -22t-32.5 -62q0 -35 25 -55t79 -20zM146 775h114l116 -166h-82z" />
    <glyph glyph-name="aacute" unicode="&#xe1;" horiz-adv-x="607" 
d="M231 -11q-47 0 -82.5 12t-59.5 33.5t-36.5 51t-12.5 63.5q0 84 64.5 131.5t178.5 47.5h160v9q0 54 -34 88t-106 34q-54 0 -93 -23.5t-62 -63.5l-96 56q40 53 102.5 88t149.5 35q58 0 103.5 -15.5t76.5 -44t47 -68.5t16 -89v-334h-104v95q-32 -48 -88 -77t-124 -29z
M254 83q29 0 57 8t53 22.5t45.5 35.5t33.5 48v45h-153q-75 0 -107.5 -22t-32.5 -62q0 -35 25 -55t79 -20zM363 775h114l-148 -166h-82z" />
    <glyph glyph-name="acircumflex" unicode="&#xe2;" horiz-adv-x="607" 
d="M231 -11q-47 0 -82.5 12t-59.5 33.5t-36.5 51t-12.5 63.5q0 84 64.5 131.5t178.5 47.5h160v9q0 54 -34 88t-106 34q-54 0 -93 -23.5t-62 -63.5l-96 56q40 53 102.5 88t149.5 35q58 0 103.5 -15.5t76.5 -44t47 -68.5t16 -89v-334h-104v95q-32 -48 -88 -77t-124 -29z
M254 83q29 0 57 8t53 22.5t45.5 35.5t33.5 48v45h-153q-75 0 -107.5 -22t-32.5 -62q0 -35 25 -55t79 -20zM268 778h75l119 -166h-91l-66 94l-64 -94h-92z" />
    <glyph glyph-name="atilde" unicode="&#xe3;" horiz-adv-x="607" 
d="M231 -11q-47 0 -82.5 12t-59.5 33.5t-36.5 51t-12.5 63.5q0 84 64.5 131.5t178.5 47.5h160v9q0 54 -34 88t-106 34q-54 0 -93 -23.5t-62 -63.5l-96 56q40 53 102.5 88t149.5 35q58 0 103.5 -15.5t76.5 -44t47 -68.5t16 -89v-334h-104v95q-32 -48 -88 -77t-124 -29z
M254 83q29 0 57 8t53 22.5t45.5 35.5t33.5 48v45h-153q-75 0 -107.5 -22t-32.5 -62q0 -35 25 -55t79 -20zM139 612q0 58 27.5 93t74.5 35q25 0 43.5 -8t35.5 -18q15 -10 29 -18t28 -8q33 0 33 48h71q0 -59 -26 -93.5t-77 -34.5q-29 0 -50 10.5t-39 21.5q-13 8 -23.5 13.5
t-24.5 5.5q-31 0 -31 -47h-71z" />
    <glyph glyph-name="adieresis" unicode="&#xe4;" horiz-adv-x="607" 
d="M231 -11q-47 0 -82.5 12t-59.5 33.5t-36.5 51t-12.5 63.5q0 84 64.5 131.5t178.5 47.5h160v9q0 54 -34 88t-106 34q-54 0 -93 -23.5t-62 -63.5l-96 56q40 53 102.5 88t149.5 35q58 0 103.5 -15.5t76.5 -44t47 -68.5t16 -89v-334h-104v95q-32 -48 -88 -77t-124 -29z
M254 83q29 0 57 8t53 22.5t45.5 35.5t33.5 48v45h-153q-75 0 -107.5 -22t-32.5 -62q0 -35 25 -55t79 -20zM132 673q0 30 19 49t49 19t49 -19t19 -49t-19 -49t-49 -19q-31 0 -49.5 19t-18.5 49zM339 673q0 30 19.5 49t48.5 19q30 0 49.5 -19t19.5 -49t-19.5 -49t-49.5 -19
t-49 19t-19 49z" />
    <glyph glyph-name="aring" unicode="&#xe5;" horiz-adv-x="607" 
d="M231 -11q-47 0 -82.5 12t-59.5 33.5t-36.5 51t-12.5 63.5q0 84 64.5 131.5t178.5 47.5h160v9q0 54 -34 88t-106 34q-54 0 -93 -23.5t-62 -63.5l-96 56q40 53 102.5 88t149.5 35q58 0 103.5 -15.5t76.5 -44t47 -68.5t16 -89v-334h-104v95q-32 -48 -88 -77t-124 -29z
M254 83q29 0 57 8t53 22.5t45.5 35.5t33.5 48v45h-153q-75 0 -107.5 -22t-32.5 -62q0 -35 25 -55t79 -20zM308 613q-22 0 -41 8.5t-33.5 23t-23 34t-8.5 41.5q0 23 8.5 42.5t23 34t33.5 23t41 8.5q23 0 43 -8.5t34.5 -23t23 -34t8.5 -42.5q0 -22 -8.5 -41.5t-23 -34
t-34.5 -23t-43 -8.5zM308 671q21 0 36 14.5t15 34.5t-15 35t-36 15q-20 0 -34 -16t-14 -36t14 -33.5t34 -13.5z" />
    <glyph glyph-name="ae" unicode="&#xe6;" horiz-adv-x="1022" 
d="M229 -11q-93 0 -144.5 44t-51.5 116q0 86 64 130.5t176 44.5h165v25q0 48 -34.5 79.5t-102.5 31.5q-57 0 -93.5 -23.5t-53.5 -60.5l-102 43q32 57 94 94.5t157 37.5q75 0 124.5 -25.5t73.5 -70.5q39 45 94 70.5t119 25.5q61 0 111.5 -21t87.5 -58.5t57.5 -88t20.5 -110.5
v-39h-454q10 -66 56.5 -106.5t123.5 -40.5q54 0 94 24t64 66l91 -51q-41 -63 -101.5 -100t-148.5 -37q-81 0 -141.5 32.5t-95.5 87.5q-38 -55 -102.5 -87.5t-147.5 -32.5zM249 83q30 0 60.5 9t56.5 25t46 39t30 52q-1 5 -1.5 11.5t-0.5 14.5h-165q-67 0 -98.5 -17.5
t-31.5 -58.5q0 -34 26 -54.5t78 -20.5zM714 453q-32 0 -59.5 -9.5t-50 -27t-38.5 -41t-24 -51.5h336q-13 61 -55.5 95t-108.5 34z" />
    <glyph glyph-name="ccedilla" unicode="&#xe7;" horiz-adv-x="617" 
d="M324 -243q-43 0 -79.5 15.5t-64.5 41.5l69 42q18 -14 35.5 -24t45.5 -10q25 0 43 10t18 25q0 32 -64 32h-46v103q-52 7 -96 31.5t-75.5 61.5t-49.5 84.5t-18 100.5q0 60 22 111t60 89t89.5 59.5t110.5 21.5q45 0 84.5 -12t72.5 -34t58.5 -52.5t40.5 -66.5l-97 -42
q-21 50 -62.5 78t-96.5 28q-38 0 -70 -14t-55.5 -38.5t-37 -57.5t-13.5 -70t13.5 -70t37.5 -57.5t56.5 -38.5t70.5 -14q58 0 98.5 31.5t60.5 78.5l98 -41q-30 -69 -87.5 -114.5t-139.5 -53.5v-50q54 2 85.5 -21.5t31.5 -58.5q0 -23 -12 -42t-32 -33t-47 -21.5t-58 -7.5z" />
    <glyph glyph-name="egrave" unicode="&#xe8;" horiz-adv-x="643" 
d="M329 -11q-65 0 -117.5 21.5t-90.5 59t-58.5 88.5t-20.5 110q0 60 21.5 111.5t59.5 89.5t89 60t111 22t110.5 -20.5t87.5 -57.5t58 -87.5t21 -110.5v-45h-454q12 -66 60 -105.5t123 -39.5q57 0 95.5 24t62.5 63l89 -53q-39 -59 -99 -94.5t-148 -35.5zM323 456
q-65 0 -111 -37.5t-62 -96.5h341q-12 64 -56.5 99t-111.5 35zM161 775h114l116 -166h-82z" />
    <glyph glyph-name="eacute" unicode="&#xe9;" horiz-adv-x="643" 
d="M329 -11q-65 0 -117.5 21.5t-90.5 59t-58.5 88.5t-20.5 110q0 60 21.5 111.5t59.5 89.5t89 60t111 22t110.5 -20.5t87.5 -57.5t58 -87.5t21 -110.5v-45h-454q12 -66 60 -105.5t123 -39.5q57 0 95.5 24t62.5 63l89 -53q-39 -59 -99 -94.5t-148 -35.5zM323 456
q-65 0 -111 -37.5t-62 -96.5h341q-12 64 -56.5 99t-111.5 35zM378 775h114l-148 -166h-82z" />
    <glyph glyph-name="ecircumflex" unicode="&#xea;" horiz-adv-x="643" 
d="M329 -11q-65 0 -117.5 21.5t-90.5 59t-58.5 88.5t-20.5 110q0 60 21.5 111.5t59.5 89.5t89 60t111 22t110.5 -20.5t87.5 -57.5t58 -87.5t21 -110.5v-45h-454q12 -66 60 -105.5t123 -39.5q57 0 95.5 24t62.5 63l89 -53q-39 -59 -99 -94.5t-148 -35.5zM323 456
q-65 0 -111 -37.5t-62 -96.5h341q-12 64 -56.5 99t-111.5 35zM283 778h75l119 -166h-91l-66 94l-64 -94h-92z" />
    <glyph glyph-name="edieresis" unicode="&#xeb;" horiz-adv-x="643" 
d="M329 -11q-65 0 -117.5 21.5t-90.5 59t-58.5 88.5t-20.5 110q0 60 21.5 111.5t59.5 89.5t89 60t111 22t110.5 -20.5t87.5 -57.5t58 -87.5t21 -110.5v-45h-454q12 -66 60 -105.5t123 -39.5q57 0 95.5 24t62.5 63l89 -53q-39 -59 -99 -94.5t-148 -35.5zM323 456
q-65 0 -111 -37.5t-62 -96.5h341q-12 64 -56.5 99t-111.5 35zM147 673q0 30 19 49t49 19t49 -19t19 -49t-19 -49t-49 -19q-31 0 -49.5 19t-18.5 49zM354 673q0 30 19.5 49t48.5 19q30 0 49.5 -19t19.5 -49t-19.5 -49t-49.5 -19t-49 19t-19 49z" />
    <glyph glyph-name="igrave" unicode="&#xec;" horiz-adv-x="233" 
d="M62 540h109v-540h-109v540zM-46 769h114l116 -166h-82z" />
    <glyph glyph-name="iacute" unicode="&#xed;" horiz-adv-x="233" 
d="M62 540h109v-540h-109v540zM191 779h114l-148 -166h-82z" />
    <glyph glyph-name="icircumflex" unicode="&#xee;" horiz-adv-x="233" 
d="M62 540h109v-540h-109v540zM76 772h75l119 -166h-91l-66 94l-64 -94h-92z" />
    <glyph glyph-name="idieresis" unicode="&#xef;" horiz-adv-x="233" 
d="M62 540h109v-540h-109v540zM-60 667q0 30 19 49t49 19t49 -19t19 -49t-19 -49t-49 -19q-31 0 -49.5 19t-18.5 49zM147 667q0 30 19.5 49t48.5 19q30 0 49.5 -19t19.5 -49t-19.5 -49t-49.5 -19t-49 19t-19 49z" />
    <glyph glyph-name="eth" unicode="&#xf0;" horiz-adv-x="640" 
d="M267 672q-32 28 -70.5 56t-83.5 60h158q19 -15 36.5 -29.5t34.5 -29.5l82 63l42 -49l-77 -58q108 -107 156.5 -211t48.5 -207q0 -58 -21 -108t-58.5 -87.5t-88 -59t-108.5 -21.5q-56 0 -105.5 20.5t-87 57.5t-59.5 86.5t-22 108.5q0 58 20.5 106.5t56.5 84t83.5 55.5
t101.5 20q43 0 74 -10.5t54 -28.5q-21 34 -50 68t-68 70l-84 -64l-42 48zM319 93q34 0 65 13.5t53.5 37t36 54.5t13.5 66t-13 66t-35.5 54t-53 36.5t-65.5 13.5q-34 0 -64.5 -13t-54 -36t-37 -54t-13.5 -67t13.5 -67t36.5 -54.5t53.5 -36.5t64.5 -13z" />
    <glyph glyph-name="ntilde" unicode="&#xf1;" horiz-adv-x="622" 
d="M62 540h106v-75q28 39 71.5 62.5t100.5 23.5q51 0 92.5 -16.5t70 -47t44 -75t15.5 -99.5v-313h-109v305q0 69 -35 110t-103 41q-31 0 -57.5 -11t-46 -31.5t-30.5 -50t-11 -65.5v-298h-108v540zM148 610q0 58 27.5 93t74.5 35q25 0 43.5 -8t35.5 -18q15 -10 29 -18t28 -8
q33 0 33 48h71q0 -59 -26 -93.5t-77 -34.5q-29 0 -50 10.5t-39 21.5q-13 8 -23.5 13.5t-24.5 5.5q-31 0 -31 -47h-71z" />
    <glyph glyph-name="ograve" unicode="&#xf2;" horiz-adv-x="646" 
d="M323 -11q-59 0 -110 22t-89 60t-60 89t-22 110q0 58 22 109.5t60 89.5t89 60t110 22q58 0 109.5 -22t89.5 -60t60 -89.5t22 -109.5q0 -59 -22 -110t-60 -89t-89.5 -60t-109.5 -22zM323 90q37 0 68.5 14t55 38.5t37 57t13.5 70.5q0 37 -13.5 70t-37 57.5t-55.5 38.5
t-68 14q-37 0 -68.5 -14t-55 -38.5t-36.5 -57.5t-13 -70q0 -38 13 -70.5t36.5 -57t55 -38.5t68.5 -14zM161 775h114l116 -166h-82z" />
    <glyph glyph-name="oacute" unicode="&#xf3;" horiz-adv-x="646" 
d="M323 -11q-59 0 -110 22t-89 60t-60 89t-22 110q0 58 22 109.5t60 89.5t89 60t110 22q58 0 109.5 -22t89.5 -60t60 -89.5t22 -109.5q0 -59 -22 -110t-60 -89t-89.5 -60t-109.5 -22zM323 90q37 0 68.5 14t55 38.5t37 57t13.5 70.5q0 37 -13.5 70t-37 57.5t-55.5 38.5
t-68 14q-37 0 -68.5 -14t-55 -38.5t-36.5 -57.5t-13 -70q0 -38 13 -70.5t36.5 -57t55 -38.5t68.5 -14zM378 775h114l-148 -166h-82z" />
    <glyph glyph-name="ocircumflex" unicode="&#xf4;" horiz-adv-x="646" 
d="M323 -11q-59 0 -110 22t-89 60t-60 89t-22 110q0 58 22 109.5t60 89.5t89 60t110 22q58 0 109.5 -22t89.5 -60t60 -89.5t22 -109.5q0 -59 -22 -110t-60 -89t-89.5 -60t-109.5 -22zM323 90q37 0 68.5 14t55 38.5t37 57t13.5 70.5q0 37 -13.5 70t-37 57.5t-55.5 38.5
t-68 14q-37 0 -68.5 -14t-55 -38.5t-36.5 -57.5t-13 -70q0 -38 13 -70.5t36.5 -57t55 -38.5t68.5 -14zM283 778h75l119 -166h-91l-66 94l-64 -94h-92z" />
    <glyph glyph-name="otilde" unicode="&#xf5;" horiz-adv-x="646" 
d="M323 -11q-59 0 -110 22t-89 60t-60 89t-22 110q0 58 22 109.5t60 89.5t89 60t110 22q58 0 109.5 -22t89.5 -60t60 -89.5t22 -109.5q0 -59 -22 -110t-60 -89t-89.5 -60t-109.5 -22zM323 90q37 0 68.5 14t55 38.5t37 57t13.5 70.5q0 37 -13.5 70t-37 57.5t-55.5 38.5
t-68 14q-37 0 -68.5 -14t-55 -38.5t-36.5 -57.5t-13 -70q0 -38 13 -70.5t36.5 -57t55 -38.5t68.5 -14zM154 612q0 58 27.5 93t74.5 35q25 0 43.5 -8t35.5 -18q15 -10 29 -18t28 -8q33 0 33 48h71q0 -59 -26 -93.5t-77 -34.5q-29 0 -50 10.5t-39 21.5q-13 8 -23.5 13.5
t-24.5 5.5q-31 0 -31 -47h-71z" />
    <glyph glyph-name="odieresis" unicode="&#xf6;" horiz-adv-x="646" 
d="M323 -11q-59 0 -110 22t-89 60t-60 89t-22 110q0 58 22 109.5t60 89.5t89 60t110 22q58 0 109.5 -22t89.5 -60t60 -89.5t22 -109.5q0 -59 -22 -110t-60 -89t-89.5 -60t-109.5 -22zM323 90q37 0 68.5 14t55 38.5t37 57t13.5 70.5q0 37 -13.5 70t-37 57.5t-55.5 38.5
t-68 14q-37 0 -68.5 -14t-55 -38.5t-36.5 -57.5t-13 -70q0 -38 13 -70.5t36.5 -57t55 -38.5t68.5 -14zM147 673q0 30 19 49t49 19t49 -19t19 -49t-19 -49t-49 -19q-31 0 -49.5 19t-18.5 49zM354 673q0 30 19.5 49t48.5 19q30 0 49.5 -19t19.5 -49t-19.5 -49t-49.5 -19
t-49 19t-19 49z" />
    <glyph glyph-name="divide" unicode="&#xf7;" horiz-adv-x="477" 
d="M54 411h370v-92h-370v92zM178 522q0 27 17 44t43 17q27 0 44.5 -17t17.5 -44q0 -26 -17.5 -43t-44.5 -17t-43.5 17t-16.5 43zM178 206q0 27 17 44t43 17q27 0 44.5 -17t17.5 -44q0 -26 -17.5 -43t-44.5 -17t-43.5 17t-16.5 43z" />
    <glyph glyph-name="oslash" unicode="&#xf8;" horiz-adv-x="646" 
d="M121 74q-37 38 -57.5 88t-20.5 108q0 59 22 110.5t59.5 89.5t88.5 59.5t110 21.5q42 0 79.5 -11.5t70.5 -31.5l55 68l53 -40l-56 -70q37 -38 58 -88t21 -108q0 -59 -22 -110t-60.5 -89t-89.5 -60t-109 -22q-42 0 -79.5 11t-69.5 31l-59 -73l-54 42zM149 270
q0 -33 10 -62.5t28 -52.5l221 273q-19 11 -40.5 17.5t-44.5 6.5q-37 0 -68.5 -14.5t-55 -39t-37 -58t-13.5 -70.5zM323 89q36 0 68 14t56 39t37.5 57.5t13.5 70.5q0 32 -10.5 61.5t-28.5 52.5l-221 -273q39 -22 85 -22z" />
    <glyph glyph-name="ugrave" unicode="&#xf9;" horiz-adv-x="621" 
d="M284 -11q-108 0 -165.5 63.5t-57.5 175.5v312h110v-305q0 -69 34 -109.5t103 -40.5q30 0 56.5 11t45.5 31.5t30 49.5t11 65v298h108v-540h-106v74q-28 -39 -71.5 -62t-97.5 -23zM149 758h114l116 -166h-82z" />
    <glyph glyph-name="uacute" unicode="&#xfa;" horiz-adv-x="621" 
d="M284 -11q-108 0 -165.5 63.5t-57.5 175.5v312h110v-305q0 -69 34 -109.5t103 -40.5q30 0 56.5 11t45.5 31.5t30 49.5t11 65v298h108v-540h-106v74q-28 -39 -71.5 -62t-97.5 -23zM366 758h114l-148 -166h-82z" />
    <glyph glyph-name="ucircumflex" unicode="&#xfb;" horiz-adv-x="621" 
d="M284 -11q-108 0 -165.5 63.5t-57.5 175.5v312h110v-305q0 -69 34 -109.5t103 -40.5q30 0 56.5 11t45.5 31.5t30 49.5t11 65v298h108v-540h-106v74q-28 -39 -71.5 -62t-97.5 -23zM271 761h75l119 -166h-91l-66 94l-64 -94h-92z" />
    <glyph glyph-name="udieresis" unicode="&#xfc;" horiz-adv-x="621" 
d="M284 -11q-108 0 -165.5 63.5t-57.5 175.5v312h110v-305q0 -69 34 -109.5t103 -40.5q30 0 56.5 11t45.5 31.5t30 49.5t11 65v298h108v-540h-106v74q-28 -39 -71.5 -62t-97.5 -23zM135 656q0 30 19 49t49 19t49 -19t19 -49t-19 -49t-49 -19q-31 0 -49.5 19t-18.5 49z
M342 656q0 30 19.5 49t48.5 19q30 0 49.5 -19t19.5 -49t-19.5 -49t-49.5 -19t-49 19t-19 49z" />
    <glyph glyph-name="yacute" unicode="&#xfd;" horiz-adv-x="586" 
d="M112 -200q-38 0 -74.5 11.5t-62.5 31.5l64 91q14 -14 31.5 -22.5t40.5 -8.5q21 0 37.5 5t30.5 16.5t26.5 30.5t25.5 48l10 23l-222 514h116l162 -387l155 387h115l-241 -567q-20 -48 -41.5 -81t-47 -53.5t-56 -29.5t-69.5 -9zM349 761h114l-148 -166h-82z" />
    <glyph glyph-name="thorn" unicode="&#xfe;" horiz-adv-x="663" 
d="M356 -11q-61 0 -110 25.5t-78 65.5v-328h-106v1036h106v-330q30 41 78.5 67t109.5 26q53 0 101.5 -19.5t85 -56t58.5 -88t22 -115.5t-22 -116.5t-59 -89.5t-85.5 -57t-100.5 -20zM341 88q39 0 71 14.5t55.5 39.5t36.5 58.5t13 71.5q0 37 -13 70t-36 58t-55 39t-71 14
q-38 0 -70.5 -14.5t-56.5 -39t-37.5 -58t-13.5 -70.5t13.5 -70.5t37.5 -58.5t56.5 -39.5t69.5 -14.5z" />
    <glyph glyph-name="ydieresis" unicode="&#xff;" horiz-adv-x="586" 
d="M112 -200q-38 0 -74.5 11.5t-62.5 31.5l64 91q14 -14 31.5 -22.5t40.5 -8.5q21 0 37.5 5t30.5 16.5t26.5 30.5t25.5 48l10 23l-222 514h116l162 -387l155 387h115l-241 -567q-20 -48 -41.5 -81t-47 -53.5t-56 -29.5t-69.5 -9zM118 659q0 30 19 49t49 19t49 -19t19 -49
t-19 -49t-49 -19q-31 0 -49.5 19t-18.5 49zM325 659q0 30 19.5 49t48.5 19q30 0 49.5 -19t19.5 -49t-19.5 -49t-49.5 -19t-49 19t-19 49z" />
    <glyph glyph-name="Amacron" unicode="&#x100;" horiz-adv-x="718" 
d="M304 730h110l282 -730h-113l-59 156h-330l-58 -156h-114zM233 260h252l-126 334zM230 885h264v-77h-264v77z" />
    <glyph glyph-name="amacron" unicode="&#x101;" horiz-adv-x="607" 
d="M231 -11q-47 0 -82.5 12t-59.5 33.5t-36.5 51t-12.5 63.5q0 84 64.5 131.5t178.5 47.5h160v9q0 54 -34 88t-106 34q-54 0 -93 -23.5t-62 -63.5l-96 56q40 53 102.5 88t149.5 35q58 0 103.5 -15.5t76.5 -44t47 -68.5t16 -89v-334h-104v95q-32 -48 -88 -77t-124 -29z
M254 83q29 0 57 8t53 22.5t45.5 35.5t33.5 48v45h-153q-75 0 -107.5 -22t-32.5 -62q0 -35 25 -55t79 -20zM180 701h264v-77h-264v77z" />
    <glyph glyph-name="Abreve" unicode="&#x102;" horiz-adv-x="718" 
d="M304 730h110l282 -730h-113l-59 156h-330l-58 -156h-114zM233 260h252l-126 334zM359 792q-41 0 -71.5 13t-50.5 35.5t-29.5 52.5t-9.5 65h76q0 -48 21.5 -73.5t63.5 -26.5q41 1 63 26.5t22 73.5h77q0 -35 -11.5 -65t-32.5 -52.5t-51 -35.5t-67 -13z" />
    <glyph glyph-name="abreve" unicode="&#x103;" horiz-adv-x="607" 
d="M231 -11q-47 0 -82.5 12t-59.5 33.5t-36.5 51t-12.5 63.5q0 84 64.5 131.5t178.5 47.5h160v9q0 54 -34 88t-106 34q-54 0 -93 -23.5t-62 -63.5l-96 56q40 53 102.5 88t149.5 35q58 0 103.5 -15.5t76.5 -44t47 -68.5t16 -89v-334h-104v95q-32 -48 -88 -77t-124 -29z
M254 83q29 0 57 8t53 22.5t45.5 35.5t33.5 48v45h-153q-75 0 -107.5 -22t-32.5 -62q0 -35 25 -55t79 -20zM309 608q-41 0 -71.5 13t-50.5 35.5t-29.5 52.5t-9.5 65h76q0 -48 21.5 -73.5t63.5 -26.5q41 1 63 26.5t22 73.5h77q0 -35 -11.5 -65t-32.5 -52.5t-51 -35.5t-67 -13z
" />
    <glyph glyph-name="Aogonek" unicode="&#x104;" horiz-adv-x="718" 
d="M618 -221q-63 0 -101 30t-38 75q0 32 21 63.5t78 65.5l-54 143h-330l-58 -156h-114l282 730h110l282 -730q-39 -25 -64 -41.5t-39 -28.5t-19 -22t-5 -20q0 -18 14.5 -26.5t34.5 -8.5q23 0 38 9.5t29 21.5l71 -48q-26 -23 -63.5 -40t-74.5 -17zM233 260h252l-126 334z" />
    <glyph glyph-name="aogonek" unicode="&#x105;" horiz-adv-x="607" 
d="M495 -224q-30 0 -53.5 8.5t-40 23.5t-25 35t-8.5 42q-1 38 19.5 68.5t55.5 58.5v83q-32 -48 -88 -77t-124 -29q-47 0 -82.5 12t-59.5 33.5t-36.5 51t-12.5 63.5q0 84 64.5 131.5t178.5 47.5h160v9q0 54 -34 88t-106 34q-54 0 -93 -23.5t-62 -63.5l-96 56q40 53 102.5 88
t149.5 35q58 0 103.5 -15.5t76.5 -44t47 -68.5t16 -89v-334q-49 -34 -70.5 -61t-21.5 -47q0 -19 12 -29.5t31 -10.5q18 0 31.5 8.5t25.5 20.5l62 -55q-25 -22 -55.5 -36t-66.5 -14zM254 83q29 0 57 8t53 22.5t45.5 35.5t33.5 48v45h-153q-75 0 -107.5 -22t-32.5 -62
q0 -35 25 -55t79 -20z" />
    <glyph glyph-name="Cacute" unicode="&#x106;" horiz-adv-x="797" 
d="M428 -10q-81 0 -149.5 29.5t-119 80.5t-78.5 119t-28 146q0 80 29 148.5t80 119t119.5 79t146.5 28.5q52 0 99.5 -13.5t89 -37.5t76 -58t58.5 -75l-95 -59q-34 63 -92 100.5t-136 37.5q-57 0 -105.5 -21t-84.5 -57.5t-56 -86t-20 -105.5t20 -104.5t55.5 -85t84 -57.5
t105.5 -21q85 0 144.5 42t91.5 108l98 -52q-24 -46 -58 -83.5t-76.5 -64.5t-92.5 -42t-106 -15zM487 964h114l-148 -166h-82z" />
    <glyph glyph-name="cacute" unicode="&#x107;" horiz-adv-x="617" 
d="M325 -11q-60 0 -112 22t-90 60t-59.5 89t-21.5 110q0 60 22 111t60 89t89.5 59.5t110.5 21.5q45 0 84.5 -12t72.5 -34t58.5 -52.5t40.5 -66.5l-97 -42q-21 50 -62.5 78t-96.5 28q-38 0 -70 -14t-55.5 -38.5t-37 -57.5t-13.5 -70t13.5 -70t37.5 -57.5t56.5 -38.5t70.5 -14
q58 0 98.5 31.5t60.5 78.5l98 -41q-32 -75 -98 -122.5t-160 -47.5zM381 775h114l-148 -166h-82z" />
    <glyph glyph-name="Ccircumflex" unicode="&#x108;" horiz-adv-x="797" 
d="M428 -10q-81 0 -149.5 29.5t-119 80.5t-78.5 119t-28 146q0 80 29 148.5t80 119t119.5 79t146.5 28.5q52 0 99.5 -13.5t89 -37.5t76 -58t58.5 -75l-95 -59q-34 63 -92 100.5t-136 37.5q-57 0 -105.5 -21t-84.5 -57.5t-56 -86t-20 -105.5t20 -104.5t55.5 -85t84 -57.5
t105.5 -21q85 0 144.5 42t91.5 108l98 -52q-24 -46 -58 -83.5t-76.5 -64.5t-92.5 -42t-106 -15zM392 967h75l119 -166h-91l-66 94l-64 -94h-92z" />
    <glyph glyph-name="ccircumflex" unicode="&#x109;" horiz-adv-x="617" 
d="M325 -11q-60 0 -112 22t-90 60t-59.5 89t-21.5 110q0 60 22 111t60 89t89.5 59.5t110.5 21.5q45 0 84.5 -12t72.5 -34t58.5 -52.5t40.5 -66.5l-97 -42q-21 50 -62.5 78t-96.5 28q-38 0 -70 -14t-55.5 -38.5t-37 -57.5t-13.5 -70t13.5 -70t37.5 -57.5t56.5 -38.5t70.5 -14
q58 0 98.5 31.5t60.5 78.5l98 -41q-32 -75 -98 -122.5t-160 -47.5zM286 778h75l119 -166h-91l-66 94l-64 -94h-92z" />
    <glyph glyph-name="Cdotaccent" unicode="&#x10a;" horiz-adv-x="797" 
d="M428 -10q-81 0 -149.5 29.5t-119 80.5t-78.5 119t-28 146q0 80 29 148.5t80 119t119.5 79t146.5 28.5q52 0 99.5 -13.5t89 -37.5t76 -58t58.5 -75l-95 -59q-34 63 -92 100.5t-136 37.5q-57 0 -105.5 -21t-84.5 -57.5t-56 -86t-20 -105.5t20 -104.5t55.5 -85t84 -57.5
t105.5 -21q85 0 144.5 42t91.5 108l98 -52q-24 -46 -58 -83.5t-76.5 -64.5t-92.5 -42t-106 -15zM358 865q0 32 20 52t52 20t52 -20t20 -52t-20 -52t-52 -20t-52 20t-20 52z" />
    <glyph glyph-name="cdotaccent" unicode="&#x10b;" horiz-adv-x="617" 
d="M325 -11q-60 0 -112 22t-90 60t-59.5 89t-21.5 110q0 60 22 111t60 89t89.5 59.5t110.5 21.5q45 0 84.5 -12t72.5 -34t58.5 -52.5t40.5 -66.5l-97 -42q-21 50 -62.5 78t-96.5 28q-38 0 -70 -14t-55.5 -38.5t-37 -57.5t-13.5 -70t13.5 -70t37.5 -57.5t56.5 -38.5t70.5 -14
q58 0 98.5 31.5t60.5 78.5l98 -41q-32 -75 -98 -122.5t-160 -47.5zM252 676q0 32 20 52t52 20t52 -20t20 -52t-20 -52t-52 -20t-52 20t-20 52z" />
    <glyph glyph-name="Ccaron" unicode="&#x10c;" horiz-adv-x="797" 
d="M428 -10q-81 0 -149.5 29.5t-119 80.5t-78.5 119t-28 146q0 80 29 148.5t80 119t119.5 79t146.5 28.5q52 0 99.5 -13.5t89 -37.5t76 -58t58.5 -75l-95 -59q-34 63 -92 100.5t-136 37.5q-57 0 -105.5 -21t-84.5 -57.5t-56 -86t-20 -105.5t20 -104.5t55.5 -85t84 -57.5
t105.5 -21q85 0 144.5 42t91.5 108l98 -52q-24 -46 -58 -83.5t-76.5 -64.5t-92.5 -42t-106 -15zM277 966h92l64 -94l66 94h91l-119 -166h-75z" />
    <glyph glyph-name="ccaron" unicode="&#x10d;" horiz-adv-x="617" 
d="M325 -11q-60 0 -112 22t-90 60t-59.5 89t-21.5 110q0 60 22 111t60 89t89.5 59.5t110.5 21.5q45 0 84.5 -12t72.5 -34t58.5 -52.5t40.5 -66.5l-97 -42q-21 50 -62.5 78t-96.5 28q-38 0 -70 -14t-55.5 -38.5t-37 -57.5t-13.5 -70t13.5 -70t37.5 -57.5t56.5 -38.5t70.5 -14
q58 0 98.5 31.5t60.5 78.5l98 -41q-32 -75 -98 -122.5t-160 -47.5zM171 777h92l64 -94l66 94h91l-119 -166h-75z" />
    <glyph glyph-name="Dcaron" unicode="&#x10e;" horiz-adv-x="722" 
d="M74 730h212q89 0 160 -28t120.5 -77t76 -115.5t26.5 -144.5t-28.5 -145t-79 -115.5t-120 -76.5t-151.5 -28h-216v730zM183 630v-529h96q63 0 114.5 20t88.5 55.5t57 84t20 104.5q0 57 -18.5 106t-54.5 84t-89 55t-122 20h-92zM191 959h92l64 -94l66 94h91l-119 -166h-75z
" />
    <glyph glyph-name="dcaron" unicode="&#x10f;" horiz-adv-x="666" 
d="M313 -11q-53 0 -102 20t-86.5 57t-60 89t-22.5 115q0 64 22 115.5t59.5 88.5t87 57t103.5 20t103.5 -23t80.5 -63v325h106v-790h-106v79q-32 -42 -81.5 -66t-103.5 -24zM327 88q38 0 70.5 14.5t56 39t37 58t13.5 71.5q0 37 -13.5 70.5t-37 58t-56 39t-70.5 14.5
t-70.5 -14t-56.5 -38.5t-37.5 -58t-13.5 -71.5t13.5 -71.5t37.5 -58.5t56.5 -39t70.5 -14zM696 643q32 20 48.5 42.5t16.5 49.5v6q-2 -21 -14.5 -30t-29.5 -9q-24 0 -39 17t-15 40q0 32 20.5 51.5t52.5 19.5q39 0 59.5 -25.5t20.5 -63.5q0 -41 -25.5 -76t-63.5 -61z" />
    <glyph glyph-name="Dcroat" unicode="&#x110;" horiz-adv-x="744" 
d="M15 417h81v313h212q89 0 160 -28t120.5 -77t76 -115.5t26.5 -144.5t-28.5 -145t-79 -115.5t-120 -76.5t-151.5 -28h-216v330h-81v87zM205 330v-229h96q63 0 114.5 20t88.5 55.5t57 84t20 104.5q0 57 -18.5 106t-54.5 84t-89 55t-122 20h-92v-213h179v-87h-179z" />
    <glyph glyph-name="dcroat" unicode="&#x111;" horiz-adv-x="666" 
d="M423 681h75v109h106v-109h59v-68h-59v-613h-106v79q-32 -42 -81.5 -66t-103.5 -24q-53 0 -102 20t-86.5 57t-60 89t-22.5 115q0 64 22 115.5t59.5 88.5t87 57t103.5 20t103.5 -23t80.5 -63v148h-75v68zM327 88q38 0 70.5 14.5t56 39t37 58t13.5 71.5q0 37 -13.5 70.5
t-37 58t-56 39t-70.5 14.5t-70.5 -14t-56.5 -38.5t-37.5 -58t-13.5 -71.5t13.5 -71.5t37.5 -58.5t56.5 -39t70.5 -14z" />
    <glyph glyph-name="Emacron" unicode="&#x112;" horiz-adv-x="616" 
d="M74 730h478v-104h-371v-208h371v-104h-371v-209h371v-105h-478v730zM189 885h264v-77h-264v77z" />
    <glyph glyph-name="emacron" unicode="&#x113;" horiz-adv-x="643" 
d="M329 -11q-65 0 -117.5 21.5t-90.5 59t-58.5 88.5t-20.5 110q0 60 21.5 111.5t59.5 89.5t89 60t111 22t110.5 -20.5t87.5 -57.5t58 -87.5t21 -110.5v-45h-454q12 -66 60 -105.5t123 -39.5q57 0 95.5 24t62.5 63l89 -53q-39 -59 -99 -94.5t-148 -35.5zM323 456
q-65 0 -111 -37.5t-62 -96.5h341q-12 64 -56.5 99t-111.5 35zM195 701h264v-77h-264v77z" />
    <glyph glyph-name="Ebreve" unicode="&#x114;" horiz-adv-x="616" 
d="M74 730h478v-104h-371v-208h371v-104h-371v-209h371v-105h-478v730zM318 792q-41 0 -71.5 13t-50.5 35.5t-29.5 52.5t-9.5 65h76q0 -48 21.5 -73.5t63.5 -26.5q41 1 63 26.5t22 73.5h77q0 -35 -11.5 -65t-32.5 -52.5t-51 -35.5t-67 -13z" />
    <glyph glyph-name="ebreve" unicode="&#x115;" horiz-adv-x="643" 
d="M329 -11q-65 0 -117.5 21.5t-90.5 59t-58.5 88.5t-20.5 110q0 60 21.5 111.5t59.5 89.5t89 60t111 22t110.5 -20.5t87.5 -57.5t58 -87.5t21 -110.5v-45h-454q12 -66 60 -105.5t123 -39.5q57 0 95.5 24t62.5 63l89 -53q-39 -59 -99 -94.5t-148 -35.5zM323 456
q-65 0 -111 -37.5t-62 -96.5h341q-12 64 -56.5 99t-111.5 35zM324 608q-41 0 -71.5 13t-50.5 35.5t-29.5 52.5t-9.5 65h76q0 -48 21.5 -73.5t63.5 -26.5q41 1 63 26.5t22 73.5h77q0 -35 -11.5 -65t-32.5 -52.5t-51 -35.5t-67 -13z" />
    <glyph glyph-name="Edotaccent" unicode="&#x116;" horiz-adv-x="616" 
d="M74 730h478v-104h-371v-208h371v-104h-371v-209h371v-105h-478v730zM243 860q0 32 20 52t52 20t52 -20t20 -52t-20 -52t-52 -20t-52 20t-20 52z" />
    <glyph glyph-name="edotaccent" unicode="&#x117;" horiz-adv-x="643" 
d="M329 -11q-65 0 -117.5 21.5t-90.5 59t-58.5 88.5t-20.5 110q0 60 21.5 111.5t59.5 89.5t89 60t111 22t110.5 -20.5t87.5 -57.5t58 -87.5t21 -110.5v-45h-454q12 -66 60 -105.5t123 -39.5q57 0 95.5 24t62.5 63l89 -53q-39 -59 -99 -94.5t-148 -35.5zM323 456
q-65 0 -111 -37.5t-62 -96.5h341q-12 64 -56.5 99t-111.5 35zM249 676q0 32 20 52t52 20t52 -20t20 -52t-20 -52t-52 -20t-52 20t-20 52z" />
    <glyph glyph-name="Eogonek" unicode="&#x118;" horiz-adv-x="616" 
d="M74 730h478v-104h-371v-208h371v-104h-371v-209h371v-105q-39 -25 -64 -41.5t-39 -28.5t-19 -22t-5 -20q0 -18 14.5 -26.5t34.5 -8.5q23 0 38 9.5t29 21.5l71 -48q-26 -23 -63.5 -40t-74.5 -17q-63 0 -101 30t-38 75q0 29 16.5 57.5t61.5 58.5h-339v730z" />
    <glyph glyph-name="eogonek" unicode="&#x119;" horiz-adv-x="643" 
d="M381 -201q-63 0 -101 30t-38 75q0 23 9.5 44.5t32.5 43.5q-55 7 -100 31t-76.5 60.5t-48.5 83.5t-17 101q0 60 21.5 111.5t59.5 89.5t89 60t111 22t110.5 -20.5t87.5 -57.5t58 -87.5t21 -110.5v-45h-454q12 -66 60 -105.5t123 -39.5q57 0 95.5 24t62.5 63l89 -53
q-26 -38 -59.5 -67t-78.5 -45q-33 -21 -53.5 -35t-32 -25t-16 -20t-4.5 -19q0 -18 14.5 -26.5t34.5 -8.5q23 0 38 9.5t29 21.5l71 -48q-26 -23 -63.5 -40t-74.5 -17zM323 456q-65 0 -111 -37.5t-62 -96.5h341q-12 64 -56.5 99t-111.5 35z" />
    <glyph glyph-name="Ecaron" unicode="&#x11a;" horiz-adv-x="616" 
d="M74 730h478v-104h-371v-208h371v-104h-371v-209h371v-105h-478v730zM162 961h92l64 -94l66 94h91l-119 -166h-75z" />
    <glyph glyph-name="ecaron" unicode="&#x11b;" horiz-adv-x="643" 
d="M329 -11q-65 0 -117.5 21.5t-90.5 59t-58.5 88.5t-20.5 110q0 60 21.5 111.5t59.5 89.5t89 60t111 22t110.5 -20.5t87.5 -57.5t58 -87.5t21 -110.5v-45h-454q12 -66 60 -105.5t123 -39.5q57 0 95.5 24t62.5 63l89 -53q-39 -59 -99 -94.5t-148 -35.5zM323 456
q-65 0 -111 -37.5t-62 -96.5h341q-12 64 -56.5 99t-111.5 35zM168 777h92l64 -94l66 94h91l-119 -166h-75z" />
    <glyph glyph-name="Gcircumflex" unicode="&#x11c;" horiz-adv-x="844" 
d="M432 -10q-83 0 -152.5 30t-119.5 81t-78.5 119t-28.5 145q0 78 28.5 146.5t78.5 119t119.5 80t151.5 29.5q103 0 181.5 -42.5t130.5 -114.5l-92 -64q-37 56 -92.5 86.5t-127.5 30.5q-59 0 -108.5 -21.5t-85 -58.5t-55.5 -86.5t-20 -104.5q0 -56 20 -105t56 -86t85.5 -58
t108.5 -21q52 0 94 15t73.5 42t51.5 64t29 81h-262v103h376v-39q0 -74 -24.5 -141.5t-71 -118.5t-114 -81t-152.5 -30zM390 967h75l119 -166h-91l-66 94l-64 -94h-92z" />
    <glyph glyph-name="gcircumflex" unicode="&#x11d;" horiz-adv-x="668" 
d="M313 -11q-53 0 -102 20t-86.5 57t-60 89t-22.5 115q0 64 22 115.5t59.5 88.5t87 57t103.5 20t103.5 -23.5t80.5 -65.5v78h108v-497q0 -60 -21.5 -109.5t-59 -85t-88 -55t-108.5 -19.5q-98 0 -161.5 29t-107.5 84l87 71q32 -44 73 -64.5t107 -20.5q39 0 70.5 12t54 34
t35 52.5t12.5 67.5v42q-31 -43 -81 -67.5t-105 -24.5zM327 88q38 0 70.5 14.5t56 39t37 58t13.5 71.5q0 37 -13.5 70.5t-37 58t-56 39t-70.5 14.5t-70.5 -14t-56.5 -38.5t-37.5 -58t-13.5 -71.5t13.5 -71.5t37.5 -58.5t56.5 -39t70.5 -14zM284 778h75l119 -166h-91l-66 94
l-64 -94h-92z" />
    <glyph glyph-name="Gbreve" unicode="&#x11e;" horiz-adv-x="844" 
d="M432 -10q-83 0 -152.5 30t-119.5 81t-78.5 119t-28.5 145q0 78 28.5 146.5t78.5 119t119.5 80t151.5 29.5q103 0 181.5 -42.5t130.5 -114.5l-92 -64q-37 56 -92.5 86.5t-127.5 30.5q-59 0 -108.5 -21.5t-85 -58.5t-55.5 -86.5t-20 -104.5q0 -56 20 -105t56 -86t85.5 -58
t108.5 -21q52 0 94 15t73.5 42t51.5 64t29 81h-262v103h376v-39q0 -74 -24.5 -141.5t-71 -118.5t-114 -81t-152.5 -30zM431 797q-41 0 -71.5 13t-50.5 35.5t-29.5 52.5t-9.5 65h76q0 -48 21.5 -73.5t63.5 -26.5q41 1 63 26.5t22 73.5h77q0 -35 -11.5 -65t-32.5 -52.5
t-51 -35.5t-67 -13z" />
    <glyph glyph-name="gbreve" unicode="&#x11f;" horiz-adv-x="668" 
d="M313 -11q-53 0 -102 20t-86.5 57t-60 89t-22.5 115q0 64 22 115.5t59.5 88.5t87 57t103.5 20t103.5 -23.5t80.5 -65.5v78h108v-497q0 -60 -21.5 -109.5t-59 -85t-88 -55t-108.5 -19.5q-98 0 -161.5 29t-107.5 84l87 71q32 -44 73 -64.5t107 -20.5q39 0 70.5 12t54 34
t35 52.5t12.5 67.5v42q-31 -43 -81 -67.5t-105 -24.5zM327 88q38 0 70.5 14.5t56 39t37 58t13.5 71.5q0 37 -13.5 70.5t-37 58t-56 39t-70.5 14.5t-70.5 -14t-56.5 -38.5t-37.5 -58t-13.5 -71.5t13.5 -71.5t37.5 -58.5t56.5 -39t70.5 -14zM325 608q-41 0 -71.5 13
t-50.5 35.5t-29.5 52.5t-9.5 65h76q0 -48 21.5 -73.5t63.5 -26.5q41 1 63 26.5t22 73.5h77q0 -35 -11.5 -65t-32.5 -52.5t-51 -35.5t-67 -13z" />
    <glyph glyph-name="Gdotaccent" unicode="&#x120;" horiz-adv-x="844" 
d="M432 -10q-83 0 -152.5 30t-119.5 81t-78.5 119t-28.5 145q0 78 28.5 146.5t78.5 119t119.5 80t151.5 29.5q103 0 181.5 -42.5t130.5 -114.5l-92 -64q-37 56 -92.5 86.5t-127.5 30.5q-59 0 -108.5 -21.5t-85 -58.5t-55.5 -86.5t-20 -104.5q0 -56 20 -105t56 -86t85.5 -58
t108.5 -21q52 0 94 15t73.5 42t51.5 64t29 81h-262v103h376v-39q0 -74 -24.5 -141.5t-71 -118.5t-114 -81t-152.5 -30zM356 865q0 32 20 52t52 20t52 -20t20 -52t-20 -52t-52 -20t-52 20t-20 52z" />
    <glyph glyph-name="gdotaccent" unicode="&#x121;" horiz-adv-x="668" 
d="M313 -11q-53 0 -102 20t-86.5 57t-60 89t-22.5 115q0 64 22 115.5t59.5 88.5t87 57t103.5 20t103.5 -23.5t80.5 -65.5v78h108v-497q0 -60 -21.5 -109.5t-59 -85t-88 -55t-108.5 -19.5q-98 0 -161.5 29t-107.5 84l87 71q32 -44 73 -64.5t107 -20.5q39 0 70.5 12t54 34
t35 52.5t12.5 67.5v42q-31 -43 -81 -67.5t-105 -24.5zM327 88q38 0 70.5 14.5t56 39t37 58t13.5 71.5q0 37 -13.5 70.5t-37 58t-56 39t-70.5 14.5t-70.5 -14t-56.5 -38.5t-37.5 -58t-13.5 -71.5t13.5 -71.5t37.5 -58.5t56.5 -39t70.5 -14zM250 676q0 32 20 52t52 20t52 -20
t20 -52t-20 -52t-52 -20t-52 20t-20 52z" />
    <glyph glyph-name="Gcommaaccent" unicode="&#x122;" horiz-adv-x="844" 
d="M432 -10q-83 0 -152.5 30t-119.5 81t-78.5 119t-28.5 145q0 78 28.5 146.5t78.5 119t119.5 80t151.5 29.5q103 0 181.5 -42.5t130.5 -114.5l-92 -64q-37 56 -92.5 86.5t-127.5 30.5q-59 0 -108.5 -21.5t-85 -58.5t-55.5 -86.5t-20 -104.5q0 -56 20 -105t56 -86t85.5 -58
t108.5 -21q52 0 94 15t73.5 42t51.5 64t29 81h-262v103h376v-39q0 -74 -24.5 -141.5t-71 -118.5t-114 -81t-152.5 -30zM392 -246q32 20 48.5 42.5t16.5 49.5v6q-2 -21 -14.5 -30t-29.5 -9q-24 0 -39 17t-15 40q0 32 20.5 51.5t52.5 19.5q39 0 59.5 -25.5t20.5 -63.5
q0 -41 -25.5 -76t-63.5 -61z" />
    <glyph glyph-name="gcommaaccent" unicode="&#x123;" horiz-adv-x="668" 
d="M313 -11q-53 0 -102 20t-86.5 57t-60 89t-22.5 115q0 64 22 115.5t59.5 88.5t87 57t103.5 20t103.5 -23.5t80.5 -65.5v78h108v-497q0 -60 -21.5 -109.5t-59 -85t-88 -55t-108.5 -19.5q-98 0 -161.5 29t-107.5 84l87 71q32 -44 73 -64.5t107 -20.5q39 0 70.5 12t54 34
t35 52.5t12.5 67.5v42q-31 -43 -81 -67.5t-105 -24.5zM327 88q38 0 70.5 14.5t56 39t37 58t13.5 71.5q0 37 -13.5 70.5t-37 58t-56 39t-70.5 14.5t-70.5 -14t-56.5 -38.5t-37.5 -58t-13.5 -71.5t13.5 -71.5t37.5 -58.5t56.5 -39t70.5 -14zM365 791q-32 -20 -48.5 -42.5
t-16.5 -49.5q0 -2 -0.5 -3t0.5 -3q2 21 14.5 30t29.5 9q24 0 39 -17t15 -40q0 -32 -20.5 -51.5t-52.5 -19.5q-39 0 -59.5 25.5t-20.5 63.5q0 41 25.5 76t63.5 61z" />
    <glyph glyph-name="Hcircumflex" unicode="&#x124;" horiz-adv-x="715" 
d="M533 315h-350v-315h-109v730h109v-311h350v311h108v-730h-108v315zM311 953h75l119 -166h-91l-66 94l-64 -94h-92z" />
    <glyph glyph-name="hcircumflex" unicode="&#x125;" horiz-adv-x="622" 
d="M62 788h107v-320q29 38 72.5 60.5t98.5 22.5q51 0 92.5 -16.5t70 -47t44 -75t15.5 -99.5v-313h-110v305q0 69 -34.5 110t-103.5 41q-30 0 -56.5 -11t-46 -31.5t-30.5 -50t-11 -65.5v-298h-108v788zM74 1020h75l119 -166h-91l-66 94l-64 -94h-92z" />
    <glyph glyph-name="Hbar" unicode="&#x126;" horiz-adv-x="739" 
d="M10 604h76v126h109v-126h350v126h108v-126h76v-64h-76v-540h-108v315h-350v-315h-109v540h-76v64zM545 419v121h-350v-121h350z" />
    <glyph glyph-name="hbar" unicode="&#x127;" horiz-adv-x="622" 
d="M1 684h61v104h107v-104h71v-68h-71v-148q29 38 72.5 60.5t98.5 22.5q51 0 92.5 -16.5t70 -47t44 -75t15.5 -99.5v-313h-110v305q0 69 -34.5 110t-103.5 41q-30 0 -56.5 -11t-46 -31.5t-30.5 -50t-11 -65.5v-298h-108v616h-61v68z" />
    <glyph glyph-name="Itilde" unicode="&#x128;" horiz-adv-x="272" 
d="M81 730h110v-730h-110v730zM-33 796q0 58 27.5 93t74.5 35q25 0 43.5 -8t35.5 -18q15 -10 29 -18t28 -8q33 0 33 48h71q0 -59 -26 -93.5t-77 -34.5q-29 0 -50 10.5t-39 21.5q-13 8 -23.5 13.5t-24.5 5.5q-31 0 -31 -47h-71z" />
    <glyph glyph-name="itilde" unicode="&#x129;" horiz-adv-x="233" 
d="M62 540h109v-540h-109v540zM-53 606q0 58 27.5 93t74.5 35q25 0 43.5 -8t35.5 -18q15 -10 29 -18t28 -8q33 0 33 48h71q0 -59 -26 -93.5t-77 -34.5q-29 0 -50 10.5t-39 21.5q-13 8 -23.5 13.5t-24.5 5.5q-31 0 -31 -47h-71z" />
    <glyph glyph-name="Imacron" unicode="&#x12a;" horiz-adv-x="272" 
d="M81 730h110v-730h-110v730zM8 885h264v-77h-264v77z" />
    <glyph glyph-name="imacron" unicode="&#x12b;" horiz-adv-x="233" 
d="M62 540h109v-540h-109v540zM-12 695h264v-77h-264v77z" />
    <glyph glyph-name="Ibreve" unicode="&#x12c;" horiz-adv-x="272" 
d="M81 730h110v-730h-110v730zM137 792q-41 0 -71.5 13t-50.5 35.5t-29.5 52.5t-9.5 65h76q0 -48 21.5 -73.5t63.5 -26.5q41 1 63 26.5t22 73.5h77q0 -35 -11.5 -65t-32.5 -52.5t-51 -35.5t-67 -13z" />
    <glyph glyph-name="ibreve" unicode="&#x12d;" horiz-adv-x="233" 
d="M62 540h109v-540h-109v540zM117 602q-41 0 -71.5 13t-50.5 35.5t-29.5 52.5t-9.5 65h76q0 -48 21.5 -73.5t63.5 -26.5q41 1 63 26.5t22 73.5h77q0 -35 -11.5 -65t-32.5 -52.5t-51 -35.5t-67 -13z" />
    <glyph glyph-name="Iogonek" unicode="&#x12e;" horiz-adv-x="272" 
d="M139 -224q-30 0 -53.5 8.5t-40 23.5t-25 35t-8.5 42q-1 36 18 66t51 56v723h110v-730q-49 -34 -70.5 -61t-21.5 -47q0 -19 12 -29.5t31 -10.5q18 0 31.5 8.5t25.5 20.5l62 -55q-25 -22 -55.5 -36t-66.5 -14z" />
    <glyph glyph-name="iogonek" unicode="&#x12f;" horiz-adv-x="233" 
d="M118 -224q-30 0 -53.5 8.5t-40 23.5t-25 35t-8.5 42q-1 37 18.5 67t52.5 57v531h109v-540h-1q-49 -34 -70.5 -61t-21.5 -47q0 -19 12 -29.5t31 -10.5q18 0 31.5 8.5t25.5 20.5l62 -55q-25 -22 -55.5 -36t-66.5 -14zM40 702q0 33 21.5 55t54.5 22q34 0 55.5 -22t21.5 -55
t-21.5 -55t-55.5 -22t-55 22t-21 55z" />
    <glyph glyph-name="Idotaccent" unicode="&#x130;" horiz-adv-x="272" 
d="M81 730h110v-730h-110v730zM62 860q0 32 20 52t52 20t52 -20t20 -52t-20 -52t-52 -20t-52 20t-20 52z" />
    <glyph glyph-name="dotlessi" unicode="&#x131;" horiz-adv-x="233" 
d="M62 540h109v-540h-109v540z" />
    <glyph glyph-name="IJ" unicode="&#x132;" horiz-adv-x="592" 
d="M294 105h29q50 0 70 21t20 77v527h108v-525q0 -54 -9.5 -92.5t-31 -63.5t-57.5 -37t-90 -12h-39v105zM81 730h110v-730h-110v730z" />
    <glyph glyph-name="ij" unicode="&#x133;" horiz-adv-x="430" 
d="M61 -123h81q38 0 61.5 4t36 16.5t16.5 35t4 59.5v548h108v-549q0 -62 -10.5 -103t-35 -66.5t-64.5 -36t-99 -10.5h-98v102zM61 540h109v-540h-109v540zM240 695q0 32 21 53t53 21q34 0 55 -21t21 -53q0 -33 -21 -54t-55 -21q-32 0 -53 21t-21 54zM41 695q0 32 21 53
t53 21q33 0 54 -21t21 -53q0 -33 -21 -54t-54 -21t-53.5 21t-20.5 54z" />
    <glyph glyph-name="Jcircumflex" unicode="&#x134;" horiz-adv-x="500" 
d="M230 -10q-77 0 -131.5 37.5t-75.5 98.5l104 45q11 -35 37 -57.5t64 -22.5q45 0 69 30t24 80v529h108v-522q0 -103 -52.5 -160.5t-146.5 -57.5zM334 962h75l119 -166h-91l-66 94l-64 -94h-92z" />
    <glyph glyph-name="jcircumflex" unicode="&#x135;" horiz-adv-x="233" 
d="M-56 -114q38 0 61 4t36 16.5t17 35t4 60.5v538h109v-539q0 -62 -10.5 -103.5t-35.5 -66.5t-65 -36t-100 -11h-16v102zM76 772h75l119 -166h-91l-66 94l-64 -94h-92z" />
    <glyph glyph-name="Kcommaaccent" unicode="&#x136;" horiz-adv-x="668" 
d="M319 377l-137 -162v-215h-108v730h108v-378l315 378h134l-232 -275l245 -455h-125zM303 -221q32 20 48.5 42.5t16.5 49.5v6q-2 -21 -14.5 -30t-29.5 -9q-24 0 -39 17t-15 40q0 32 20.5 51.5t52.5 19.5q39 0 59.5 -25.5t20.5 -63.5q0 -41 -25.5 -76t-63.5 -61z" />
    <glyph glyph-name="kcommaaccent" unicode="&#x137;" horiz-adv-x="574" 
d="M266 245l-97 -105v-140h-107v788h107v-524l252 276h132l-209 -227l221 -313h-127zM260 -232q32 20 48.5 42.5t16.5 49.5v6q-2 -21 -14.5 -30t-29.5 -9q-24 0 -39 17t-15 40q0 32 20.5 51.5t52.5 19.5q39 0 59.5 -25.5t20.5 -63.5q0 -41 -25.5 -76t-63.5 -61z" />
    <glyph glyph-name="kgreenlandic" unicode="&#x138;" horiz-adv-x="574" 
d="M266 245l-97 -105v-140h-107v540h107v-276l252 276h132l-209 -227l221 -313h-127z" />
    <glyph glyph-name="Lacute" unicode="&#x139;" horiz-adv-x="586" 
d="M74 730h109v-624h355v-106h-464v730zM185 959h114l-148 -166h-82z" />
    <glyph glyph-name="lacute" unicode="&#x13a;" horiz-adv-x="233" 
d="M62 788h109v-788h-109v788zM170 1017h114l-148 -166h-82z" />
    <glyph glyph-name="Lcommaaccent" unicode="&#x13b;" horiz-adv-x="586" 
d="M74 730h109v-624h355v-106h-464v730zM273 -241q32 20 48.5 42.5t16.5 49.5v6q-2 -21 -14.5 -30t-29.5 -9q-24 0 -39 17t-15 40q0 32 20.5 51.5t52.5 19.5q39 0 59.5 -25.5t20.5 -63.5q0 -41 -25.5 -76t-63.5 -61z" />
    <glyph glyph-name="lcommaaccent" unicode="&#x13c;" horiz-adv-x="233" 
d="M62 788h109v-788h-109v788zM77 -241q32 20 48.5 42.5t16.5 49.5v6q-2 -21 -14.5 -30t-29.5 -9q-24 0 -39 17t-15 40q0 32 20.5 51.5t52.5 19.5q39 0 59.5 -25.5t20.5 -63.5q0 -41 -25.5 -76t-63.5 -61z" />
    <glyph glyph-name="Lcaron" unicode="&#x13d;" horiz-adv-x="586" 
d="M74 730h109v-624h355v-106h-464v730zM414 583q32 20 48.5 42.5t16.5 49.5v6q-2 -21 -14.5 -30t-29.5 -9q-24 0 -39 17t-15 40q0 32 20.5 51.5t52.5 19.5q39 0 59.5 -25.5t20.5 -63.5q0 -41 -25.5 -76t-63.5 -61z" />
    <glyph glyph-name="lcaron" unicode="&#x13e;" horiz-adv-x="233" 
d="M62 788h109v-788h-109v788zM263 641q32 20 48.5 42.5t16.5 49.5v6q-2 -21 -14.5 -30t-29.5 -9q-24 0 -39 17t-15 40q0 32 20.5 51.5t52.5 19.5q39 0 59.5 -25.5t20.5 -63.5q0 -41 -25.5 -76t-63.5 -61z" />
    <glyph glyph-name="Ldot" unicode="&#x13f;" horiz-adv-x="586" 
d="M74 730h109v-624h355v-106h-464v730zM411 365q0 32 20 52t52 20t52 -20t20 -52t-20 -52t-52 -20t-52 20t-20 52z" />
    <glyph glyph-name="ldot" unicode="&#x140;" horiz-adv-x="378" 
d="M62 788h109v-788h-109v788zM232 270q0 32 20 52t52 20t52 -20t20 -52t-20 -52t-52 -20t-52 20t-20 52z" />
    <glyph glyph-name="Lslash" unicode="&#x141;" horiz-adv-x="601" 
d="M-2 369l91 28v333h109v-300l112 35l19 -58l-131 -41v-260h355v-106h-464v333l-72 -22z" />
    <glyph glyph-name="lslash" unicode="&#x142;" horiz-adv-x="315" 
d="M5 387l98 32v369h109v-332l78 26l22 -63l-100 -33v-386h-109v350l-75 -25z" />
    <glyph glyph-name="Nacute" unicode="&#x143;" horiz-adv-x="739" 
d="M74 730h119l366 -554v554h106v-730h-111l-373 564v-564h-107v730zM434 948h114l-148 -166h-82z" />
    <glyph glyph-name="nacute" unicode="&#x144;" horiz-adv-x="622" 
d="M62 540h106v-75q28 39 71.5 62.5t100.5 23.5q51 0 92.5 -16.5t70 -47t44 -75t15.5 -99.5v-313h-109v305q0 69 -35 110t-103 41q-31 0 -57.5 -11t-46 -31.5t-30.5 -50t-11 -65.5v-298h-108v540zM372 773h114l-148 -166h-82z" />
    <glyph glyph-name="Ncommaaccent" unicode="&#x145;" horiz-adv-x="739" 
d="M74 730h119l366 -554v554h106v-730h-111l-373 564v-564h-107v730zM323 -234q32 20 48.5 42.5t16.5 49.5v6q-2 -21 -14.5 -30t-29.5 -9q-24 0 -39 17t-15 40q0 32 20.5 51.5t52.5 19.5q39 0 59.5 -25.5t20.5 -63.5q0 -41 -25.5 -76t-63.5 -61z" />
    <glyph glyph-name="ncommaaccent" unicode="&#x146;" horiz-adv-x="622" 
d="M62 540h106v-75q28 39 71.5 62.5t100.5 23.5q51 0 92.5 -16.5t70 -47t44 -75t15.5 -99.5v-313h-109v305q0 69 -35 110t-103 41q-31 0 -57.5 -11t-46 -31.5t-30.5 -50t-11 -65.5v-298h-108v540zM271 -226q32 20 48.5 42.5t16.5 49.5v6q-2 -21 -14.5 -30t-29.5 -9
q-24 0 -39 17t-15 40q0 32 20.5 51.5t52.5 19.5q39 0 59.5 -25.5t20.5 -63.5q0 -41 -25.5 -76t-63.5 -61z" />
    <glyph glyph-name="Ncaron" unicode="&#x147;" horiz-adv-x="739" 
d="M74 730h119l366 -554v554h106v-730h-111l-373 564v-564h-107v730zM224 950h92l64 -94l66 94h91l-119 -166h-75z" />
    <glyph glyph-name="ncaron" unicode="&#x148;" horiz-adv-x="622" 
d="M62 540h106v-75q28 39 71.5 62.5t100.5 23.5q51 0 92.5 -16.5t70 -47t44 -75t15.5 -99.5v-313h-109v305q0 69 -35 110t-103 41q-31 0 -57.5 -11t-46 -31.5t-30.5 -50t-11 -65.5v-298h-108v540zM162 775h92l64 -94l66 94h91l-119 -166h-75z" />
    <glyph glyph-name="Eng" unicode="&#x14a;" horiz-adv-x="749" 
d="M466 -108h13q26 0 43 5t27 16t14 29.5t4 45.5v26l-384 551v-565h-109v730h123l370 -532v532h108v-740q0 -54 -9.5 -92t-31.5 -63t-57.5 -36.5t-87.5 -11.5h-23v105z" />
    <glyph glyph-name="eng" unicode="&#x14b;" horiz-adv-x="623" 
d="M333 -146q38 0 61.5 4t36.5 16.5t17.5 35t4.5 60.5v335q0 69 -35 110t-103 41q-31 0 -57.5 -11t-46 -31.5t-30.5 -50t-11 -65.5v-298h-108v540h107v-73q28 38 71.5 61t99.5 23q51 0 92.5 -16.5t70 -47t44 -75t15.5 -99.5v-344q0 -63 -10.5 -104.5t-35.5 -66.5t-66 -35.5
t-101 -10.5h-16v102z" />
    <glyph glyph-name="Omacron" unicode="&#x14c;" horiz-adv-x="855" 
d="M427 -10q-78 0 -146 29.5t-118.5 80.5t-80 119t-29.5 146t29.5 146t80 119t118.5 80.5t146 29.5t146.5 -29.5t119 -80.5t80 -119t29.5 -146t-29.5 -146t-80 -119t-119 -80.5t-146.5 -29.5zM427 96q56 0 104.5 21t84.5 58t56.5 85.5t20.5 104.5q0 55 -20.5 104.5t-56.5 86
t-84.5 58t-104.5 21.5t-104.5 -21.5t-84 -58t-56 -86t-20.5 -104.5q0 -56 20.5 -104.5t56 -85.5t84 -58t104.5 -21zM299 890h264v-77h-264v77z" />
    <glyph glyph-name="omacron" unicode="&#x14d;" horiz-adv-x="646" 
d="M323 -11q-59 0 -110 22t-89 60t-60 89t-22 110q0 58 22 109.5t60 89.5t89 60t110 22q58 0 109.5 -22t89.5 -60t60 -89.5t22 -109.5q0 -59 -22 -110t-60 -89t-89.5 -60t-109.5 -22zM323 90q37 0 68.5 14t55 38.5t37 57t13.5 70.5q0 37 -13.5 70t-37 57.5t-55.5 38.5
t-68 14q-37 0 -68.5 -14t-55 -38.5t-36.5 -57.5t-13 -70q0 -38 13 -70.5t36.5 -57t55 -38.5t68.5 -14zM195 701h264v-77h-264v77z" />
    <glyph glyph-name="Obreve" unicode="&#x14e;" horiz-adv-x="855" 
d="M427 -10q-78 0 -146 29.5t-118.5 80.5t-80 119t-29.5 146t29.5 146t80 119t118.5 80.5t146 29.5t146.5 -29.5t119 -80.5t80 -119t29.5 -146t-29.5 -146t-80 -119t-119 -80.5t-146.5 -29.5zM427 96q56 0 104.5 21t84.5 58t56.5 85.5t20.5 104.5q0 55 -20.5 104.5t-56.5 86
t-84.5 58t-104.5 21.5t-104.5 -21.5t-84 -58t-56 -86t-20.5 -104.5q0 -56 20.5 -104.5t56 -85.5t84 -58t104.5 -21zM428 797q-41 0 -71.5 13t-50.5 35.5t-29.5 52.5t-9.5 65h76q0 -48 21.5 -73.5t63.5 -26.5q41 1 63 26.5t22 73.5h77q0 -35 -11.5 -65t-32.5 -52.5t-51 -35.5
t-67 -13z" />
    <glyph glyph-name="obreve" unicode="&#x14f;" horiz-adv-x="646" 
d="M323 -11q-59 0 -110 22t-89 60t-60 89t-22 110q0 58 22 109.5t60 89.5t89 60t110 22q58 0 109.5 -22t89.5 -60t60 -89.5t22 -109.5q0 -59 -22 -110t-60 -89t-89.5 -60t-109.5 -22zM323 90q37 0 68.5 14t55 38.5t37 57t13.5 70.5q0 37 -13.5 70t-37 57.5t-55.5 38.5
t-68 14q-37 0 -68.5 -14t-55 -38.5t-36.5 -57.5t-13 -70q0 -38 13 -70.5t36.5 -57t55 -38.5t68.5 -14zM324 608q-41 0 -71.5 13t-50.5 35.5t-29.5 52.5t-9.5 65h76q0 -48 21.5 -73.5t63.5 -26.5q41 1 63 26.5t22 73.5h77q0 -35 -11.5 -65t-32.5 -52.5t-51 -35.5t-67 -13z
" />
    <glyph glyph-name="Ohungarumlaut" unicode="&#x150;" horiz-adv-x="855" 
d="M427 -10q-78 0 -146 29.5t-118.5 80.5t-80 119t-29.5 146t29.5 146t80 119t118.5 80.5t146 29.5t146.5 -29.5t119 -80.5t80 -119t29.5 -146t-29.5 -146t-80 -119t-119 -80.5t-146.5 -29.5zM427 96q56 0 104.5 21t84.5 58t56.5 85.5t20.5 104.5q0 55 -20.5 104.5t-56.5 86
t-84.5 58t-104.5 21.5t-104.5 -21.5t-84 -58t-56 -86t-20.5 -104.5q0 -56 20.5 -104.5t56 -85.5t84 -58t104.5 -21zM410 966h108l-148 -166h-75zM565 966h108l-148 -166h-76z" />
    <glyph glyph-name="ohungarumlaut" unicode="&#x151;" horiz-adv-x="646" 
d="M323 -11q-59 0 -110 22t-89 60t-60 89t-22 110q0 58 22 109.5t60 89.5t89 60t110 22q58 0 109.5 -22t89.5 -60t60 -89.5t22 -109.5q0 -59 -22 -110t-60 -89t-89.5 -60t-109.5 -22zM323 90q37 0 68.5 14t55 38.5t37 57t13.5 70.5q0 37 -13.5 70t-37 57.5t-55.5 38.5
t-68 14q-37 0 -68.5 -14t-55 -38.5t-36.5 -57.5t-13 -70q0 -38 13 -70.5t36.5 -57t55 -38.5t68.5 -14zM306 777h108l-148 -166h-75zM461 777h108l-148 -166h-76z" />
    <glyph glyph-name="OE" unicode="&#x152;" horiz-adv-x="1235" 
d="M693 121q-45 -60 -112 -95.5t-154 -35.5q-78 0 -146 29.5t-118.5 80.5t-80 119t-29.5 146t29.5 146t80 119t118.5 80.5t146 29.5q87 0 154 -35.5t112 -95.5v121h478v-104h-370v-208h370v-104h-370v-209h370v-105h-478v121zM427 97q55 0 103.5 21t84.5 57.5t57 85.5
t21 104v11q-2 54 -23.5 101t-57.5 82t-83.5 55t-101.5 20q-56 0 -104.5 -21t-84.5 -58t-56.5 -86t-20.5 -104t20.5 -104t56.5 -85.5t84.5 -57.5t104.5 -21z" />
    <glyph glyph-name="oe" unicode="&#x153;" horiz-adv-x="1099" 
d="M322 -11q-59 0 -110 22t-88.5 60t-59.5 89t-22 110t22 110.5t59.5 89.5t88.5 59.5t110 21.5q74 0 133 -33t95 -88q35 56 94 88.5t135 32.5q60 0 110.5 -20.5t87.5 -57.5t57.5 -88t20.5 -112v-40h-454q11 -66 58.5 -107t122.5 -41q55 0 94.5 24t63.5 66l90 -51
q-42 -63 -102 -99t-147 -36q-80 0 -139.5 32t-94.5 86q-35 -54 -93.5 -86t-131.5 -32zM322 90q36 0 68 14t56 38.5t37.5 57.5t13.5 70t-13.5 70t-37.5 57.5t-56 38.5t-68 14q-37 0 -68.5 -14t-55 -38.5t-37 -57.5t-13.5 -70t13.5 -70t37 -57.5t55 -38.5t68.5 -14zM779 456
q-65 0 -111 -37t-62 -96h340q-12 64 -56 98.5t-111 34.5z" />
    <glyph glyph-name="Racute" unicode="&#x154;" horiz-adv-x="671" 
d="M74 730h284q60 0 108 -18.5t82.5 -51t53 -77t18.5 -97.5q0 -69 -36.5 -128t-104.5 -88l155 -270h-124l-132 241h-196v-241h-108v730zM182 629v-288h167q42 0 72.5 12.5t50.5 33t29.5 47t9.5 55.5q0 63 -40.5 101.5t-121.5 38.5h-167zM387 959h114l-148 -166h-82z" />
    <glyph glyph-name="racute" unicode="&#x155;" horiz-adv-x="428" 
d="M61 540h106v-94q17 51 56 76.5t91 25.5q28 0 51.5 -5.5t39.5 -15.5l-42 -104q-24 16 -68 16q-58 0 -92 -31t-34 -104v-304h-108v540zM286 770h114l-148 -166h-82z" />
    <glyph glyph-name="Rcommaaccent" unicode="&#x156;" horiz-adv-x="671" 
d="M74 730h284q60 0 108 -18.5t82.5 -51t53 -77t18.5 -97.5q0 -69 -36.5 -128t-104.5 -88l155 -270h-124l-132 241h-196v-241h-108v730zM182 629v-288h167q42 0 72.5 12.5t50.5 33t29.5 47t9.5 55.5q0 63 -40.5 101.5t-121.5 38.5h-167zM298 -217q32 20 48.5 42.5t16.5 49.5
v6q-2 -21 -14.5 -30t-29.5 -9q-24 0 -39 17t-15 40q0 32 20.5 51.5t52.5 19.5q39 0 59.5 -25.5t20.5 -63.5q0 -41 -25.5 -76t-63.5 -61z" />
    <glyph glyph-name="rcommaaccent" unicode="&#x157;" horiz-adv-x="428" 
d="M61 540h106v-94q17 51 56 76.5t91 25.5q28 0 51.5 -5.5t39.5 -15.5l-42 -104q-24 16 -68 16q-58 0 -92 -31t-34 -104v-304h-108v540zM76 -241q32 20 48.5 42.5t16.5 49.5v6q-2 -21 -14.5 -30t-29.5 -9q-24 0 -39 17t-15 40q0 32 20.5 51.5t52.5 19.5q39 0 59.5 -25.5
t20.5 -63.5q0 -41 -25.5 -76t-63.5 -61z" />
    <glyph glyph-name="Rcaron" unicode="&#x158;" horiz-adv-x="671" 
d="M74 730h284q60 0 108 -18.5t82.5 -51t53 -77t18.5 -97.5q0 -69 -36.5 -128t-104.5 -88l155 -270h-124l-132 241h-196v-241h-108v730zM182 629v-288h167q42 0 72.5 12.5t50.5 33t29.5 47t9.5 55.5q0 63 -40.5 101.5t-121.5 38.5h-167zM177 961h92l64 -94l66 94h91
l-119 -166h-75z" />
    <glyph glyph-name="rcaron" unicode="&#x159;" horiz-adv-x="428" 
d="M61 540h106v-94q17 51 56 76.5t91 25.5q28 0 51.5 -5.5t39.5 -15.5l-42 -104q-24 16 -68 16q-58 0 -92 -31t-34 -104v-304h-108v540zM76 772h92l64 -94l66 94h91l-119 -166h-75z" />
    <glyph glyph-name="Sacute" unicode="&#x15a;" 
d="M337 -10q-114 0 -189.5 41.5t-127.5 112.5l95 75q40 -65 95 -95.5t124 -30.5q74 0 111.5 32t37.5 82q0 33 -16 53.5t-42.5 34t-61 21.5t-71.5 16q-42 9 -84 20.5t-75 33t-53.5 56t-20.5 89.5q0 43 18.5 81t52 66.5t79.5 45t101 16.5q94 0 159.5 -32.5t118.5 -92.5
l-90 -71q-16 22 -34 39.5t-40.5 30.5t-50 20t-63.5 7q-74 0 -106.5 -30.5t-32.5 -78.5q0 -28 15 -45.5t40 -29t57.5 -19t68.5 -14.5q43 -9 86.5 -21.5t78 -36t56.5 -61t22 -97.5q0 -42 -17 -81.5t-50 -69.5t-81 -48.5t-110 -18.5zM384 964h114l-148 -166h-82z" />
    <glyph glyph-name="sacute" unicode="&#x15b;" horiz-adv-x="513" 
d="M257 -11q-86 0 -144.5 30t-93.5 89l97 55q25 -38 60 -59t86 -21q53 0 80 22.5t27 53.5q0 18 -11.5 29.5t-30.5 19t-43.5 13t-51.5 11.5q-34 7 -67.5 17.5t-60.5 28t-43.5 45t-16.5 68.5q0 31 14.5 60.5t41.5 52t65.5 35.5t86.5 13q76 0 129 -26.5t88 -74.5l-93 -53
q-20 30 -50 47t-74 17q-50 0 -74 -20t-24 -49q0 -32 34.5 -45t96.5 -26q34 -7 68 -17.5t61.5 -28.5t45 -46t17.5 -70q0 -30 -13.5 -60.5t-40.5 -55t-68.5 -40t-97.5 -15.5zM307 775h114l-148 -166h-82z" />
    <glyph glyph-name="Scircumflex" unicode="&#x15c;" 
d="M337 -10q-114 0 -189.5 41.5t-127.5 112.5l95 75q40 -65 95 -95.5t124 -30.5q74 0 111.5 32t37.5 82q0 33 -16 53.5t-42.5 34t-61 21.5t-71.5 16q-42 9 -84 20.5t-75 33t-53.5 56t-20.5 89.5q0 43 18.5 81t52 66.5t79.5 45t101 16.5q94 0 159.5 -32.5t118.5 -92.5
l-90 -71q-16 22 -34 39.5t-40.5 30.5t-50 20t-63.5 7q-74 0 -106.5 -30.5t-32.5 -78.5q0 -28 15 -45.5t40 -29t57.5 -19t68.5 -14.5q43 -9 86.5 -21.5t78 -36t56.5 -61t22 -97.5q0 -42 -17 -81.5t-50 -69.5t-81 -48.5t-110 -18.5zM289 967h75l119 -166h-91l-66 94l-64 -94
h-92z" />
    <glyph glyph-name="scircumflex" unicode="&#x15d;" horiz-adv-x="513" 
d="M257 -11q-86 0 -144.5 30t-93.5 89l97 55q25 -38 60 -59t86 -21q53 0 80 22.5t27 53.5q0 18 -11.5 29.5t-30.5 19t-43.5 13t-51.5 11.5q-34 7 -67.5 17.5t-60.5 28t-43.5 45t-16.5 68.5q0 31 14.5 60.5t41.5 52t65.5 35.5t86.5 13q76 0 129 -26.5t88 -74.5l-93 -53
q-20 30 -50 47t-74 17q-50 0 -74 -20t-24 -49q0 -32 34.5 -45t96.5 -26q34 -7 68 -17.5t61.5 -28.5t45 -46t17.5 -70q0 -30 -13.5 -60.5t-40.5 -55t-68.5 -40t-97.5 -15.5zM212 778h75l119 -166h-91l-66 94l-64 -94h-92z" />
    <glyph glyph-name="Scedilla" unicode="&#x15e;" 
d="M323 -237q-43 0 -79.5 15.5t-64.5 41.5l69 42q18 -14 35.5 -24t45.5 -10q25 0 43 10t18 25q0 32 -64 32h-46v98q-90 10 -152.5 49.5t-107.5 101.5l95 75q40 -65 95 -95.5t124 -30.5q74 0 111.5 32t37.5 82q0 33 -16 53.5t-42.5 34t-61 21.5t-71.5 16q-42 9 -84 20.5
t-75 33t-53.5 56t-20.5 89.5q0 43 18.5 81t52 66.5t79.5 45t101 16.5q94 0 159.5 -32.5t118.5 -92.5l-90 -71q-16 22 -34 39.5t-40.5 30.5t-50 20t-63.5 7q-74 0 -106.5 -30.5t-32.5 -78.5q0 -28 15 -45.5t40 -29t57.5 -19t68.5 -14.5q43 -9 86.5 -21.5t78 -36t56.5 -61
t22 -97.5q0 -41 -16 -78.5t-46.5 -67.5t-75 -49t-102.5 -22v-44q54 2 85.5 -21.5t31.5 -58.5q0 -23 -12 -42t-32 -33t-47 -21.5t-58 -7.5z" />
    <glyph glyph-name="scedilla" unicode="&#x15f;" horiz-adv-x="513" 
d="M255 -242q-43 0 -79.5 15.5t-64.5 41.5l69 42q18 -14 35.5 -24t45.5 -10q25 0 43 10t18 25q0 32 -64 32h-46v102q-68 7 -116 36t-77 80l97 55q25 -38 60 -59t86 -21q53 0 80 22.5t27 53.5q0 18 -11.5 29.5t-30.5 19t-43.5 13t-51.5 11.5q-34 7 -67.5 17.5t-60.5 28
t-43.5 45t-16.5 68.5q0 31 14.5 60.5t41.5 52t65.5 35.5t86.5 13q76 0 129 -26.5t88 -74.5l-93 -53q-20 30 -50 47t-74 17q-50 0 -74 -20t-24 -49q0 -32 34.5 -45t96.5 -26q34 -7 68 -17.5t61.5 -28.5t45 -46t17.5 -70q0 -28 -11.5 -56.5t-35.5 -52t-59.5 -40t-83.5 -20.5
v-49q54 2 85.5 -21.5t31.5 -58.5q0 -23 -12 -42t-32 -33t-47 -21.5t-58 -7.5z" />
    <glyph glyph-name="Scaron" unicode="&#x160;" 
d="M337 -10q-114 0 -189.5 41.5t-127.5 112.5l95 75q40 -65 95 -95.5t124 -30.5q74 0 111.5 32t37.5 82q0 33 -16 53.5t-42.5 34t-61 21.5t-71.5 16q-42 9 -84 20.5t-75 33t-53.5 56t-20.5 89.5q0 43 18.5 81t52 66.5t79.5 45t101 16.5q94 0 159.5 -32.5t118.5 -92.5
l-90 -71q-16 22 -34 39.5t-40.5 30.5t-50 20t-63.5 7q-74 0 -106.5 -30.5t-32.5 -78.5q0 -28 15 -45.5t40 -29t57.5 -19t68.5 -14.5q43 -9 86.5 -21.5t78 -36t56.5 -61t22 -97.5q0 -42 -17 -81.5t-50 -69.5t-81 -48.5t-110 -18.5zM174 966h92l64 -94l66 94h91l-119 -166h-75
z" />
    <glyph glyph-name="scaron" unicode="&#x161;" horiz-adv-x="513" 
d="M257 -11q-86 0 -144.5 30t-93.5 89l97 55q25 -38 60 -59t86 -21q53 0 80 22.5t27 53.5q0 18 -11.5 29.5t-30.5 19t-43.5 13t-51.5 11.5q-34 7 -67.5 17.5t-60.5 28t-43.5 45t-16.5 68.5q0 31 14.5 60.5t41.5 52t65.5 35.5t86.5 13q76 0 129 -26.5t88 -74.5l-93 -53
q-20 30 -50 47t-74 17q-50 0 -74 -20t-24 -49q0 -32 34.5 -45t96.5 -26q34 -7 68 -17.5t61.5 -28.5t45 -46t17.5 -70q0 -30 -13.5 -60.5t-40.5 -55t-68.5 -40t-97.5 -15.5zM97 777h92l64 -94l66 94h91l-119 -166h-75z" />
    <glyph glyph-name="Tcommaaccent" unicode="&#x162;" horiz-adv-x="618" 
d="M255 630h-207v100h522v-100h-207v-630h-108v630zM268 -241q32 20 48.5 42.5t16.5 49.5v6q-2 -21 -14.5 -30t-29.5 -9q-24 0 -39 17t-15 40q0 32 20.5 51.5t52.5 19.5q39 0 59.5 -25.5t20.5 -63.5q0 -41 -25.5 -76t-63.5 -61z" />
    <glyph glyph-name="tcommaaccent" unicode="&#x163;" horiz-adv-x="424" 
d="M22 540h107v117l106 69v-186h151v-97h-151v-266q0 -45 19.5 -65t51.5 -20q31 0 55 21l51 -90q-23 -16 -51.5 -24.5t-62.5 -8.5q-81 0 -125 43t-44 143v267h-107v97zM235 -247q32 20 48.5 42.5t16.5 49.5v6q-2 -21 -14.5 -30t-29.5 -9q-24 0 -39 17t-15 40q0 32 20.5 51.5
t52.5 19.5q39 0 59.5 -25.5t20.5 -63.5q0 -41 -25.5 -76t-63.5 -61z" />
    <glyph glyph-name="Tcaron" unicode="&#x164;" horiz-adv-x="618" 
d="M255 630h-207v100h522v-100h-207v-630h-108v630zM153 961h92l64 -94l66 94h91l-119 -166h-75z" />
    <glyph glyph-name="tcaron" unicode="&#x165;" horiz-adv-x="424" 
d="M22 540h107v117l106 69v-186h151v-97h-151v-266q0 -45 19.5 -65t51.5 -20q31 0 55 21l51 -90q-23 -16 -51.5 -24.5t-62.5 -8.5q-81 0 -125 43t-44 143v267h-107v97zM327 641q32 20 48.5 42.5t16.5 49.5v6q-2 -21 -14.5 -30t-29.5 -9q-24 0 -39 17t-15 40q0 32 20.5 51.5
t52.5 19.5q39 0 59.5 -25.5t20.5 -63.5q0 -41 -25.5 -76t-63.5 -61z" />
    <glyph glyph-name="Tbar" unicode="&#x166;" horiz-adv-x="618" 
d="M146 402h109v228h-207v100h522v-100h-207v-228h108v-84h-108v-318h-108v318h-109v84z" />
    <glyph glyph-name="tbar" unicode="&#x167;" horiz-adv-x="432" 
d="M29 540h107v117l106 69v-186h151v-97h-151v-117h99v-68h-99v-81q0 -45 19.5 -65t51.5 -20q31 0 55 21l51 -90q-23 -16 -51.5 -24.5t-62.5 -8.5q-81 0 -125 43t-44 143v82h-86v68h86v117h-107v97z" />
    <glyph glyph-name="Utilde" unicode="&#x168;" horiz-adv-x="707" 
d="M353 -10q-62 0 -114 20t-89.5 56.5t-58 89t-20.5 118.5v456h111v-462q0 -37 12.5 -69t35 -56t54.5 -37.5t70 -13.5t69.5 13.5t54 37.5t35 56t12.5 69v462h111v-456q0 -66 -21 -118.5t-58.5 -89t-89.5 -56.5t-114 -20zM183 785q0 58 27.5 93t74.5 35q25 0 43.5 -8
t35.5 -18q15 -10 29 -18t28 -8q33 0 33 48h71q0 -59 -26 -93.5t-77 -34.5q-29 0 -50 10.5t-39 21.5q-13 8 -23.5 13.5t-24.5 5.5q-31 0 -31 -47h-71z" />
    <glyph glyph-name="utilde" unicode="&#x169;" horiz-adv-x="621" 
d="M284 -11q-108 0 -165.5 63.5t-57.5 175.5v312h110v-305q0 -69 34 -109.5t103 -40.5q30 0 56.5 11t45.5 31.5t30 49.5t11 65v298h108v-540h-106v74q-28 -39 -71.5 -62t-97.5 -23zM142 595q0 58 27.5 93t74.5 35q25 0 43.5 -8t35.5 -18q15 -10 29 -18t28 -8q33 0 33 48h71
q0 -59 -26 -93.5t-77 -34.5q-29 0 -50 10.5t-39 21.5q-13 8 -23.5 13.5t-24.5 5.5q-31 0 -31 -47h-71z" />
    <glyph glyph-name="Umacron" unicode="&#x16a;" horiz-adv-x="707" 
d="M353 -10q-62 0 -114 20t-89.5 56.5t-58 89t-20.5 118.5v456h111v-462q0 -37 12.5 -69t35 -56t54.5 -37.5t70 -13.5t69.5 13.5t54 37.5t35 56t12.5 69v462h111v-456q0 -66 -21 -118.5t-58.5 -89t-89.5 -56.5t-114 -20zM224 874h264v-77h-264v77z" />
    <glyph glyph-name="umacron" unicode="&#x16b;" horiz-adv-x="621" 
d="M284 -11q-108 0 -165.5 63.5t-57.5 175.5v312h110v-305q0 -69 34 -109.5t103 -40.5q30 0 56.5 11t45.5 31.5t30 49.5t11 65v298h108v-540h-106v74q-28 -39 -71.5 -62t-97.5 -23zM183 684h264v-77h-264v77z" />
    <glyph glyph-name="Ubreve" unicode="&#x16c;" horiz-adv-x="707" 
d="M353 -10q-62 0 -114 20t-89.5 56.5t-58 89t-20.5 118.5v456h111v-462q0 -37 12.5 -69t35 -56t54.5 -37.5t70 -13.5t69.5 13.5t54 37.5t35 56t12.5 69v462h111v-456q0 -66 -21 -118.5t-58.5 -89t-89.5 -56.5t-114 -20zM353 781q-41 0 -71.5 13t-50.5 35.5t-29.5 52.5
t-9.5 65h76q0 -48 21.5 -73.5t63.5 -26.5q41 1 63 26.5t22 73.5h77q0 -35 -11.5 -65t-32.5 -52.5t-51 -35.5t-67 -13z" />
    <glyph glyph-name="ubreve" unicode="&#x16d;" horiz-adv-x="621" 
d="M284 -11q-108 0 -165.5 63.5t-57.5 175.5v312h110v-305q0 -69 34 -109.5t103 -40.5q30 0 56.5 11t45.5 31.5t30 49.5t11 65v298h108v-540h-106v74q-28 -39 -71.5 -62t-97.5 -23zM312 591q-41 0 -71.5 13t-50.5 35.5t-29.5 52.5t-9.5 65h76q0 -48 21.5 -73.5t63.5 -26.5
q41 1 63 26.5t22 73.5h77q0 -35 -11.5 -65t-32.5 -52.5t-51 -35.5t-67 -13z" />
    <glyph glyph-name="Uring" unicode="&#x16e;" horiz-adv-x="707" 
d="M353 -10q-62 0 -114 20t-89.5 56.5t-58 89t-20.5 118.5v456h111v-462q0 -37 12.5 -69t35 -56t54.5 -37.5t70 -13.5t69.5 13.5t54 37.5t35 56t12.5 69v462h111v-456q0 -66 -21 -118.5t-58.5 -89t-89.5 -56.5t-114 -20zM352 786q-22 0 -41 8.5t-33.5 23t-23 34t-8.5 41.5
q0 23 8.5 42.5t23 34t33.5 23t41 8.5q23 0 43 -8.5t34.5 -23t23 -34t8.5 -42.5q0 -22 -8.5 -41.5t-23 -34t-34.5 -23t-43 -8.5zM352 844q21 0 36 14.5t15 34.5t-15 35t-36 15q-20 0 -34 -16t-14 -36t14 -33.5t34 -13.5z" />
    <glyph glyph-name="uring" unicode="&#x16f;" horiz-adv-x="621" 
d="M284 -11q-108 0 -165.5 63.5t-57.5 175.5v312h110v-305q0 -69 34 -109.5t103 -40.5q30 0 56.5 11t45.5 31.5t30 49.5t11 65v298h108v-540h-106v74q-28 -39 -71.5 -62t-97.5 -23zM311 596q-22 0 -41 8.5t-33.5 23t-23 34t-8.5 41.5q0 23 8.5 42.5t23 34t33.5 23t41 8.5
q23 0 43 -8.5t34.5 -23t23 -34t8.5 -42.5q0 -22 -8.5 -41.5t-23 -34t-34.5 -23t-43 -8.5zM311 654q21 0 36 14.5t15 34.5t-15 35t-36 15q-20 0 -34 -16t-14 -36t14 -33.5t34 -13.5z" />
    <glyph glyph-name="Uhungarumlaut" unicode="&#x170;" horiz-adv-x="707" 
d="M353 -10q-62 0 -114 20t-89.5 56.5t-58 89t-20.5 118.5v456h111v-462q0 -37 12.5 -69t35 -56t54.5 -37.5t70 -13.5t69.5 13.5t54 37.5t35 56t12.5 69v462h111v-456q0 -66 -21 -118.5t-58.5 -89t-89.5 -56.5t-114 -20zM335 950h108l-148 -166h-75zM490 950h108l-148 -166
h-76z" />
    <glyph glyph-name="uhungarumlaut" unicode="&#x171;" horiz-adv-x="621" 
d="M284 -11q-108 0 -165.5 63.5t-57.5 175.5v312h110v-305q0 -69 34 -109.5t103 -40.5q30 0 56.5 11t45.5 31.5t30 49.5t11 65v298h108v-540h-106v74q-28 -39 -71.5 -62t-97.5 -23zM294 760h108l-148 -166h-75zM449 760h108l-148 -166h-76z" />
    <glyph glyph-name="Uogonek" unicode="&#x172;" horiz-adv-x="707" 
d="M381 -212q-63 0 -101 30t-38 75q0 26 12.5 50.5t44.5 50.5q-51 8 -93 30.5t-72 58.5t-46.5 84t-16.5 107v456h111v-462q0 -37 12.5 -69t35 -56t54.5 -37.5t70 -13.5t69.5 13.5t54 37.5t35 56t12.5 69v462h111v-456q0 -104 -50 -174t-135 -96q-37 -23 -60 -39t-36 -27.5
t-18 -21t-5 -19.5q0 -18 14.5 -26.5t34.5 -8.5q23 0 38 9.5t29 21.5l71 -48q-26 -23 -63.5 -40t-74.5 -17z" />
    <glyph glyph-name="uogonek" unicode="&#x173;" horiz-adv-x="621" 
d="M507 -224q-30 0 -53.5 8.5t-40 23.5t-25 35t-8.5 42q-1 37 19 67.5t54 57.5v64q-28 -39 -71.5 -62t-97.5 -23q-108 0 -165.5 63.5t-57.5 175.5v312h110v-305q0 -69 34 -109.5t103 -40.5q30 0 56.5 11t45.5 31.5t30 49.5t11 65v298h108v-540q-49 -34 -70.5 -61t-21.5 -47
q0 -19 12 -29.5t31 -10.5q18 0 31.5 8.5t25.5 20.5l62 -55q-25 -22 -55.5 -36t-66.5 -14z" />
    <glyph glyph-name="Wcircumflex" unicode="&#x174;" horiz-adv-x="1046" 
d="M26 730h114l153 -564l180 564h100l177 -565l160 565h110l-215 -730h-106l-177 568l-181 -568h-109zM482 962h75l119 -166h-91l-66 94l-64 -94h-92z" />
    <glyph glyph-name="wcircumflex" unicode="&#x175;" horiz-adv-x="923" 
d="M24 540h111l126 -393l147 393h105l145 -393l130 393h111l-188 -540h-103l-149 396l-150 -396h-106zM419 772h75l119 -166h-91l-66 94l-64 -94h-92z" />
    <glyph glyph-name="Ycircumflex" unicode="&#x176;" horiz-adv-x="661" 
d="M276 308l-258 422h122l191 -319l192 319h120l-259 -423v-307h-108v308zM292 952h75l119 -166h-91l-66 94l-64 -94h-92z" />
    <glyph glyph-name="ycircumflex" unicode="&#x177;" horiz-adv-x="586" 
d="M112 -200q-38 0 -74.5 11.5t-62.5 31.5l64 91q14 -14 31.5 -22.5t40.5 -8.5q21 0 37.5 5t30.5 16.5t26.5 30.5t25.5 48l10 23l-222 514h116l162 -387l155 387h115l-241 -567q-20 -48 -41.5 -81t-47 -53.5t-56 -29.5t-69.5 -9zM254 764h75l119 -166h-91l-66 94l-64 -94
h-92z" />
    <glyph glyph-name="Ydieresis" unicode="&#x178;" horiz-adv-x="661" 
d="M276 308l-258 422h122l191 -319l192 319h120l-259 -423v-307h-108v308zM156 847q0 30 19 49t49 19t49 -19t19 -49t-19 -49t-49 -19q-31 0 -49.5 19t-18.5 49zM363 847q0 30 19.5 49t48.5 19q30 0 49.5 -19t19.5 -49t-19.5 -49t-49.5 -19t-49 19t-19 49z" />
    <glyph glyph-name="Zacute" unicode="&#x179;" horiz-adv-x="656" 
d="M53 100l418 529h-403v101h530v-99l-416 -527h419v-104h-548v100zM385 959h114l-148 -166h-82z" />
    <glyph glyph-name="zacute" unicode="&#x17a;" horiz-adv-x="541" 
d="M41 99l327 344h-318v97h445v-99l-327 -344h332v-97h-459v99zM312 770h114l-148 -166h-82z" />
    <glyph glyph-name="Zdotaccent" unicode="&#x17b;" horiz-adv-x="656" 
d="M53 100l418 529h-403v101h530v-99l-416 -527h419v-104h-548v100zM256 860q0 32 20 52t52 20t52 -20t20 -52t-20 -52t-52 -20t-52 20t-20 52z" />
    <glyph glyph-name="zdotaccent" unicode="&#x17c;" horiz-adv-x="541" 
d="M41 99l327 344h-318v97h445v-99l-327 -344h332v-97h-459v99zM183 671q0 32 20 52t52 20t52 -20t20 -52t-20 -52t-52 -20t-52 20t-20 52z" />
    <glyph glyph-name="Zcaron" unicode="&#x17d;" horiz-adv-x="656" 
d="M53 100l418 529h-403v101h530v-99l-416 -527h419v-104h-548v100zM175 961h92l64 -94l66 94h91l-119 -166h-75z" />
    <glyph glyph-name="zcaron" unicode="&#x17e;" horiz-adv-x="541" 
d="M41 99l327 344h-318v97h445v-99l-327 -344h332v-97h-459v99zM102 772h92l64 -94l66 94h91l-119 -166h-75z" />
    <glyph glyph-name="florin" unicode="&#x192;" horiz-adv-x="557" 
d="M75 418h163l28 107q16 61 38.5 101t51 63t62 32t72.5 9h9v-99q-21 0 -39.5 -4t-34.5 -15t-28.5 -32.5t-21.5 -55.5l-28 -106h142v-96h-166l-30 -117q-15 -60 -35 -99.5t-47 -63t-62.5 -33t-82.5 -9.5h-9v100q25 0 45 3.5t35 14.5t26 32.5t20 56.5l30 115h-138v96z" />
    <glyph glyph-name="Aringacute" unicode="&#x1fa;" horiz-adv-x="718" 
d="M291 696q-18 15 -28.5 36.5t-10.5 46.5q0 23 8.5 42.5t23 34t33.5 23t41 8.5q23 0 43 -8.5t34.5 -23t23 -34t8.5 -42.5q0 -26 -11 -47.5t-29 -35.5l269 -696h-113l-59 156h-330l-58 -156h-114zM233 260h252l-126 334zM435 1096h114l-148 -166h-82zM358 730q21 0 36 14.5
t15 34.5t-15 35t-36 15q-20 0 -34 -16t-14 -36t14 -33.5t34 -13.5z" />
    <glyph glyph-name="aringacute" unicode="&#x1fb;" horiz-adv-x="607" 
d="M231 -11q-47 0 -82.5 12t-59.5 33.5t-36.5 51t-12.5 63.5q0 84 64.5 131.5t178.5 47.5h160v9q0 54 -34 88t-106 34q-54 0 -93 -23.5t-62 -63.5l-96 56q40 53 102.5 88t149.5 35q58 0 103.5 -15.5t76.5 -44t47 -68.5t16 -89v-334h-104v95q-32 -48 -88 -77t-124 -29z
M254 83q29 0 57 8t53 22.5t45.5 35.5t33.5 48v45h-153q-75 0 -107.5 -22t-32.5 -62q0 -35 25 -55t79 -20zM380 1044h114l-148 -166h-82zM308 612q-22 0 -41 8.5t-33.5 23t-23 34t-8.5 41.5q0 23 8.5 42.5t23 34t33.5 23t41 8.5q23 0 43 -8.5t34.5 -23t23 -34t8.5 -42.5
q0 -22 -8.5 -41.5t-23 -34t-34.5 -23t-43 -8.5zM308 670q21 0 36 14.5t15 34.5t-15 35t-36 15q-20 0 -34 -16t-14 -36t14 -33.5t34 -13.5z" />
    <glyph glyph-name="AEacute" unicode="&#x1fc;" horiz-adv-x="993" 
d="M362 730h567v-103h-428l51 -209h377v-103h-352l51 -211h301v-104h-389l-37 154h-292l-71 -154h-117zM257 254h222l-75 318zM598 959h114l-148 -166h-82z" />
    <glyph glyph-name="aeacute" unicode="&#x1fd;" horiz-adv-x="1022" 
d="M229 -11q-93 0 -144.5 44t-51.5 116q0 86 64 130.5t176 44.5h165v25q0 48 -34.5 79.5t-102.5 31.5q-57 0 -93.5 -23.5t-53.5 -60.5l-102 43q32 57 94 94.5t157 37.5q75 0 124.5 -25.5t73.5 -70.5q39 45 94 70.5t119 25.5q61 0 111.5 -21t87.5 -58.5t57.5 -88t20.5 -110.5
v-39h-454q10 -66 56.5 -106.5t123.5 -40.5q54 0 94 24t64 66l91 -51q-41 -63 -101.5 -100t-148.5 -37q-81 0 -141.5 32.5t-95.5 87.5q-38 -55 -102.5 -87.5t-147.5 -32.5zM249 83q30 0 60.5 9t56.5 25t46 39t30 52q-1 5 -1.5 11.5t-0.5 14.5h-165q-67 0 -98.5 -17.5
t-31.5 -58.5q0 -34 26 -54.5t78 -20.5zM714 453q-32 0 -59.5 -9.5t-50 -27t-38.5 -41t-24 -51.5h336q-13 61 -55.5 95t-108.5 34zM569 759h114l-148 -166h-82z" />
    <glyph glyph-name="Oslashacute" unicode="&#x1fe;" horiz-adv-x="855" 
d="M427 -10q-58 0 -110.5 16.5t-97.5 45.5l-82 -103l-54 41l84 105q-54 51 -84 120.5t-30 149.5q0 78 29.5 146t80 119t118.5 80.5t146 29.5q57 0 108.5 -16t95.5 -45l78 98l55 -42l-79 -99q54 -51 85.5 -120.5t31.5 -150.5q0 -78 -29.5 -146t-80 -119t-119 -80.5
t-146.5 -29.5zM427 96q56 0 104.5 21t84.5 58t56.5 85.5t20.5 104.5q0 54 -19.5 102.5t-54.5 85.5l-333 -417q31 -19 66.5 -29.5t74.5 -10.5zM162 365q0 -54 19 -101.5t53 -83.5l331 416q-62 39 -138 39q-56 0 -104.5 -21.5t-84 -58t-56 -86t-20.5 -104.5zM482 969h114
l-148 -166h-82z" />
    <glyph glyph-name="oslashacute" unicode="&#x1ff;" horiz-adv-x="646" 
d="M121 74q-37 38 -57.5 88t-20.5 108q0 59 22 110.5t59.5 89.5t88.5 59.5t110 21.5q42 0 79.5 -11.5t70.5 -31.5l55 68l53 -40l-56 -70q37 -38 58 -88t21 -108q0 -59 -22 -110t-60.5 -89t-89.5 -60t-109 -22q-42 0 -79.5 11t-69.5 31l-59 -73l-54 42zM149 270
q0 -33 10 -62.5t28 -52.5l221 273q-19 11 -40.5 17.5t-44.5 6.5q-37 0 -68.5 -14.5t-55 -39t-37 -58t-13.5 -70.5zM323 89q36 0 68 14t56 39t37.5 57.5t13.5 70.5q0 32 -10.5 61.5t-28.5 52.5l-221 -273q39 -22 85 -22zM378 775h114l-148 -166h-82z" />
    <glyph glyph-name="Scommaaccent" unicode="&#x218;" 
d="M337 -10q-114 0 -189.5 41.5t-127.5 112.5l95 75q40 -65 95 -95.5t124 -30.5q74 0 111.5 32t37.5 82q0 33 -16 53.5t-42.5 34t-61 21.5t-71.5 16q-42 9 -84 20.5t-75 33t-53.5 56t-20.5 89.5q0 43 18.5 81t52 66.5t79.5 45t101 16.5q94 0 159.5 -32.5t118.5 -92.5
l-90 -71q-16 22 -34 39.5t-40.5 30.5t-50 20t-63.5 7q-74 0 -106.5 -30.5t-32.5 -78.5q0 -28 15 -45.5t40 -29t57.5 -19t68.5 -14.5q43 -9 86.5 -21.5t78 -36t56.5 -61t22 -97.5q0 -42 -17 -81.5t-50 -69.5t-81 -48.5t-110 -18.5zM283 -241q32 20 48.5 42.5t16.5 49.5v6
q-2 -21 -14.5 -30t-29.5 -9q-24 0 -39 17t-15 40q0 32 20.5 51.5t52.5 19.5q39 0 59.5 -25.5t20.5 -63.5q0 -41 -25.5 -76t-63.5 -61z" />
    <glyph glyph-name="scommaaccent" unicode="&#x219;" horiz-adv-x="513" 
d="M257 -11q-86 0 -144.5 30t-93.5 89l97 55q25 -38 60 -59t86 -21q53 0 80 22.5t27 53.5q0 18 -11.5 29.5t-30.5 19t-43.5 13t-51.5 11.5q-34 7 -67.5 17.5t-60.5 28t-43.5 45t-16.5 68.5q0 31 14.5 60.5t41.5 52t65.5 35.5t86.5 13q76 0 129 -26.5t88 -74.5l-93 -53
q-20 30 -50 47t-74 17q-50 0 -74 -20t-24 -49q0 -32 34.5 -45t96.5 -26q34 -7 68 -17.5t61.5 -28.5t45 -46t17.5 -70q0 -30 -13.5 -60.5t-40.5 -55t-68.5 -40t-97.5 -15.5zM215 -246q32 20 48.5 42.5t16.5 49.5v6q-2 -21 -14.5 -30t-29.5 -9q-24 0 -39 17t-15 40
q0 32 20.5 51.5t52.5 19.5q39 0 59.5 -25.5t20.5 -63.5q0 -41 -25.5 -76t-63.5 -61z" />
    <glyph glyph-name="dotlessj" unicode="&#x237;" horiz-adv-x="233" 
d="M-56 -114q38 0 61 4t36 16.5t17 35t4 60.5v538h109v-539q0 -62 -10.5 -103.5t-35.5 -66.5t-65 -36t-100 -11h-16v102z" />
    <glyph glyph-name="circumflex" unicode="&#x2c6;" horiz-adv-x="505" 
d="M215 772h75l119 -166h-91l-66 94l-64 -94h-92z" />
    <glyph glyph-name="caron" unicode="&#x2c7;" horiz-adv-x="505" 
d="M95 771h92l64 -94l66 94h91l-119 -166h-75z" />
    <glyph glyph-name="breve" unicode="&#x2d8;" horiz-adv-x="505" 
d="M251 601q-41 0 -71.5 13t-50.5 35.5t-29.5 52.5t-9.5 65h76q0 -48 21.5 -73.5t63.5 -26.5q41 1 63 26.5t22 73.5h77q0 -35 -11.5 -65t-32.5 -52.5t-51 -35.5t-67 -13z" />
    <glyph glyph-name="dotaccent" unicode="&#x2d9;" horiz-adv-x="508" 
d="M172 670q0 32 20 52t52 20t52 -20t20 -52t-20 -52t-52 -20t-52 20t-20 52z" />
    <glyph glyph-name="ring" unicode="&#x2da;" horiz-adv-x="505" 
d="M250 607q-22 0 -41 8.5t-33.5 23t-23 34t-8.5 41.5q0 23 8.5 42.5t23 34t33.5 23t41 8.5q23 0 43 -8.5t34.5 -23t23 -34t8.5 -42.5q0 -22 -8.5 -41.5t-23 -34t-34.5 -23t-43 -8.5zM250 665q21 0 36 14.5t15 34.5t-15 35t-36 15q-20 0 -34 -16t-14 -36t14 -33.5t34 -13.5z
" />
    <glyph glyph-name="ogonek" unicode="&#x2db;" horiz-adv-x="505" 
d="M247 -221q-63 0 -101 30t-38 75q0 19 7 37.5t23.5 37.5t44.5 38.5t70 40.5l72 -38q-39 -25 -64 -41.5t-39 -28.5t-19 -22t-5 -20q0 -18 14.5 -26.5t34.5 -8.5q23 0 38 9.5t29 21.5l71 -48q-26 -23 -63.5 -40t-74.5 -17z" />
    <glyph glyph-name="tilde" unicode="&#x2dc;" horiz-adv-x="505" 
d="M79 606q0 58 27.5 93t74.5 35q25 0 43.5 -8t35.5 -18q15 -10 29 -18t28 -8q33 0 33 48h71q0 -59 -26 -93.5t-77 -34.5q-29 0 -50 10.5t-39 21.5q-13 8 -23.5 13.5t-24.5 5.5q-31 0 -31 -47h-71v0z" />
    <glyph glyph-name="hungarumlaut" unicode="&#x2dd;" horiz-adv-x="505" 
d="M178 771h108l-148 -166h-75zM333 771h108l-148 -166h-76z" />
    <glyph glyph-name="uni0328" unicode="&#x328;" horiz-adv-x="505" 
d="M275 -224q-30 0 -53.5 8.5t-40 23.5t-25 35t-8.5 42q-1 46 29.5 82.5t79.5 69.5l70 -37q-49 -34 -70.5 -61t-21.5 -47q0 -19 12 -29.5t31 -10.5q18 0 31.5 8.5t25.5 20.5l62 -55q-25 -22 -55.5 -36t-66.5 -14z" />
    <glyph glyph-name="pi" unicode="&#x3c0;" horiz-adv-x="786" 
d="M50 730h687v-104h-136v-423q0 -28 4 -46.5t13.5 -30t25.5 -16.5t41 -5h34v-105h-43q-54 0 -89.5 12t-56.5 37t-29.5 63.5t-8.5 92.5l1 421h-209v-626h-108v626h-126v104z" />
    <glyph glyph-name="pi" unicode="&#x3d6;" horiz-adv-x="786" 
d="M50 730h687v-104h-136v-423q0 -28 4 -46.5t13.5 -30t25.5 -16.5t41 -5h34v-105h-43q-54 0 -89.5 12t-56.5 37t-29.5 63.5t-8.5 92.5l1 421h-209v-626h-108v626h-126v104z" />
    <glyph glyph-name="uni0E3F" unicode="&#xe3f;" horiz-adv-x="528" 
d="M59 660h172v70h68v-71q85 -5 132 -47t47 -117q0 -42 -18.5 -72.5t-52.5 -50.5q37 -19 57 -52t20 -81q1 -81 -50 -125t-135 -49v-65h-68v64h-172v596zM166 160h65v160h-65v-160zM376 241q0 32 -18 52t-59 25v-157q36 5 56.5 26.5t20.5 53.5zM166 419h65v144h-65v-144z
M371 493q0 29 -18.5 47t-53.5 22v-142q36 4 54 23.5t18 49.5z" />
    <glyph glyph-name="Wgrave" unicode="&#x1e80;" horiz-adv-x="1046" 
d="M26 730h114l153 -564l180 564h100l177 -565l160 565h110l-215 -730h-106l-177 568l-181 -568h-109zM360 959h114l116 -166h-82z" />
    <glyph glyph-name="wgrave" unicode="&#x1e81;" horiz-adv-x="923" 
d="M24 540h111l126 -393l147 393h105l145 -393l130 393h111l-188 -540h-103l-149 396l-150 -396h-106zM297 769h114l116 -166h-82z" />
    <glyph glyph-name="Wacute" unicode="&#x1e82;" horiz-adv-x="1046" 
d="M26 730h114l153 -564l180 564h100l177 -565l160 565h110l-215 -730h-106l-177 568l-181 -568h-109zM577 959h114l-148 -166h-82z" />
    <glyph glyph-name="wacute" unicode="&#x1e83;" horiz-adv-x="923" 
d="M24 540h111l126 -393l147 393h105l145 -393l130 393h111l-188 -540h-103l-149 396l-150 -396h-106zM514 769h114l-148 -166h-82z" />
    <glyph glyph-name="Wdieresis" unicode="&#x1e84;" horiz-adv-x="1046" 
d="M26 730h114l153 -564l180 564h100l177 -565l160 565h110l-215 -730h-106l-177 568l-181 -568h-109zM346 857q0 30 19 49t49 19t49 -19t19 -49t-19 -49t-49 -19q-31 0 -49.5 19t-18.5 49zM553 857q0 30 19.5 49t48.5 19q30 0 49.5 -19t19.5 -49t-19.5 -49t-49.5 -19
t-49 19t-19 49z" />
    <glyph glyph-name="wdieresis" unicode="&#x1e85;" horiz-adv-x="923" 
d="M24 540h111l126 -393l147 393h105l145 -393l130 393h111l-188 -540h-103l-149 396l-150 -396h-106zM283 667q0 30 19 49t49 19t49 -19t19 -49t-19 -49t-49 -19q-31 0 -49.5 19t-18.5 49zM490 667q0 30 19.5 49t48.5 19q30 0 49.5 -19t19.5 -49t-19.5 -49t-49.5 -19
t-49 19t-19 49z" />
    <glyph glyph-name="Ygrave" unicode="&#x1ef2;" horiz-adv-x="661" 
d="M276 308l-258 422h122l191 -319l192 319h120l-259 -423v-307h-108v308zM159 940h114l116 -166h-82z" />
    <glyph glyph-name="ygrave" unicode="&#x1ef3;" horiz-adv-x="586" 
d="M112 -200q-38 0 -74.5 11.5t-62.5 31.5l64 91q14 -14 31.5 -22.5t40.5 -8.5q21 0 37.5 5t30.5 16.5t26.5 30.5t25.5 48l10 23l-222 514h116l162 -387l155 387h115l-241 -567q-20 -48 -41.5 -81t-47 -53.5t-56 -29.5t-69.5 -9zM132 761h114l116 -166h-82z" />
    <glyph glyph-name="figuredash" unicode="&#x2012;" horiz-adv-x="667" 
d="M54 299h560v-93h-560v93z" />
    <glyph glyph-name="endash" unicode="&#x2013;" horiz-adv-x="517" 
d="M54 299h410v-93h-410v93z" />
    <glyph glyph-name="emdash" unicode="&#x2014;" horiz-adv-x="717" 
d="M54 299h610v-93h-610v93z" />
    <glyph glyph-name="uni2015" unicode="&#x2015;" horiz-adv-x="1017" 
d="M54 299h910v-93h-910v93z" />
    <glyph glyph-name="doublebar" unicode="&#x2016;" horiz-adv-x="411" 
d="M59 730h108v-960h-108v960zM244 730h108v-960h-108v960z" />
    <glyph glyph-name="quoteleft" unicode="&#x2018;" horiz-adv-x="256" 
d="M197 693q-45 -32 -68.5 -62t-24.5 -65q4 19 16.5 27.5t30.5 8.5q28 0 44.5 -19t16.5 -45q0 -38 -23 -60t-59 -22q-42 0 -66 29t-24 71q0 54 33.5 99t86.5 80l37 -42v0z" />
    <glyph glyph-name="quoteright" unicode="&#x2019;" horiz-adv-x="256" 
d="M58 497q46 32 69.5 63t23.5 66q-4 -20 -16 -29t-30 -9q-28 0 -45 19t-17 45q0 38 23 60t59 22q42 0 66 -29t24 -71q0 -54 -33.5 -99t-86.5 -80z" />
    <glyph glyph-name="quotesinglbase" unicode="&#x201a;" horiz-adv-x="256" 
d="M55 -100q46 32 69.5 63t23.5 66v1q-7 -39 -47 -39q-28 0 -44.5 19t-16.5 45q0 38 23 60t59 22q42 0 66 -29t24 -71q0 -54 -33.5 -99t-86.5 -80z" />
    <glyph glyph-name="reversequoteleft" unicode="&#x201b;" horiz-adv-x="256" 
d="M159 455q-53 35 -86 77.5t-33 96.5q0 21 6.5 40t19 33.5t30 23t38.5 8.5q36 0 57.5 -21.5t21.5 -59.5q0 -26 -17 -45.5t-45 -19.5q-41 0 -47 42v-9q0 -35 23 -63.5t69 -60.5l-37 -42v0z" />
    <glyph glyph-name="quotedblleft" unicode="&#x201c;" horiz-adv-x="456" 
d="M197 693q-45 -31 -68.5 -61.5t-24.5 -64.5q9 32 45 32q27 0 43 -18.5t16 -42.5q0 -36 -21 -58.5t-57 -22.5q-42 0 -66 28.5t-24 70.5q0 54 33.5 99t86.5 80zM401 693q-45 -31 -68.5 -61.5t-24.5 -64.5q9 32 45 32q27 0 43 -18.5t16 -42.5q0 -36 -21 -58.5t-57 -22.5
q-42 0 -66 28.5t-24 70.5q0 54 33.5 99t86.5 80z" />
    <glyph glyph-name="quotedblright" unicode="&#x201d;" horiz-adv-x="456" 
d="M258 498q45 31 68 61t25 65q-5 -17 -16.5 -24.5t-28.5 -7.5q-27 0 -43 18.5t-16 42.5q0 36 21 58.5t57 22.5q42 0 66 -28.5t24 -70.5q0 -54 -33.5 -99t-86.5 -80zM54 498q45 31 68 61t25 65q-5 -17 -16.5 -24.5t-28.5 -7.5q-27 0 -43 18.5t-16 42.5q0 36 21 58.5t57 22.5
q42 0 66 -28.5t24 -70.5q0 -54 -33.5 -99t-86.5 -80z" />
    <glyph glyph-name="quotedblbase" unicode="&#x201e;" horiz-adv-x="456" 
d="M258 -99q45 31 68 61.5t25 64.5q-5 -17 -16.5 -24.5t-28.5 -7.5q-27 0 -43 18.5t-16 42.5q0 36 21 58.5t57 22.5q42 0 66 -28.5t24 -70.5q0 -54 -33.5 -99t-86.5 -80zM54 -99q45 31 68 61.5t25 64.5q-5 -17 -16.5 -24.5t-28.5 -7.5q-27 0 -43 18.5t-16 42.5q0 36 21 58.5
t57 22.5q42 0 66 -28.5t24 -70.5q0 -54 -33.5 -99t-86.5 -80z" />
    <glyph glyph-name="reversequotedblleft" unicode="&#x201f;" horiz-adv-x="456" 
d="M149 592q-37 0 -45 32q1 -35 23 -65t67 -61l-37 -42q-53 35 -85 80t-32 99q0 42 24 70.5t66 28.5q36 0 57 -22.5t21 -58.5q0 -24 -16 -42.5t-43 -18.5zM353 592q-37 0 -45 32q1 -35 23 -65t67 -61l-37 -42q-53 35 -85 80t-32 99q0 42 24 70.5t66 28.5q36 0 57 -22.5
t21 -58.5q0 -24 -16 -42.5t-43 -18.5z" />
    <glyph glyph-name="dagger" unicode="&#x2020;" horiz-adv-x="570" 
d="M59 500h171v230h109v-230h173v-96h-173v-404h-109v404h-171v96z" />
    <glyph glyph-name="daggerdbl" unicode="&#x2021;" horiz-adv-x="570" 
d="M59 542h171v188h109v-188h173v-95h-173v-155h173v-95h-173v-197h-109v197h-171v95h171v155h-171v95z" />
    <glyph glyph-name="bullet" unicode="&#x2022;" horiz-adv-x="387" 
d="M194 160q-19 0 -36 7.5t-29.5 20t-20 29.5t-7.5 36t7.5 36t20 29.5t29.5 20t36 7.5t36 -7.5t29.5 -20t20 -29.5t7.5 -36t-7.5 -36t-20 -29.5t-29.5 -20t-36 -7.5z" />
    <glyph glyph-name="ellipsis" unicode="&#x2026;" horiz-adv-x="615" 
d="M43 60q0 32 20 52t52 20t52 -20t20 -52t-20 -52t-52 -20t-52 20t-20 52zM235 60q0 32 20 52t52 20t52 -20t20 -52t-20 -52t-52 -20t-52 20t-20 52zM427 60q0 32 20 52t52 20t52 -20t20 -52t-20 -52t-52 -20t-52 20t-20 52z" />
    <glyph glyph-name="perthousand" unicode="&#x2030;" horiz-adv-x="1251" 
d="M678 730h137l-627 -730h-137zM639 -11q-36 0 -68 13.5t-55.5 37.5t-37 56t-13.5 68t13.5 67.5t37 55.5t55.5 37.5t68 13.5t67.5 -13.5t55.5 -37.5t37.5 -55.5t13.5 -67.5t-13.5 -68t-37.5 -56t-55.5 -37.5t-67.5 -13.5zM639 80q17 0 32 6.5t26 18t17.5 26.5t6.5 33
q0 35 -24 59t-58 24t-58 -24t-24 -59q0 -18 6.5 -33t17.5 -26.5t26 -18t32 -6.5zM227 392q-36 0 -67.5 13.5t-55.5 37.5t-37.5 55.5t-13.5 67.5t13.5 68t37.5 55.5t55.5 37t67.5 13.5t67.5 -13.5t55.5 -37t37.5 -55.5t13.5 -68t-13.5 -67.5t-37.5 -55.5t-55.5 -37.5
t-67.5 -13.5zM227 482q34 0 58 24.5t24 59.5q0 18 -6.5 33t-17.5 26.5t-26 18t-32 6.5t-32 -6.5t-26 -18t-17.5 -26.5t-6.5 -33q0 -35 24 -59.5t58 -24.5zM1024 -11q-36 0 -67.5 13.5t-55.5 37.5t-37.5 56t-13.5 68t13.5 67.5t37.5 55.5t55.5 37.5t67.5 13.5t68 -13.5
t56 -37.5t37.5 -55.5t13.5 -67.5t-13.5 -68t-37.5 -56t-56 -37.5t-68 -13.5zM1024 80q17 0 32 6.5t26.5 18t18 26.5t6.5 33q0 35 -24.5 59t-58.5 24t-58 -24t-24 -59q0 -18 6.5 -33t17.5 -26.5t26 -18t32 -6.5z" />
    <glyph glyph-name="minute" unicode="&#x2032;" horiz-adv-x="224" 
d="M45 526l38 204h98l-68 -204h-68z" />
    <glyph glyph-name="second" unicode="&#x2033;" horiz-adv-x="365" 
d="M224 730h98l-67 -204h-69zM83 730h98l-68 -204h-68z" />
    <glyph glyph-name="tripleprime" unicode="&#x2034;" horiz-adv-x="465" 
d="M85 500q-3 9 -8 27.5t-9.5 40t-7.5 42.5t-3 36v84h88v-84q0 -15 -3.5 -36t-8 -42.5t-9.5 -40t-8 -27.5h-31zM217 500q-3 9 -8 27.5t-9.5 40t-7.5 42.5t-3 36v84h88v-84q0 -15 -3.5 -36t-8 -42.5t-9.5 -40t-8 -27.5h-31zM349 500q-3 9 -8 27.5t-9.5 40t-7.5 42.5t-3 36v84
h88v-84q0 -15 -3.5 -36t-8 -42.5t-9.5 -40t-8 -27.5h-31z" />
    <glyph glyph-name="guilsinglleft" unicode="&#x2039;" horiz-adv-x="303" 
d="M71 219v68l162 119v-83l-98 -70l98 -70v-83z" />
    <glyph glyph-name="guilsinglright" unicode="&#x203a;" horiz-adv-x="303" 
d="M71 183l99 70l-99 71v83l162 -119v-68l-162 -119v82z" />
    <glyph glyph-name="interrobang" unicode="&#x203d;" horiz-adv-x="551" 
d="M227 209q-2 41 -3 90.5t-2.5 102.5t-2 107t-0.5 104v28q-32 -10 -52 -32.5t-32 -51.5l-99 37q23 63 82 104.5t148 41.5q51 0 93.5 -14t73.5 -40t48 -62.5t17 -80.5q0 -47 -14 -75.5t-35.5 -47t-46.5 -33t-46.5 -34.5t-35.5 -51t-14 -83v-10h-79zM270 -17q-34 0 -55.5 22
t-21.5 55t21.5 55t55.5 22t55 -22t21 -55t-21.5 -55t-54.5 -22zM389 544q0 33 -19.5 59t-54.5 37v-27q0 -47 -1.5 -95.5t-4.5 -96.5q14 13 28.5 24t26 24t18.5 30.5t7 44.5z" />
    <glyph glyph-name="fraction" unicode="&#x2044;" horiz-adv-x="788" 
d="M596 730h125l-527 -730h-125z" />
    <glyph glyph-name="uni2070" unicode="&#x2070;" horiz-adv-x="421" 
d="M210 393q42 0 59.5 29.5t17.5 87.5v23q0 58 -17 85.5t-59 27.5t-59.5 -28.5t-17.5 -84.5v-23q0 -59 17 -88t59 -29zM211 302q-38 0 -69.5 11.5t-54.5 36t-36 64t-13 96.5v23q0 54 13.5 92.5t36.5 63t55 36t68 11.5q38 0 70 -12t54.5 -37t35 -63.5t12.5 -90.5v-23
q0 -57 -13.5 -96.5t-37 -64.5t-54.5 -36t-67 -11z" />
    <glyph glyph-name="uni2074" unicode="&#x2074;" horiz-adv-x="391" 
d="M209 398h-176v83l174 249h90v-251h61v-81h-61v-90h-88v90zM209 479v113l-79 -113h79z" />
    <glyph glyph-name="uni2075" unicode="&#x2075;" horiz-adv-x="351" 
d="M174 302q-53 0 -91 22.5t-57 56.5l87 48q8 -17 23 -28.5t38 -11.5q24 0 40.5 15.5t16.5 41.5t-16.5 42t-41.5 16q-21 0 -36 -10.5t-23 -26.5l-83 33l31 230h237v-85h-165l-11 -80q11 10 27 16t42 6q27 0 50.5 -9t41.5 -27t28.5 -44.5t10.5 -60.5q0 -32 -11 -58.5
t-31 -45.5t-47.5 -29.5t-59.5 -10.5z" />
    <glyph glyph-name="uni2076" unicode="&#x2076;" horiz-adv-x="375" 
d="M195 298q-76 0 -121 51q-20 24 -32 58t-12 92q0 54 15 98t42.5 75t67 47.5t88.5 16.5q29 0 51.5 -4t39.5 -11l-38 -81q-11 5 -27.5 8t-37.5 3q-51 0 -82.5 -35t-35.5 -95q11 32 35.5 50.5t65.5 18.5q60 0 97.5 -40t37.5 -105q0 -32 -11.5 -58.5t-32 -46.5t-49 -31
t-61.5 -11zM196 381q28 0 46.5 17.5t18.5 46.5t-18.5 47.5t-46.5 18.5q-27 0 -46 -18.5t-19 -48.5q0 -28 19 -45.5t46 -17.5z" />
    <glyph glyph-name="uni2077" unicode="&#x2077;" horiz-adv-x="340" 
d="M214 644h-186v86h282v-80l-149 -342h-99z" />
    <glyph glyph-name="uni2078" unicode="&#x2078;" horiz-adv-x="388" 
d="M190 298q-76 0 -116 34.5t-40 96.5q0 34 15.5 58.5t41.5 40.5q-19 14 -30.5 34.5t-11.5 46.5q0 60 41 93.5t106 33.5q63 0 104 -33.5t41 -93.5q0 -27 -10.5 -47.5t-29.5 -34.5q25 -16 39 -40t14 -59q0 -62 -44.5 -96t-119.5 -34zM195 384q33 0 49 15t16 36t-16 36.5
t-48 15.5t-48.5 -15.5t-16.5 -36.5t15.5 -36t48.5 -15zM195 562q29 0 42.5 12.5t13.5 33.5q0 20 -13 33t-42 13q-28 0 -42.5 -13t-14.5 -33t13 -33t43 -13z" />
    <glyph glyph-name="uni2079" unicode="&#x2079;" horiz-adv-x="381" 
d="M158 298q-44 0 -73.5 9t-50.5 25l53 76q28 -25 71 -25q50 0 75.5 27.5t30.5 82.5q-13 -26 -36.5 -40.5t-59.5 -14.5q-63 0 -101.5 40t-38.5 106q0 33 12 61t33 48t50 31.5t64 11.5q38 0 68.5 -12.5t53.5 -40.5q21 -24 31 -59t10 -95q0 -112 -48.5 -171.5t-143.5 -59.5z
M185 517q28 0 47.5 18.5t19.5 49.5q0 29 -19.5 47.5t-47.5 18.5q-29 0 -48 -18.5t-19 -48.5t19 -48.5t48 -18.5z" />
    <glyph glyph-name="uni207A" unicode="&#x207a;" horiz-adv-x="283" 
d="M35 557h70v68h74v-68h69v-76h-69v-69h-74v69h-70v76z" />
    <glyph glyph-name="uni207B" unicode="&#x207b;" horiz-adv-x="283" 
d="M35 557h213v-76h-213v76z" />
    <glyph glyph-name="uni207C" unicode="&#x207c;" horiz-adv-x="280" 
d="M34 604h213v-73h-213v73zM34 505h213v-74h-213v74z" />
    <glyph glyph-name="uni207D" unicode="&#x207d;" horiz-adv-x="288" 
d="M187 231q-74 54 -113 125t-39 166q0 96 40 166t111 124l57 -75q-54 -39 -84.5 -91.5t-30.5 -123.5q0 -70 31 -122.5t85 -92.5l-57 -76v0z" />
    <glyph glyph-name="uni207E" unicode="&#x207e;" horiz-adv-x="288" 
d="M45 307q54 40 84.5 92.5t30.5 122.5q0 71 -30.5 123.5t-84.5 91.5l58 75q71 -54 111 -124t40 -166q0 -95 -39.5 -166t-112.5 -125z" />
    <glyph glyph-name="uni2080" unicode="&#x2080;" horiz-adv-x="421" 
d="M210 85q42 0 59.5 29.5t17.5 87.5v23q0 58 -17 85.5t-59 27.5t-59.5 -28.5t-17.5 -84.5v-23q0 -59 17 -88t59 -29zM211 -6q-38 0 -69.5 11.5t-54.5 36t-36 64t-13 96.5v23q0 54 13.5 92.5t36.5 63t55 36t68 11.5q38 0 70 -12t54.5 -37t35 -63.5t12.5 -90.5v-23
q0 -57 -13.5 -96.5t-37 -64.5t-54.5 -36t-67 -11z" />
    <glyph glyph-name="uni2081" unicode="&#x2081;" horiz-adv-x="243" 
d="M102 0v292q-8 -24 -30 -37.5t-48 -13.5h-6v91h3q45 0 63.5 24.5t18.5 65.5h89v-422h-90z" />
    <glyph glyph-name="uni2082" unicode="&#x2082;" horiz-adv-x="354" 
d="M34 75q0 29 10 52t26.5 41t37 32.5t40.5 26.5q32 20 55.5 37.5t23.5 40.5q0 18 -13 30.5t-39 12.5t-43 -17t-27 -40l-79 41q20 45 58 70.5t92 25.5q33 0 60 -9.5t46 -26t29.5 -39t10.5 -48.5q0 -28 -10.5 -49.5t-26.5 -38.5t-36.5 -30.5t-39.5 -25.5q-30 -18 -53 -35
t-25 -39h190v-87h-287v75z" />
    <glyph glyph-name="uni2083" unicode="&#x2083;" horiz-adv-x="355" 
d="M169 -6q-98 0 -153 64l73 61q16 -20 34.5 -30.5t44.5 -10.5q25 0 44 13t19 36t-19.5 35t-49.5 12h-43v83h42q30 0 46 13.5t16 33.5t-15.5 32t-46.5 12q-23 0 -38.5 -10.5t-28.5 -28.5l-75 52q24 29 60.5 48t83.5 19q72 0 113 -32.5t41 -88.5q0 -28 -12.5 -50t-35.5 -37
q27 -15 42.5 -38.5t15.5 -56.5q0 -28 -11 -52t-31.5 -41.5t-50 -27.5t-65.5 -10z" />
    <glyph glyph-name="uni2084" unicode="&#x2084;" horiz-adv-x="391" 
d="M209 90h-176v83l174 249h90v-251h61v-81h-61v-90h-88v90zM209 171v113l-79 -113h79z" />
    <glyph glyph-name="uni2085" unicode="&#x2085;" horiz-adv-x="351" 
d="M174 -6q-53 0 -91 22.5t-57 56.5l87 48q8 -17 23 -28.5t38 -11.5q24 0 40.5 15.5t16.5 41.5t-16.5 42t-41.5 16q-21 0 -36 -10.5t-23 -26.5l-83 33l31 230h237v-85h-165l-11 -80q11 10 27 16t42 6q27 0 50.5 -9t41.5 -27t28.5 -44.5t10.5 -60.5q0 -32 -11 -58.5
t-31 -45.5t-47.5 -29.5t-59.5 -10.5z" />
    <glyph glyph-name="uni2086" unicode="&#x2086;" horiz-adv-x="375" 
d="M195 -10q-76 0 -121 51q-20 24 -32 58t-12 92q0 54 15 98t42.5 75t67 47.5t88.5 16.5q29 0 51.5 -4t39.5 -11l-38 -81q-11 5 -27.5 8t-37.5 3q-51 0 -82.5 -35t-35.5 -95q11 32 35.5 50.5t65.5 18.5q60 0 97.5 -40t37.5 -105q0 -32 -11.5 -58.5t-32 -46.5t-49 -31
t-61.5 -11zM196 73q28 0 46.5 17.5t18.5 46.5t-18.5 47.5t-46.5 18.5q-27 0 -46 -18.5t-19 -48.5q0 -28 19 -45.5t46 -17.5z" />
    <glyph glyph-name="uni2087" unicode="&#x2087;" horiz-adv-x="340" 
d="M214 336h-186v86h282v-80l-149 -342h-99z" />
    <glyph glyph-name="uni2088" unicode="&#x2088;" horiz-adv-x="388" 
d="M190 -10q-76 0 -116 34.5t-40 96.5q0 34 15.5 58.5t41.5 40.5q-19 14 -30.5 34.5t-11.5 46.5q0 60 41 93.5t106 33.5q63 0 104 -33.5t41 -93.5q0 -27 -10.5 -47.5t-29.5 -34.5q25 -16 39 -40t14 -59q0 -62 -44.5 -96t-119.5 -34zM195 76q33 0 49 15t16 36t-16 36.5
t-48 15.5t-48.5 -15.5t-16.5 -36.5t15.5 -36t48.5 -15zM195 254q29 0 42.5 12.5t13.5 33.5q0 20 -13 33t-42 13q-28 0 -42.5 -13t-14.5 -33t13 -33t43 -13z" />
    <glyph glyph-name="uni2089" unicode="&#x2089;" horiz-adv-x="381" 
d="M158 -10q-44 0 -73.5 9t-50.5 25l53 76q28 -25 71 -25q50 0 75.5 27.5t30.5 82.5q-13 -26 -36.5 -40.5t-59.5 -14.5q-63 0 -101.5 40t-38.5 106q0 33 12 61t33 48t50 31.5t64 11.5q38 0 68.5 -12.5t53.5 -40.5q21 -24 31 -59t10 -95q0 -112 -48.5 -171.5t-143.5 -59.5z
M185 209q28 0 47.5 18.5t19.5 49.5q0 29 -19.5 47.5t-47.5 18.5q-29 0 -48 -18.5t-19 -48.5t19 -48.5t48 -18.5z" />
    <glyph glyph-name="uni208A" unicode="&#x208a;" horiz-adv-x="283" 
d="M35 249h70v68h74v-68h69v-76h-69v-69h-74v69h-70v76z" />
    <glyph glyph-name="uni208B" unicode="&#x208b;" horiz-adv-x="283" 
d="M35 249h213v-76h-213v76z" />
    <glyph glyph-name="uni208C" unicode="&#x208c;" horiz-adv-x="280" 
d="M34 296h213v-73h-213v73zM34 197h213v-74h-213v74z" />
    <glyph glyph-name="uni208D" unicode="&#x208d;" horiz-adv-x="288" 
d="M187 -77q-74 54 -113 125t-39 166q0 96 40 166t111 124l57 -75q-54 -39 -84.5 -91.5t-30.5 -123.5q0 -70 31 -122.5t85 -92.5l-57 -76v0z" />
    <glyph glyph-name="uni208E" unicode="&#x208e;" horiz-adv-x="288" 
d="M45 -1q54 40 84.5 92.5t30.5 122.5q0 71 -30.5 123.5t-84.5 91.5l58 75q71 -54 111 -124t40 -166q0 -95 -39.5 -166t-112.5 -125z" />
    <glyph glyph-name="uni20A1" unicode="&#x20a1;" horiz-adv-x="780" 
d="M110 -120l77 188q-66 51 -104 128.5t-38 168.5q0 80 29 148.5t80 119t119.5 79t146.5 28.5q11 0 20.5 -0.5t20.5 -1.5l42 102h71l-48 -116q28 -8 52 -19l55 135h71l-69 -168q66 -46 107 -116l-94 -59q-11 20 -25 38.5t-31 33.5l-194 -472h20q83 0 141.5 39.5t90.5 102.5
l97 -54q-24 -44 -57.5 -79.5t-75 -61.5t-90.5 -40t-104 -14q-17 0 -32.5 1.5t-31.5 3.5l-47 -115h-70l53 130q-24 9 -50 23l-63 -153h-69zM154 365q0 -57 20.5 -105.5t55.5 -85.5l189 461q-57 0 -105.5 -21.5t-84 -58t-55.5 -85.5t-20 -105zM283 133q12 -7 24 -12.5
t26 -10.5l204 497q-12 7 -24.5 11.5t-26.5 8.5z" />
    <glyph glyph-name="uni20A2" unicode="&#x20a2;" horiz-adv-x="780" 
d="M420 -10q-81 0 -150 29.5t-119 80.5t-78 119t-28 146q0 80 29 148.5t80 119t119.5 79t146.5 28.5q52 0 99.5 -13.5t89 -37.5t75.5 -58t58 -75l-94 -59q-35 63 -92.5 100.5t-135.5 37.5q-57 0 -105.5 -21t-84.5 -57.5t-56 -86t-20 -105.5q0 -47 14 -88.5t39.5 -75.5
t61 -58.5t78.5 -36.5v320h107v-77q20 37 54 57t84 20h46v-103h-62q-66 0 -93.5 -35.5t-27.5 -114.5v-74q71 9 121 48.5t79 98.5l97 -53q-24 -46 -58 -83.5t-76.5 -64t-92.5 -41t-105 -14.5z" />
    <glyph glyph-name="franc" unicode="&#x20a3;" horiz-adv-x="529" 
d="M59 730h413v-103h-305v-134h305v-95h-305v-77h305v-95h-305v-226h-108v730z" />
    <glyph glyph-name="lira" unicode="&#x20a4;" horiz-adv-x="713" 
d="M89 489h79q-3 21 -3 44q0 46 16 84t45 65.5t69.5 42.5t89.5 15q84 0 137.5 -33t80.5 -89l-97 -48q-17 37 -46 56.5t-75 19.5q-53 0 -84.5 -31.5t-31.5 -79.5q0 -12 1 -23.5t3 -22.5h218v-81h-192q6 -16 13 -31t15 -30h164v-81h-133q5 -20 8.5 -40.5t3.5 -43.5
q0 -17 -2.5 -32.5t-7.5 -30.5q26 -17 50.5 -29.5t53.5 -12.5q45 0 64.5 23.5t19.5 80.5v34h111v-48q0 -84 -40.5 -130.5t-132.5 -46.5q-52 0 -91 18.5t-71 42.5q-24 -29 -58 -45.5t-74 -16.5q-68 0 -102 28.5t-34 78.5q0 47 34 77.5t88 30.5q34 0 62 -11t54 -27q1 4 1 13
q0 23 -6 44.5t-16 42.5h-184v81h138q-9 14 -17.5 29t-16.5 32h-104v81zM191 61q23 0 42 9t33 25q-21 15 -41 25t-42 10q-21 0 -31 -9.5t-10 -24.5q0 -16 13 -25.5t36 -9.5z" />
    <glyph glyph-name="uni20A6" unicode="&#x20a6;" horiz-adv-x="836" 
d="M43 458h85v272h116l171 -272h185v272h109v-272h85v-64h-85v-53h85v-64h-85v-277h-109l-175 277h-189v-277h-108v277h-85v64h85v53h-85v64zM236 341h148l-33 53h-115v-53zM489 341h111v53h-144zM236 576v-118h74zM600 166v111h-70z" />
    <glyph glyph-name="peseta" unicode="&#x20a7;" horiz-adv-x="1361" 
d="M831 0q-57 0 -95.5 10t-61 33.5t-32 62.5t-9.5 98v200h-80q-11 -41 -34 -75t-56 -58.5t-75 -38.5t-90 -14h-131v-218h-108v730h239q54 0 100.5 -17.5t81 -48.5t55.5 -73t26 -91h72v118l107 59v-177h111v-96h-111v-199q0 -34 4 -54.5t15 -31.5t32 -14.5t55 -3.5h231
q45 0 68 16t23 42q0 15 -9.5 24.5t-25.5 15.5t-37 10t-44 8q-30 5 -61.5 13t-57 23t-42 40t-16.5 65q0 31 13.5 59t38 49t60 33t79.5 12q72 0 123 -26t81 -71l-89 -49q-18 26 -46.5 41.5t-66.5 15.5q-43 0 -64 -17t-21 -41q0 -15 9.5 -24t26 -15t38 -10.5t45.5 -8.5
q30 -6 61 -14.5t56 -24t41 -41t16 -65.5q0 -31 -10 -60t-34 -51.5t-63 -36t-97 -13.5h-241zM167 630v-311h124q37 0 67 12t51 33t32.5 49t11.5 61t-11.5 61.5t-32.5 49.5t-51 33t-67 12h-124z" />
    <glyph glyph-name="uni20A8" unicode="&#x20a8;" horiz-adv-x="1006" 
d="M740 -6q-78 0 -148.5 19t-136 61t-126 109.5t-118.5 164.5h63q41 0 71 13t50 34t30 46.5t10 50.5q0 62 -40 99.5t-121 37.5h-107v-629h-108v730h226q58 0 106 -18.5t82 -50.5t52.5 -75.5t18.5 -93.5q0 -36 -10 -70t-29.5 -63t-48 -51.5t-66.5 -34.5q72 -94 157.5 -137.5
t196.5 -43.5q58 0 84 18.5t26 44.5q0 15 -9.5 25t-26 16t-38 10t-45.5 9q-30 6 -61.5 14.5t-56.5 24t-41 40.5t-16 64q0 31 13.5 59t38 49t60 33t79.5 12q72 0 123 -26t81 -71l-89 -49q-18 26 -46.5 41.5t-66.5 15.5q-43 0 -64 -17t-21 -41q0 -15 9.5 -24t26 -15.5t38 -11
t45.5 -9.5q30 -6 61 -14.5t56 -24.5t41 -42t16 -66q0 -30 -11 -59t-36.5 -52.5t-68 -37.5t-105.5 -14z" />
    <glyph glyph-name="uni20A9" unicode="&#x20a9;" horiz-adv-x="1109" 
d="M40 458h94l-78 272h114l75 -272h175l86 272h101l85 -272h176l78 272h110l-80 -272h93v-64h-112l-16 -53h128v-64h-147l-81 -277h-108l-86 277h-183l-87 -277h-111l-80 277h-146v64h128l-16 53h-112v64zM484 341h143l-17 53h-110zM728 341h107l15 53h-138zM278 341h105
l17 53h-137zM785 161l32 116h-69zM520 458h70l-35 111zM327 163l36 114h-67z" />
    <glyph glyph-name="uni20AA" unicode="&#x20aa;" horiz-adv-x="782" 
d="M59 730h208q139 0 205 -67t66 -206v-191q0 -28 -4.5 -47.5t-17 -31.5t-33.5 -17t-53 -5v292q0 47 -8 80t-27.5 53.5t-51.5 29.5t-81 9h-95v-629h-108v730zM244 560q33 0 54 -4.5t33 -15.5t16.5 -30.5t4.5 -49.5v-359h97q48 0 80 9.5t51 30t27 53t8 79.5v457h108v-457
q0 -139 -65 -206t-204 -67h-210v560z" />
    <glyph glyph-name="Euro" unicode="&#x20ac;" horiz-adv-x="858" 
d="M40 512h99q21 51 55.5 93t79.5 72t99 46.5t114 16.5q94 0 169.5 -38.5t126.5 -104.5l-82 -69q-33 51 -89.5 79.5t-125.5 28.5q-73 0 -131.5 -33.5t-92.5 -90.5h338l-24 -89h-347q-8 -30 -8 -58q0 -29 8 -58h316l-24 -88h-259q34 -57 92 -90.5t131 -33.5q79 0 133.5 33.5
t88.5 92.5l92 -58q-51 -80 -128 -126.5t-182 -46.5q-61 0 -115.5 17t-100 47.5t-79.5 72.5t-55 92h-99v88h75q-2 14 -3 28.5t-1 29.5t1 29.5t3 28.5h-75v89z" />
    <glyph glyph-name="uni20AE" unicode="&#x20ae;" horiz-adv-x="625" 
d="M135 388l124 51v189h-207v102h522v-102h-207v-145l121 50v-68l-121 -50v-70l121 50v-68l-121 -50v-277h-108v233l-124 -51v68l124 51v70l-124 -51v68z" />
    <glyph glyph-name="uni20B1" unicode="&#x20b1;" horiz-adv-x="741" 
d="M45 565h79v165h239q45 0 84.5 -12t71.5 -34t55.5 -52.5t37.5 -66.5h89v-64h-75q1 -7 1.5 -13.5t0.5 -13.5t-0.5 -13.5t-1.5 -12.5h75v-64h-89q-13 -37 -36.5 -67.5t-56 -52.5t-72 -34t-84.5 -12h-131v-218h-108v384h-79v64h79v53h-79v64zM518 474q0 7 -0.5 13.5
t-1.5 13.5h-284v-53h284q1 6 1.5 12.5t0.5 13.5zM356 319q45 0 79.5 17.5t55.5 47.5h-259v-65h124zM232 630v-65h259q-21 29 -55.5 47t-79.5 18h-124z" />
    <glyph glyph-name="published" unicode="&#x2117;" horiz-adv-x="837" 
d="M419 -68q-78 0 -146 29.5t-118.5 80.5t-80 119.5t-29.5 146.5t29.5 146t80 119t118.5 80.5t146 29.5t146 -29.5t118.5 -80.5t80 -119t29.5 -146t-29.5 -146.5t-80 -119.5t-118.5 -80.5t-146 -29.5zM419 20q60 0 111.5 23t89.5 62t60 91.5t22 111.5t-22 111.5t-60 91.5
t-89.5 61.5t-111.5 22.5t-112 -22.5t-89.5 -61.5t-59 -91.5t-21.5 -111.5t21.5 -111.5t59 -91.5t89.5 -62t112 -23zM282 500h175q31 0 57 -11t45.5 -30.5t30.5 -45t11 -55.5t-10 -56.5t-28.5 -46.5t-45 -31.5t-58.5 -11.5h-83v-97h-94v385zM376 421v-129h67q29 0 46.5 20
t17.5 46t-18 44.5t-46 18.5h-67z" />
    <glyph glyph-name="servicemark" unicode="&#x2120;" horiz-adv-x="659" 
d="M285 730h73l87 -115l92 115h67v-290h-77v167l-83 -98l-82 98v-167h-77v290zM144 433q-77 0 -114 54l67 45q8 -14 20 -22.5t27 -8.5q13 0 21 7.5t8 18.5q0 15 -20.5 21t-45.5 15t-45.5 27t-20.5 58q0 38 29 61.5t74 23.5q34 0 59 -13.5t42 -34.5l-63 -40q-14 24 -39 24
q-14 0 -21 -6t-7 -14q0 -12 21 -18t46 -15.5t46 -28.5t21 -56q0 -43 -28.5 -70.5t-76.5 -27.5z" />
    <glyph glyph-name="trademark" unicode="&#x2122;" horiz-adv-x="686" 
d="M312 730h73l87 -115l92 115h67v-290h-77v167l-83 -98l-82 98v-167h-77v290zM125 659h-82v71h239v-71h-80v-219h-77v219z" />
    <glyph glyph-name="uni2153" unicode="&#x2153;" horiz-adv-x="887" 
d="M671 -6q-98 0 -153 64l73 61q16 -20 34.5 -30.5t44.5 -10.5q25 0 44 13t19 36t-19.5 35t-49.5 12h-43v83h42q30 0 46 13.5t16 33.5t-15.5 32t-46.5 12q-23 0 -38.5 -10.5t-28.5 -28.5l-75 52q24 29 60.5 48t83.5 19q72 0 113 -32.5t41 -88.5q0 -28 -12.5 -50t-35.5 -37
q27 -15 42.5 -38.5t15.5 -56.5q0 -28 -11 -52t-31.5 -41.5t-50 -27.5t-65.5 -10zM596 730h125l-527 -730h-125zM142 308v292q-8 -24 -30 -37.5t-48 -13.5h-6v91h3q45 0 63.5 24.5t18.5 65.5h89v-422h-90z" />
    <glyph glyph-name="uni2154" unicode="&#x2154;" horiz-adv-x="1000" 
d="M784 -6q-98 0 -153 64l73 61q16 -20 34.5 -30.5t44.5 -10.5q25 0 44 13t19 36t-19.5 35t-49.5 12h-43v83h42q30 0 46 13.5t16 33.5t-15.5 32t-46.5 12q-23 0 -38.5 -10.5t-28.5 -28.5l-75 52q24 29 60.5 48t83.5 19q72 0 113 -32.5t41 -88.5q0 -28 -12.5 -50t-35.5 -37
q27 -15 42.5 -38.5t15.5 -56.5q0 -28 -11 -52t-31.5 -41.5t-50 -27.5t-65.5 -10zM74 383q0 29 10 52t26.5 41t37 32.5t40.5 26.5q32 20 55.5 37.5t23.5 40.5q0 18 -13 30.5t-39 12.5t-43 -17t-27 -40l-79 41q20 45 58 70.5t92 25.5q33 0 60 -9.5t46 -26t29.5 -39t10.5 -48.5
q0 -28 -10.5 -49.5t-26.5 -38.5t-36.5 -30.5t-39.5 -25.5q-30 -18 -53 -35t-25 -39h190v-87h-287v75zM715 730h125l-527 -730h-125z" />
    <glyph glyph-name="uni2155" unicode="&#x2155;" horiz-adv-x="882" 
d="M675 -6q-53 0 -91 22.5t-57 56.5l87 48q8 -17 23 -28.5t38 -11.5q24 0 40.5 15.5t16.5 41.5t-16.5 42t-41.5 16q-21 0 -36 -10.5t-23 -26.5l-83 33l31 230h237v-85h-165l-11 -80q11 10 27 16t42 6q27 0 50.5 -9t41.5 -27t28.5 -44.5t10.5 -60.5q0 -32 -11 -58.5
t-31 -45.5t-47.5 -29.5t-59.5 -10.5zM596 730h125l-527 -730h-125zM142 308v292q-8 -24 -30 -37.5t-48 -13.5h-6v91h3q45 0 63.5 24.5t18.5 65.5h89v-422h-90z" />
    <glyph glyph-name="uni2156" unicode="&#x2156;" horiz-adv-x="1001" 
d="M74 383q0 29 10 52t26.5 41t37 32.5t40.5 26.5q32 20 55.5 37.5t23.5 40.5q0 18 -13 30.5t-39 12.5t-43 -17t-27 -40l-79 41q20 45 58 70.5t92 25.5q33 0 60 -9.5t46 -26t29.5 -39t10.5 -48.5q0 -28 -10.5 -49.5t-26.5 -38.5t-36.5 -30.5t-39.5 -25.5q-30 -18 -53 -35
t-25 -39h190v-87h-287v75zM794 -6q-53 0 -91 22.5t-57 56.5l87 48q8 -17 23 -28.5t38 -11.5q24 0 40.5 15.5t16.5 41.5t-16.5 42t-41.5 16q-21 0 -36 -10.5t-23 -26.5l-83 33l31 230h237v-85h-165l-11 -80q11 10 27 16t42 6q27 0 50.5 -9t41.5 -27t28.5 -44.5t10.5 -60.5
q0 -32 -11 -58.5t-31 -45.5t-47.5 -29.5t-59.5 -10.5zM715 730h125l-527 -730h-125z" />
    <glyph glyph-name="uni2157" unicode="&#x2157;" horiz-adv-x="975" 
d="M199 302q-98 0 -153 64l73 61q16 -20 34.5 -30.5t44.5 -10.5q25 0 44 13t19 36t-19.5 35t-49.5 12h-43v83h42q30 0 46 13.5t16 33.5t-15.5 32t-46.5 12q-23 0 -38.5 -10.5t-28.5 -28.5l-75 52q24 29 60.5 48t83.5 19q72 0 113 -32.5t41 -88.5q0 -28 -12.5 -50t-35.5 -37
q27 -15 42.5 -38.5t15.5 -56.5q0 -28 -11 -52t-31.5 -41.5t-50 -27.5t-65.5 -10zM768 -6q-53 0 -91 22.5t-57 56.5l87 48q8 -17 23 -28.5t38 -11.5q24 0 40.5 15.5t16.5 41.5t-16.5 42t-41.5 16q-21 0 -36 -10.5t-23 -26.5l-83 33l31 230h237v-85h-165l-11 -80q11 10 27 16
t42 6q27 0 50.5 -9t41.5 -27t28.5 -44.5t10.5 -60.5q0 -32 -11 -58.5t-31 -45.5t-47.5 -29.5t-59.5 -10.5zM689 730h125l-527 -730h-125z" />
    <glyph glyph-name="uni2158" unicode="&#x2158;" horiz-adv-x="1008" 
d="M249 398h-176v83l174 249h90v-251h61v-81h-61v-90h-88v90zM249 479v113l-79 -113h79zM801 -6q-53 0 -91 22.5t-57 56.5l87 48q8 -17 23 -28.5t38 -11.5q24 0 40.5 15.5t16.5 41.5t-16.5 42t-41.5 16q-21 0 -36 -10.5t-23 -26.5l-83 33l31 230h237v-85h-165l-11 -80
q11 10 27 16t42 6q27 0 50.5 -9t41.5 -27t28.5 -44.5t10.5 -60.5q0 -32 -11 -58.5t-31 -45.5t-47.5 -29.5t-59.5 -10.5zM722 730h125l-527 -730h-125z" />
    <glyph glyph-name="uni2159" unicode="&#x2159;" horiz-adv-x="871" 
d="M651 -10q-76 0 -121 51q-20 24 -32 58t-12 92q0 54 15 98t42.5 75t67 47.5t88.5 16.5q29 0 51.5 -4t39.5 -11l-38 -81q-11 5 -27.5 8t-37.5 3q-51 0 -82.5 -35t-35.5 -95q11 32 35.5 50.5t65.5 18.5q60 0 97.5 -40t37.5 -105q0 -32 -11.5 -58.5t-32 -46.5t-49 -31
t-61.5 -11zM652 73q28 0 46.5 17.5t18.5 46.5t-18.5 47.5t-46.5 18.5q-27 0 -46 -18.5t-19 -48.5q0 -28 19 -45.5t46 -17.5zM596 730h125l-527 -730h-125zM142 308v292q-8 -24 -30 -37.5t-48 -13.5h-6v91h3q45 0 63.5 24.5t18.5 65.5h89v-422h-90z" />
    <glyph glyph-name="uni215A" unicode="&#x215a;" horiz-adv-x="960" 
d="M214 302q-53 0 -91 22.5t-57 56.5l87 48q8 -17 23 -28.5t38 -11.5q24 0 40.5 15.5t16.5 41.5t-16.5 42t-41.5 16q-21 0 -36 -10.5t-23 -26.5l-83 33l31 230h237v-85h-165l-11 -80q11 10 27 16t42 6q27 0 50.5 -9t41.5 -27t28.5 -44.5t10.5 -60.5q0 -32 -11 -58.5
t-31 -45.5t-47.5 -29.5t-59.5 -10.5zM740 -10q-76 0 -121 51q-20 24 -32 58t-12 92q0 54 15 98t42.5 75t67 47.5t88.5 16.5q29 0 51.5 -4t39.5 -11l-38 -81q-11 5 -27.5 8t-37.5 3q-51 0 -82.5 -35t-35.5 -95q11 32 35.5 50.5t65.5 18.5q60 0 97.5 -40t37.5 -105
q0 -32 -11.5 -58.5t-32 -46.5t-49 -31t-61.5 -11zM741 73q28 0 46.5 17.5t18.5 46.5t-18.5 47.5t-46.5 18.5q-27 0 -46 -18.5t-19 -48.5q0 -28 19 -45.5t46 -17.5zM685 730h125l-527 -730h-125z" />
    <glyph glyph-name="uni215B" unicode="&#x215b;" horiz-adv-x="907" 
d="M669 -10q-76 0 -116 34.5t-40 96.5q0 34 15.5 58.5t41.5 40.5q-19 14 -30.5 34.5t-11.5 46.5q0 60 41 93.5t106 33.5q63 0 104 -33.5t41 -93.5q0 -27 -10.5 -47.5t-29.5 -34.5q25 -16 39 -40t14 -59q0 -62 -44.5 -96t-119.5 -34zM674 76q33 0 49 15t16 36t-16 36.5
t-48 15.5t-48.5 -15.5t-16.5 -36.5t15.5 -36t48.5 -15zM674 254q29 0 42.5 12.5t13.5 33.5q0 20 -13 33t-42 13q-28 0 -42.5 -13t-14.5 -33t13 -33t43 -13zM596 730h125l-527 -730h-125zM142 308v292q-8 -24 -30 -37.5t-48 -13.5h-6v91h3q45 0 63.5 24.5t18.5 65.5h89v-422
h-90z" />
    <glyph glyph-name="uni215C" unicode="&#x215c;" horiz-adv-x="1000" 
d="M199 302q-98 0 -153 64l73 61q16 -20 34.5 -30.5t44.5 -10.5q25 0 44 13t19 36t-19.5 35t-49.5 12h-43v83h42q30 0 46 13.5t16 33.5t-15.5 32t-46.5 12q-23 0 -38.5 -10.5t-28.5 -28.5l-75 52q24 29 60.5 48t83.5 19q72 0 113 -32.5t41 -88.5q0 -28 -12.5 -50t-35.5 -37
q27 -15 42.5 -38.5t15.5 -56.5q0 -28 -11 -52t-31.5 -41.5t-50 -27.5t-65.5 -10zM762 -10q-76 0 -116 34.5t-40 96.5q0 34 15.5 58.5t41.5 40.5q-19 14 -30.5 34.5t-11.5 46.5q0 60 41 93.5t106 33.5q63 0 104 -33.5t41 -93.5q0 -27 -10.5 -47.5t-29.5 -34.5q25 -16 39 -40
t14 -59q0 -62 -44.5 -96t-119.5 -34zM767 76q33 0 49 15t16 36t-16 36.5t-48 15.5t-48.5 -15.5t-16.5 -36.5t15.5 -36t48.5 -15zM767 254q29 0 42.5 12.5t13.5 33.5q0 20 -13 33t-42 13q-28 0 -42.5 -13t-14.5 -33t13 -33t43 -13zM689 730h125l-527 -730h-125z" />
    <glyph glyph-name="uni215D" unicode="&#x215d;" horiz-adv-x="996" 
d="M214 302q-53 0 -91 22.5t-57 56.5l87 48q8 -17 23 -28.5t38 -11.5q24 0 40.5 15.5t16.5 41.5t-16.5 42t-41.5 16q-21 0 -36 -10.5t-23 -26.5l-83 33l31 230h237v-85h-165l-11 -80q11 10 27 16t42 6q27 0 50.5 -9t41.5 -27t28.5 -44.5t10.5 -60.5q0 -32 -11 -58.5
t-31 -45.5t-47.5 -29.5t-59.5 -10.5zM758 -10q-76 0 -116 34.5t-40 96.5q0 34 15.5 58.5t41.5 40.5q-19 14 -30.5 34.5t-11.5 46.5q0 60 41 93.5t106 33.5q63 0 104 -33.5t41 -93.5q0 -27 -10.5 -47.5t-29.5 -34.5q25 -16 39 -40t14 -59q0 -62 -44.5 -96t-119.5 -34zM763 76
q33 0 49 15t16 36t-16 36.5t-48 15.5t-48.5 -15.5t-16.5 -36.5t15.5 -36t48.5 -15zM763 254q29 0 42.5 12.5t13.5 33.5q0 20 -13 33t-42 13q-28 0 -42.5 -13t-14.5 -33t13 -33t43 -13zM685 730h125l-527 -730h-125z" />
    <glyph glyph-name="uni215E" unicode="&#x215e;" horiz-adv-x="912" 
d="M254 644h-186v86h282v-80l-149 -342h-99zM674 -10q-76 0 -116 34.5t-40 96.5q0 34 15.5 58.5t41.5 40.5q-19 14 -30.5 34.5t-11.5 46.5q0 60 41 93.5t106 33.5q63 0 104 -33.5t41 -93.5q0 -27 -10.5 -47.5t-29.5 -34.5q25 -16 39 -40t14 -59q0 -62 -44.5 -96t-119.5 -34z
M679 76q33 0 49 15t16 36t-16 36.5t-48 15.5t-48.5 -15.5t-16.5 -36.5t15.5 -36t48.5 -15zM679 254q29 0 42.5 12.5t13.5 33.5q0 20 -13 33t-42 13q-28 0 -42.5 -13t-14.5 -33t13 -33t43 -13zM601 730h125l-527 -730h-125z" />
    <glyph glyph-name="uni215F" unicode="&#x215f;" horiz-adv-x="788" 
d="M596 730h125l-527 -730h-125zM142 308v292q-8 -24 -30 -37.5t-48 -13.5h-6v91h3q45 0 63.5 24.5t18.5 65.5h89v-422h-90z" />
    <glyph glyph-name="arrowleft" unicode="&#x2190;" horiz-adv-x="916" 
d="M295 90q-18 36 -42 71.5t-52.5 68t-61.5 60.5t-67 49v52q34 22 67 52.5t61.5 65t50 69.5t33.5 65l95 -55q-23 -50 -62 -95t-79 -75h586v-104h-584q40 -28 79 -72t65 -91l-89 -61v0z" />
    <glyph glyph-name="arrowup" unicode="&#x2191;" horiz-adv-x="916" 
d="M396 575q-31 -39 -75.5 -77.5t-93.5 -61.5l-55 94q30 12 65 34t69.5 50t65 60.5t52.5 67.5h50q21 -35 52 -67.5t65 -60.5t69 -50t65 -34l-55 -94q-49 23 -94 61.5t-75 77.5v-575h-105v575z" />
    <glyph glyph-name="arrowright" unicode="&#x2192;" horiz-adv-x="916" 
d="M513 151q26 48 64.5 91.5t78.5 71.5h-584v104h585q-39 31 -77.5 75.5t-61.5 94.5l95 55q12 -30 33.5 -65t49.5 -69.5t60.5 -65.5t67.5 -52v-52q-34 -21 -66.5 -49t-61.5 -60.5t-53 -68t-42 -71.5z" />
    <glyph glyph-name="arrowdown" unicode="&#x2193;" horiz-adv-x="916" 
d="M423 -12q-21 34 -52 67t-65.5 61.5t-69 50t-64.5 33.5l54 95q49 -23 93 -61t75 -77v573h106v-575q31 39 75.5 78t94.5 62l54 -95q-30 -12 -64.5 -33.5t-69 -50t-65.5 -61.5t-52 -67h-50v0z" />
    <glyph glyph-name="uni2196" unicode="&#x2196;" horiz-adv-x="916" 
d="M268 478q6 -50 2 -109t-23 -110l-105 28q12 30 21.5 70t14 84t3 89t-10.5 85l35 35q39 -9 84 -11t89 2.5t84 14t70 22.5l28 -105q-51 -19 -109.5 -23.5t-108.5 1.5l414 -414l-74 -73z" />
    <glyph glyph-name="uni2197" unicode="&#x2197;" horiz-adv-x="916" 
d="M143 137l414 414q-50 -6 -109 -2t-110 23l29 105q30 -12 70 -21.5t84 -14t89 -3t84 10.5l36 -35q-9 -39 -11 -84t2.5 -89t14 -84t21.5 -70l-105 -28q-19 51 -23 109.5t2 108.5l-414 -414z" />
    <glyph glyph-name="uni2198" unicode="&#x2198;" horiz-adv-x="916" 
d="M709 103q-39 9 -84 11t-89 -2.5t-84 -14t-70 -21.5l-28 105q51 19 109.5 23t108.5 -2l-414 414l74 74l414 -414q-6 50 -2 108.5t23 110.5l105 -29q-12 -30 -21.5 -70t-14 -84t-3 -89t10.5 -84l-35 -36v0z" />
    <glyph glyph-name="uni2199" unicode="&#x2199;" horiz-adv-x="916" 
d="M532 61q-30 13 -70 22t-84 13.5t-89 3t-84 -10.5l-36 35q9 40 11 85t-2.5 89t-14 84t-21.5 70l105 28q19 -52 23 -111t-2 -108l414 414l74 -74l-413 -413q50 6 108.5 1.5t109.5 -23.5l-29 -105v0z" />
    <glyph glyph-name="partialdiff" unicode="&#x2202;" horiz-adv-x="603" 
d="M300 -8q-52 0 -98 19t-80.5 53t-55 80t-20.5 100t19 99t52 78t77 51.5t94 18.5q37 0 64 -8.5t47 -22.5q-39 61 -110.5 125.5t-185.5 144.5h162q79 -62 134.5 -123t90 -121t50 -119.5t15.5 -118.5q0 -54 -19.5 -100.5t-54 -81t-81 -54.5t-100.5 -20zM301 93q30 0 57.5 12
t47.5 32.5t32 48t12 58.5t-11.5 58.5t-31.5 48.5t-47 33t-58 12q-30 0 -57.5 -11.5t-48 -32t-32.5 -48t-12 -60.5q0 -32 12 -59.5t32.5 -48t47.5 -32t57 -11.5z" />
    <glyph glyph-name="Delta" unicode="&#x2206;" horiz-adv-x="917" 
d="M30 0l429 742l428 -742h-857zM212 104h493l-247 429z" />
    <glyph glyph-name="product" unicode="&#x220f;" horiz-adv-x="786" 
d="M50 730h687v-104h-127v-626h-108v626h-218v-626h-108v626h-126v104z" />
    <glyph glyph-name="summation" unicode="&#x2211;" horiz-adv-x="583" 
d="M45 115l240 262l-231 247v106h484v-103h-347l233 -251l-251 -272h365v-104h-493v115z" />
    <glyph glyph-name="minus" unicode="&#x2212;" horiz-adv-x="477" 
d="M54 411h370v-92h-370v92z" />
    <glyph glyph-name="radical" unicode="&#x221a;" horiz-adv-x="809" 
d="M147 400h-92v100h167l140 -377l278 607h117l-342 -730h-114z" />
    <glyph glyph-name="infinity" unicode="&#x221e;" horiz-adv-x="935" 
d="M260 210q-36 0 -68 13.5t-55.5 37.5t-37.5 55.5t-14 67.5t14 68t37.5 56t55.5 37.5t68 13.5q30 0 57.5 -9t53.5 -24.5t50.5 -35.5t47.5 -41q23 22 47 42t50 35t53 24t56 9q36 0 68 -13.5t56 -37.5t37.5 -56t13.5 -68t-13.5 -67.5t-37.5 -55.5t-56 -37.5t-68 -13.5
q-29 0 -56 9t-52.5 24.5t-50 35.5t-48.5 42q-23 -22 -47.5 -42t-50.5 -35.5t-53.5 -24.5t-56.5 -9zM261 302q34 0 69 24t72 59q-36 33 -71 56.5t-70 23.5q-17 0 -31.5 -6.5t-26 -18t-18 -26t-6.5 -30.5q0 -17 6.5 -31.5t18 -26t26 -18t31.5 -6.5zM675 303q33 0 57 24.5
t24 57.5q0 16 -6.5 30.5t-17.5 26t-26 18t-31 6.5q-35 0 -69 -23.5t-71 -56.5q37 -35 71.5 -59t68.5 -24z" />
    <glyph glyph-name="integral" unicode="&#x222b;" horiz-adv-x="379" 
d="M18 -105q36 0 57 4t32 15t14 32t3 54v526q0 58 10 97.5t33.5 63t63 33.5t98.5 10h9v-99q-36 0 -57 -4t-32 -15.5t-14 -32t-3 -54.5v-524q0 -59 -10 -98.5t-33.5 -63t-63 -33.5t-98.5 -10h-9v99z" />
    <glyph glyph-name="approxequal" unicode="&#x2248;" horiz-adv-x="470" 
d="M50 487q22 11 44 18.5t53 7.5q22 0 45.5 -6t46 -13t44 -13t41.5 -6q29 0 49.5 7t46.5 18v-93q-21 -12 -42 -18.5t-54 -6.5q-21 0 -44 6t-46.5 13t-45.5 13t-41 6q-30 0 -52 -7.5t-45 -18.5v93zM50 320q22 11 42.5 19t51.5 8q22 0 46 -6t48 -12.5t46 -12.5t42 -6
q15 0 26.5 1.5t22.5 4.5t21.5 7t23.5 10v-93q-21 -12 -41 -17.5t-53 -5.5q-21 0 -45 6t-48 12.5t-47 12.5t-42 6q-30 0 -50.5 -8t-43.5 -19v93z" />
    <glyph glyph-name="notequal" unicode="&#x2260;" horiz-adv-x="477" 
d="M338 492h86v-92h-129l-34 -73h163v-92h-206l-31 -67h-84l30 67h-79v92h121l34 73h-155v92h197l32 69h87z" />
    <glyph glyph-name="equivalence" unicode="&#x2261;" horiz-adv-x="477" 
d="M54 409h370v-92h-370v92zM54 244h370v-91h-370v91zM54 574h370v-92h-370v92z" />
    <glyph glyph-name="lessequal" unicode="&#x2264;" horiz-adv-x="477" 
d="M53 403v92l370 136v-95l-256 -87l256 -89v-95zM53 228h370v-92h-370v92z" />
    <glyph glyph-name="greaterequal" unicode="&#x2265;" horiz-adv-x="477" 
d="M53 360l255 89l-255 87v95l370 -136v-92l-370 -138v95zM53 228h370v-92h-370v92z" />
    <glyph glyph-name="squaremultiply" unicode="&#x22a0;" horiz-adv-x="946" 
d="M110 730h726v-730h-726v730zM219 104h509v522h-509v-522zM278 229l132 137l-134 140l64 63l133 -138l133 139l64 -63l-135 -140l133 -138l-64 -63l-132 136l-130 -136z" />
    <glyph glyph-name="house" unicode="&#x2302;" horiz-adv-x="894" 
d="M110 0v427l337 323l337 -323v-427h-674z" />
    <glyph glyph-name="blacksquare" unicode="&#x25a0;" horiz-adv-x="946" 
d="M110 730h726v-730h-726v730z" />
    <glyph glyph-name="blacksquare" unicode="&#xe740;" horiz-adv-x="946" 
d="M110 730h726v-730h-726v730z" />
    <glyph glyph-name="whitesquare" unicode="&#x25a1;" horiz-adv-x="946" 
d="M110 730h726v-730h-726v730zM219 104h509v522h-509v-522z" />
    <glyph glyph-name="blacksmallsquare" unicode="&#x25aa;" horiz-adv-x="720" 
d="M110 500h500v-500h-500v500z" />
    <glyph glyph-name="whitesmallsquare" unicode="&#x25ab;" horiz-adv-x="720" 
d="M110 500h500v-500h-500v500zM218 106h285v289h-285v-289z" />
    <glyph glyph-name="triagup" unicode="&#x25b2;" horiz-adv-x="917" 
d="M30 0l429 742l428 -742h-857z" />
    <glyph glyph-name="triagrt" unicode="&#x25ba;" horiz-adv-x="917" 
d="M110 800l742 -428l-742 -429v857z" />
    <glyph glyph-name="triagdn" unicode="&#x25bc;" horiz-adv-x="917" 
d="M887 730l-428 -742l-429 742h857z" />
    <glyph glyph-name="triaglf" unicode="&#x25c4;" horiz-adv-x="917" 
d="M807 -57l-742 429l742 428v-857z" />
    <glyph glyph-name="lozenge" unicode="&#x25ca;" horiz-adv-x="863" 
d="M43 366l380 380l382 -382l-380 -380zM426 123l240 241l-244 243l-240 -240z" />
    <glyph glyph-name="whitecircle" unicode="&#x25cb;" horiz-adv-x="947" 
d="M474 -10q-78 0 -146 29.5t-118.5 80.5t-80 119t-29.5 146t29.5 146t80 119t118.5 80.5t146 29.5t146 -29.5t118.5 -80.5t80 -119t29.5 -146t-29.5 -146t-80 -119t-118.5 -80.5t-146 -29.5zM474 96q56 0 104.5 21t84 58t56 85.5t20.5 104.5q0 55 -20.5 104.5t-56 86
t-84 58t-104.5 21.5t-104.5 -21.5t-84 -58t-56 -86t-20.5 -104.5q0 -56 20.5 -104.5t56 -85.5t84 -58t104.5 -21z" />
    <glyph glyph-name="whitecircle" unicode="&#x25ef;" horiz-adv-x="947" 
d="M474 -10q-78 0 -146 29.5t-118.5 80.5t-80 119t-29.5 146t29.5 146t80 119t118.5 80.5t146 29.5t146 -29.5t118.5 -80.5t80 -119t29.5 -146t-29.5 -146t-80 -119t-118.5 -80.5t-146 -29.5zM474 96q56 0 104.5 21t84 58t56 85.5t20.5 104.5q0 55 -20.5 104.5t-56 86
t-84 58t-104.5 21.5t-104.5 -21.5t-84 -58t-56 -86t-20.5 -104.5q0 -56 20.5 -104.5t56 -85.5t84 -58t104.5 -21z" />
    <glyph glyph-name="bullseye" unicode="&#x25ce;" horiz-adv-x="945" 
d="M473 -10q-78 0 -146 29.5t-119 80.5t-80.5 119t-29.5 146t29.5 146t80.5 119t119 80.5t146 29.5t146 -29.5t119 -80.5t80.5 -119t29.5 -146t-29.5 -146t-80.5 -119t-119 -80.5t-146 -29.5zM473 83q59 0 109.5 22.5t87 61t57 89.5t20.5 109t-20.5 109t-57 89.5t-87 61
t-109.5 22.5t-109.5 -22.5t-87 -61t-57 -89.5t-20.5 -109t20.5 -109t57 -89.5t87 -61t109.5 -22.5zM473 132q-48 0 -89.5 17.5t-72 48.5t-48 73.5t-17.5 92.5t17.5 92.5t48 73.5t72 48.5t89.5 17.5t90 -17.5t72.5 -48.5t48.5 -73.5t18 -92.5t-18 -92.5t-48.5 -73.5
t-72.5 -48.5t-90 -17.5zM473 218q30 0 55 11t43 30.5t28.5 46.5t10.5 58t-10.5 58t-28.5 46.5t-43 30.5t-55 11t-55 -11t-43 -30.5t-28 -46.5t-10 -58t10 -58t28 -46.5t43 -30.5t55 -11zM473 271q-38 0 -63.5 26t-25.5 67t25.5 67t63.5 26t63.5 -26t25.5 -67t-25.5 -67
t-63.5 -26z" />
    <glyph glyph-name="blackcircle" unicode="&#x25cf;" horiz-adv-x="947" 
d="M474 -10q-78 0 -146 29.5t-118.5 80.5t-80 119t-29.5 146t29.5 146t80 119t118.5 80.5t146 29.5t146 -29.5t118.5 -80.5t80 -119t29.5 -146t-29.5 -146t-80 -119t-118.5 -80.5t-146 -29.5z" />
    <glyph glyph-name="uni25E2" unicode="&#x25e2;" horiz-adv-x="917" 
d="M277 -73l-222 828l828 -222z" />
    <glyph glyph-name="uni25E3" unicode="&#x25e3;" horiz-adv-x="917" 
d="M36 533l828 222l-222 -828z" />
    <glyph glyph-name="uni25E4" unicode="&#x25e4;" horiz-adv-x="917" 
d="M39 168l606 606l222 -828z" />
    <glyph glyph-name="uni25E5" unicode="&#x25e5;" horiz-adv-x="917" 
d="M54 -58l223 828l605 -607z" />
    <glyph glyph-name="uni2605" unicode="&#x2605;" horiz-adv-x="920" 
d="M644 85l-187 135l-186 -135l72 219l-186 135l229 -1l72 218l71 -218l230 -1l-187 -134z" />
    <glyph glyph-name="ballotboxwithx" unicode="&#x2612;" horiz-adv-x="720" 
d="M110 500h500v-500h-500v500zM209 97h302v306h-302v-306zM359 304l71 73l56 -56l-70 -72l71 -70l-56 -56l-71 69l-69 -71l-56 56l69 71l-71 70l56 56z" />
    <glyph glyph-name="uni263C" unicode="&#x263c;" horiz-adv-x="948" 
d="M297 365q0 36 14 67.5t37.5 55t55 37.5t67.5 14t67.5 -14t55 -37.5t37.5 -55t14 -67.5t-14 -67.5t-37.5 -55t-55 -37.5t-67.5 -14t-67.5 14t-55 37.5t-37.5 55t-14 67.5zM444 719h54l-17 -142h-20zM498 13h-54l17 142h20zM118 339v54l142 -17v-20zM824 393v-54l-142 17
v20zM150 519l28 47l115 -87l-10 -15zM792 213l-28 -47l-115 87l10 15zM271 659l47 28l55 -133l-15 -10zM671 73l-47 -28l-55 133l15 10zM624 687l47 -28l-87 -115l-15 10zM318 45l-47 28l87 115l15 -10zM762 566l30 -46l-133 -56l-10 16zM180 166l-30 46l133 56l10 -16z" />
    <glyph glyph-name="uni263E" unicode="&#x263e;" horiz-adv-x="807" 
d="M544 616q-50 0 -93.5 -20t-75.5 -54t-51 -79.5t-19 -97.5t19 -97.5t51 -79.5t75.5 -54t93.5 -20q18 0 36 3.5t35 8.5q-38 -27 -83.5 -42t-94.5 -15q-61 0 -115 23.5t-94 63.5t-63.5 94t-23.5 115t23.5 115t63.5 94t94 63.5t115 23.5q49 0 94.5 -15t83.5 -42
q-17 5 -35 8.5t-36 3.5z" />
    <glyph glyph-name="spade" unicode="&#x2660;" horiz-adv-x="940" 
d="M345 0q10 19 26 49.5t31 69t26 82.5t11 89q-9 -26 -24 -50.5t-36 -43.5t-48.5 -30.5t-61.5 -11.5q-35 0 -66 12.5t-54.5 34t-37 50.5t-13.5 61q0 43 13.5 80.5t42 75t73 77.5t106.5 90l140 112h1l140 -112q62 -50 105.5 -90t70.5 -77.5t39.5 -75t12.5 -80.5
q0 -32 -12.5 -60.5t-34 -50t-50 -34t-60.5 -12.5q-37 0 -66 11t-51.5 30t-38.5 43.5t-25 50.5q0 -45 12 -89t28 -82.5t33 -69t27 -49.5h-259z" />
    <glyph glyph-name="club" unicode="&#x2663;" horiz-adv-x="940" 
d="M346 0q9 17 22.5 43t27.5 58t25 69.5t16 77.5q-21 -52 -65 -85t-102 -33q-37 0 -69 14t-56 38t-38 56t-14 69t14 69t38 56t56 38t69 14q11 0 21.5 -2t20.5 -5q-19 41 -19 87q0 36 13.5 68t37.5 56t56 38t68 14t68 -14t56 -38t38 -56t14 -68q0 -45 -19 -88q22 8 46 8
q37 0 69 -14t56 -38t37.5 -56t13.5 -69t-14 -69t-38 -56t-56 -38t-69 -14q-58 0 -100.5 33t-62.5 84q5 -39 17.5 -76.5t27.5 -69.5t29.5 -58t23.5 -43h-259z" />
    <glyph glyph-name="heart" unicode="&#x2665;" horiz-adv-x="940" 
d="M99 550q0 39 14 73.5t39 60.5t58 41t72 15q38 0 70.5 -12.5t56.5 -34t39 -51t19 -63.5q4 34 19 63.5t39 51t56 34t71 12.5t73 -15t60 -41t41 -60.5t15 -73.5q0 -43 -13 -86.5t-41 -92.5t-72 -105.5t-106 -125.5l-142 -157l-141 157q-62 69 -105.5 125.5t-70.5 105.5
t-39 92.5t-12 86.5z" />
    <glyph glyph-name="diamond" unicode="&#x2666;" horiz-adv-x="940" 
d="M470 791l327 -401l-327 -400l-327 400z" />
    <glyph glyph-name="uni267B" unicode="&#x267b;" horiz-adv-x="941" 
d="M832 244l-91 -157q-7 -11 -14 -20.5t-16 -16.5t-21.5 -11t-30.5 -4h-54v-47l-106 128l106 127v-46h136q21 0 37.5 7.5t28.5 16.5q13 11 24 25zM192 111l-90 158q-6 11 -11 21.5t-6.5 22t1.5 24t12 28.5l27 46l-40 23l164 29l55 -156l-38 23q-18 -31 -33 -57
q-13 -22 -23.5 -40.5t-11.5 -20.5q-11 -18 -13 -36.5t0 -32.5q2 -17 9 -32h-2zM399 729h182q13 0 25 -1t22.5 -5.5t20 -13t18.5 -24.5l26 -46l41 23l-58 -157l-162 30l38 22l-67 118q-11 18 -25.5 29t-28.5 16q-16 6 -32 8v1zM270 670q4 6 12.5 14.5t19.5 14.5
q21 12 45 13.5t46 -4.5t39.5 -17.5t24.5 -24.5l-109 -189l-141 81zM312 35q-8 0 -19.5 2.5t-22.5 9.5q-21 12 -34.5 32t-19.5 42t-4.5 42.5t9.5 33.5h218v-162h-127zM842 381q9 -14 9 -41q0 -24 -10.5 -45.5t-27 -37.5t-34.5 -25.5t-33 -9.5l-109 189l140 80z" />
    <glyph glyph-name="uni267C" unicode="&#x267c;" horiz-adv-x="941" 
d="M847 366q0 -78 -29.5 -146.5t-80.5 -119t-119 -80t-146 -29.5t-147 29.5t-120 80t-80.5 119t-29.5 146.5t29.5 146.5t80.5 120t120 81t147 29.5t146 -29.5t119 -81t80.5 -120t29.5 -146.5zM265 520l109 -63l84 146q-6 10 -19 19t-30.5 13.5t-36 3.5t-34.5 -10
q-8 -5 -15 -11.5t-9 -11.5zM409 651q14 -2 26 -7q11 -5 22 -12.5t19 -21.5l53 -91l-30 -18l126 -23l44 122l-31 -18l-21 36q-14 24 -30 29t-37 5h-141v-1zM441 114v126h-170q-6 -11 -7 -26.5t4 -32.5t15 -32.5t27 -25.5q8 -5 17 -7t15 -2h99zM254 173q-4 12 -6 25
q-2 11 -0.5 25.5t9.5 28.5l53 91l30 -18l-43 121l-127 -22l31 -18l-21 -36q-15 -25 -10.5 -41t13.5 -34l70 -122h1zM707 468l-110 -63l85 -147q12 0 26 7.5t27 20t21 29.5t8 36q0 10 -2.5 18.5t-5.5 13.5zM748 277q-8 -11 -19 -19q-9 -7 -21.5 -12.5t-29.5 -5.5h-105v35
l-83 -98l83 -99v36h41q29 0 41.5 11.5t22.5 28.5l71 122z" />
    <glyph glyph-name="uni267D" unicode="&#x267d;" horiz-adv-x="941" 
d="M847 366q0 -78 -29.5 -146.5t-80.5 -119t-119 -80t-146 -29.5t-147 29.5t-120 80t-80.5 119t-29.5 146.5t29.5 146.5t80.5 120t120 81t147 29.5t146 -29.5t119 -81t80.5 -120t29.5 -146.5zM828 366q0 74 -28 139.5t-76 114t-113 76.5t-139 28q-75 0 -140 -28t-114 -76.5
t-77 -114t-28 -139.5t28 -139t77 -113.5t114 -76.5t140 -28q74 0 139 28t113 76.5t76 113.5t28 139zM314 606q2 5 9 11.5t15 11.5q16 9 34.5 10t36 -3.5t30.5 -13.5t19 -19l-84 -146l-109 63zM409 652h141q21 0 37 -5t30 -29l21 -36l31 18l-44 -122l-126 23l30 18l-53 91
q-8 14 -19 21.5t-22 12.5q-12 5 -26 7v1zM342 114q-6 0 -15 2t-17 7q-17 10 -27 25.5t-15 32.5t-4 32.5t7 26.5h170v-126h-99zM253 173l-70 122q-9 18 -13.5 34t10.5 41l21 36l-31 18l127 22l43 -121l-30 18l-53 -91q-8 -14 -9.5 -28.5t0.5 -25.5q2 -13 6 -25h-1zM756 383
q3 -5 5.5 -13.5t2.5 -18.5q0 -19 -8 -36t-21 -29.5t-27 -20t-26 -7.5l-85 147l110 63zM749 276l-71 -122q-10 -17 -22.5 -28.5t-41.5 -11.5h-41v-36l-83 99l83 98v-35h105q17 0 29.5 5.5t21.5 12.5q11 8 19 19z" />
    <glyph glyph-name="mediumwhitecircle" unicode="&#x26aa;" horiz-adv-x="718" 
d="M359 -10q-54 0 -101 20t-82.5 55.5t-55.5 83t-20 101.5q0 55 20 102.5t55.5 82.5t82.5 55t101 20t101.5 -20t82.5 -55t55.5 -82.5t20.5 -102.5q0 -54 -20.5 -101.5t-55.5 -83t-82.5 -55.5t-101.5 -20zM359 90q32 0 60 12.5t49 34.5t33 51t12 62t-12 62t-33 51t-49 34.5
t-60 12.5t-60 -12.5t-48.5 -34.5t-32.5 -51t-12 -62t12 -62t32.5 -51t48.5 -34.5t60 -12.5z" />
    <glyph glyph-name="mediumblackcircle" unicode="&#x26ab;" horiz-adv-x="718" 
d="M359 -10q-54 0 -101 20.5t-82.5 55.5t-55.5 82.5t-20 101.5t20 101.5t55.5 82.5t82.5 55.5t101 20.5t101 -20.5t82.5 -55.5t55.5 -82.5t20 -101.5t-20 -101.5t-55.5 -82.5t-82.5 -55.5t-101 -20.5z" />
    <glyph glyph-name="anglebracketleft" unicode="&#x3008;" horiz-adv-x="401" 
d="M31 250l227 480h115l-228 -480l228 -480h-115z" />
    <glyph glyph-name="anglebracketright" unicode="&#x3009;" horiz-adv-x="401" 
d="M31 -230l228 480l-228 480h115l227 -480l-227 -480h-115z" />
    <glyph glyph-name="cordinal" unicode="&#xe181;" horiz-adv-x="362" 
d="M189 435q-31 0 -58.5 12t-47.5 32t-32 47.5t-12 58.5t12 59t32 48t47.5 32t58.5 12q46 0 81.5 -23t53.5 -60l-69 -34q-9 19 -26 30.5t-40 11.5q-31 0 -52 -22t-21 -54q0 -31 21 -52.5t52 -21.5q24 0 41.5 11.5t25.5 31.5l70 -33q-18 -38 -53.5 -62t-83.5 -24z" />
    <glyph glyph-name="fi" unicode="&#xe38c;" horiz-adv-x="631" 
d="M26 540h94v31q0 63 10.5 104.5t35 66.5t66 35.5t104.5 10.5h26v-100h-18q-39 0 -62.5 -4t-35.5 -17t-16 -36t-4 -61v-30h136v-97h-136v-443h-106v443h-94v97zM460 540h109v-540h-109v540zM438 702q0 33 21.5 55t54.5 22q34 0 55.5 -22t21.5 -55t-21.5 -55t-55.5 -22
t-55 22t-21 55z" />
    <glyph glyph-name="fi" unicode="&#xfb01;" horiz-adv-x="631" 
d="M26 540h94v31q0 63 10.5 104.5t35 66.5t66 35.5t104.5 10.5h26v-100h-18q-39 0 -62.5 -4t-35.5 -17t-16 -36t-4 -61v-30h136v-97h-136v-443h-106v443h-94v97zM460 540h109v-540h-109v540zM438 702q0 33 21.5 55t54.5 22q34 0 55.5 -22t21.5 -55t-21.5 -55t-55.5 -22
t-55 22t-21 55z" />
    <glyph glyph-name="fl" unicode="&#xe38d;" horiz-adv-x="631" 
d="M26 540h94v31q0 63 10.5 104.5t35 66.5t66 35.5t104.5 10.5h26v-100h-18q-39 0 -62.5 -4t-35.5 -17t-16 -36t-4 -61v-30h136v-97h-136v-443h-106v443h-94v97zM460 788h109v-788h-109v788z" />
    <glyph glyph-name="fl" unicode="&#xfb02;" horiz-adv-x="631" 
d="M26 540h94v31q0 63 10.5 104.5t35 66.5t66 35.5t104.5 10.5h26v-100h-18q-39 0 -62.5 -4t-35.5 -17t-16 -36t-4 -61v-30h136v-97h-136v-443h-106v443h-94v97zM460 788h109v-788h-109v788z" />
    <glyph glyph-name="invertedbreve" unicode="&#xe411;" horiz-adv-x="505" 
d="M90 606q0 35 9.5 65t29.5 52.5t50.5 35.5t71.5 13q37 0 67 -13t51 -35.5t32.5 -52.5t11.5 -65h-77q0 48 -22 73.5t-63 26.5q-42 -1 -63.5 -26.5t-21.5 -73.5h-76v0z" />
    <glyph glyph-name="doublegrave" unicode="&#xe412;" horiz-adv-x="505" 
d="M67 771h110l111 -166h-78zM219 771h110l111 -166h-78z" />
    <glyph glyph-name="caronSlovak" unicode="&#xe413;" horiz-adv-x="505" 
d="M231 641q32 20 48.5 42.5t16.5 49.5v6q-2 -21 -14.5 -30t-29.5 -9q-24 0 -39 17t-15 40q0 32 20.5 51.5t52.5 19.5q39 0 59.5 -25.5t20.5 -63.5q0 -41 -25.5 -76t-63.5 -61z" />
    <glyph glyph-name="commaaccent" unicode="&#xe414;" horiz-adv-x="508" 
d="M205 -241q32 20 48.5 42.5t16.5 49.5v6q-2 -21 -14.5 -30t-29.5 -9q-24 0 -39 17t-15 40q0 32 20.5 51.5t52.5 19.5q39 0 59.5 -25.5t20.5 -63.5q0 -41 -25.5 -76t-63.5 -61z" />
    <glyph glyph-name="commaaccent" unicode="&#xf6c3;" horiz-adv-x="508" 
d="M205 -241q32 20 48.5 42.5t16.5 49.5v6q-2 -21 -14.5 -30t-29.5 -9q-24 0 -39 17t-15 40q0 32 20.5 51.5t52.5 19.5q39 0 59.5 -25.5t20.5 -63.5q0 -41 -25.5 -76t-63.5 -61z" />
    <glyph glyph-name="dotbelow" unicode="&#xe415;" horiz-adv-x="508" 
d="M172 -113q0 32 20 52t52 20t52 -20t20 -52t-20 -52t-52 -20t-52 20t-20 52z" />
    <glyph glyph-name="altcedilla" unicode="&#xe416;" horiz-adv-x="505" 
d="M243 -237q-52 0 -87 13.5t-62 42.5l69 44q16 -16 34 -25.5t45 -9.5q26 0 43.5 9.5t17.5 25.5q0 32 -65 32h-11v52h22q64 2 100 -21.5t36 -60.5q0 -23 -11 -41.5t-30.5 -32t-45.5 -21t-55 -7.5z" />
    <glyph glyph-name="exclamdown.cap" unicode="&#xe441;" horiz-adv-x="244" 
d="M68 117q0 50 2 103t5.5 104.5t8 99t9.5 88.5h59q5 -41 9.5 -88.5t7.5 -99t4.5 -104.5t1.5 -103v-117h-107v117zM122 593q-34 0 -55.5 22t-21.5 55t21.5 55t55.5 22t55 -22t21 -55t-21.5 -55t-54.5 -22z" />
    <glyph glyph-name="questiondown.cap" unicode="&#xe444;" horiz-adv-x="551" 
d="M277 -10q-49 0 -90 14t-71 40t-46.5 62.5t-16.5 80.5q0 47 14 78t35 52.5t46 38t46 36t35 46t14 68.5v10h97v-10q0 -57 -13 -93.5t-33 -61.5t-42.5 -42t-42.5 -33.5t-33 -37t-13 -52.5q0 -45 32.5 -73.5t83.5 -28.5q49 0 78.5 25.5t45.5 63.5l99 -37
q-23 -63 -79.5 -104.5t-145.5 -41.5zM291 593q-34 0 -55 22t-21 55t21.5 55t54.5 22q34 0 55.5 -22t21.5 -55t-21.5 -55t-55.5 -22z" />
    <glyph glyph-name="guilsinglleft.cap" unicode="&#xe451;" horiz-adv-x="303" 
d="M71 332v68l162 119v-83l-98 -70l98 -70v-83z" />
    <glyph glyph-name="guilsinglright.cap" unicode="&#xe452;" horiz-adv-x="303" 
d="M71 296l99 70l-99 71v82l162 -119v-67l-162 -119v82z" />
    <glyph glyph-name="guillemotleft.cap" unicode="&#xe453;" horiz-adv-x="491" 
d="M65 335v62l173 114v-75l-107 -70l107 -71v-74zM253 335v62l173 114v-75l-107 -70l107 -71v-74z" />
    <glyph glyph-name="guillemotright.cap" unicode="&#xe454;" horiz-adv-x="491" 
d="M253 295l108 71l-108 70v75l173 -114v-62l-173 -114v74zM65 295l108 71l-108 70v75l173 -114v-62l-173 -114v74z" />
    <glyph glyph-name="slash.cap" unicode="&#xe461;" horiz-adv-x="517" 
d="M375 730h115l-346 -730h-115z" />
    <glyph glyph-name="backslash.cap" unicode="&#xe462;" horiz-adv-x="517" 
d="M29 730h115l346 -730h-115z" />
    <glyph glyph-name="bar.cap" unicode="&#xe463;" horiz-adv-x="225" 
d="M59 840h108v-960h-108v960z" />
    <glyph glyph-name="doublebar.cap" unicode="&#xe464;" horiz-adv-x="411" 
d="M59 840h108v-960h-108v960zM244 840h108v-960h-108v960z" />
    <glyph glyph-name="brokenbar.cap" unicode="&#xe465;" horiz-adv-x="246" 
d="M59 840h108v-420h-108v420zM59 300h108v-420h-108v420z" />
    <glyph glyph-name="bullet.cap" unicode="&#xe466;" horiz-adv-x="387" 
d="M194 271q-19 0 -36 7.5t-29.5 20t-20 29.5t-7.5 36t7.5 36t20 29.5t29.5 20t36 7.5t36 -7.5t29.5 -20t20 -29.5t7.5 -36t-7.5 -36t-20 -29.5t-29.5 -20t-36 -7.5z" />
    <glyph glyph-name="slash.smcp" unicode="&#xe467;" horiz-adv-x="466" 
d="M319 596h112l-283 -596h-112z" />
    <glyph glyph-name="backslash.smcp" unicode="&#xe468;" horiz-adv-x="466" 
d="M36 596h112l283 -596h-112z" />
    <glyph glyph-name="bar.smcp" unicode="&#xe469;" horiz-adv-x="223" 
d="M59 686h106v-784h-106v784z" />
    <glyph glyph-name="doublebar.smcp" unicode="&#xe46a;" horiz-adv-x="406" 
d="M59 686h106v-784h-106v784zM241 686h107v-784h-107v784z" />
    <glyph glyph-name="onethirdemdash" unicode="&#xe471;" horiz-adv-x="427" 
d="M54 299h320v-93h-320v93z" />
    <glyph glyph-name="threequarteremdash" unicode="&#xe472;" horiz-adv-x="617" 
d="M54 299h510v-93h-510v93z" />
    <glyph glyph-name="periodcentered.cap" unicode="&#xe481;" horiz-adv-x="230" 
d="M43 365q0 32 20 52t52 20t52 -20t20 -52t-20 -52t-52 -20t-52 20t-20 52z" />
    <glyph glyph-name="hyphen.cap" unicode="&#xe482;" horiz-adv-x="477" 
d="M54 411h370v-92h-370v92z" />
    <glyph glyph-name="onethirdemdash.cap" unicode="&#xe483;" horiz-adv-x="427" 
d="M54 411h320v-92h-320v92z" />
    <glyph glyph-name="endash.cap" unicode="&#xe484;" horiz-adv-x="517" 
d="M54 411h410v-92h-410v92z" />
    <glyph glyph-name="threequarteremdash.cap" unicode="&#xe485;" horiz-adv-x="617" 
d="M54 411h510v-92h-510v92z" />
    <glyph glyph-name="emdash.cap" unicode="&#xe486;" horiz-adv-x="717" 
d="M54 411h610v-92h-610v92z" />
    <glyph glyph-name="figuredash.cap" unicode="&#xe487;" horiz-adv-x="667" 
d="M54 411h560v-92h-560v92z" />
    <glyph glyph-name="uni2015.cap" unicode="&#xe488;" horiz-adv-x="1017" 
d="M54 411h910v-92h-910v92z" />
    <glyph glyph-name="parenleft.cap" unicode="&#xe491;" horiz-adv-x="429" 
d="M323 -142q-60 41 -110.5 91.5t-88 112.5t-58.5 136t-21 161q0 88 20.5 160.5t56.5 132.5t85.5 110t108.5 93l73 -80q-50 -35 -92 -76.5t-73 -92.5t-48 -112t-17 -134q0 -71 16.5 -131.5t46.5 -111.5t73 -93.5t97 -77.5l-69 -88v0z" />
    <glyph glyph-name="parenright.cap" unicode="&#xe492;" horiz-adv-x="429" 
d="M37 -54q54 35 97 77.5t73 93.5t46.5 111t16.5 131q0 73 -17 134.5t-48 112.5t-73 92.5t-92 76.5l73 80q58 -43 108 -93t86 -110t56.5 -132.5t20.5 -160.5q0 -87 -21 -161t-58.5 -136t-88 -112.5t-110.5 -91.5z" />
    <glyph glyph-name="bracketleft.cap" unicode="&#xe493;" horiz-adv-x="380" 
d="M54 840h273v-103h-165v-754h165v-103h-273v960z" />
    <glyph glyph-name="bracketright.cap" unicode="&#xe494;" horiz-adv-x="380" 
d="M54 -17h164v754h-164v103h273v-960h-273v103z" />
    <glyph glyph-name="braceleft.cap" unicode="&#xe495;" horiz-adv-x="407" 
d="M353 -120q-63 0 -105 11t-67.5 36.5t-36.5 67t-11 102.5v108q0 29 -3 49t-12.5 32t-28.5 17t-50 5v100q31 0 50 5t28.5 17t12.5 32t3 49v112q0 61 11 102.5t36.5 67t67.5 36.5t105 11h11v-99q-40 0 -64 -5t-37.5 -18t-18 -36t-4.5 -60v-112q0 -60 -16 -97t-56 -55
q40 -18 56 -55t16 -97v-108q0 -36 4.5 -59.5t18 -36.5t37.5 -18t64 -5v-99h-11z" />
    <glyph glyph-name="braceright.cap" unicode="&#xe496;" horiz-adv-x="407" 
d="M44 -20q39 0 63.5 5t38 18t18 36t4.5 59v108q0 60 15.5 97t55.5 55q-40 18 -55.5 55t-15.5 97v112q0 37 -4.5 60t-18 36t-38 17.5t-63.5 4.5v100h11q63 0 105 -11t67.5 -36.5t36.5 -67t11 -102.5v-112q0 -29 3 -49t12.5 -32t28 -17t50.5 -5v-100q-32 0 -50.5 -5t-28 -17
t-12.5 -32t-3 -49v-108q0 -61 -11 -102.5t-36.5 -67t-67.5 -36.5t-105 -11h-11v100z" />
    <glyph glyph-name="anglebracketleft.cap" unicode="&#xe497;" horiz-adv-x="401" 
d="M31 360l227 480h115l-228 -480l228 -480h-115z" />
    <glyph glyph-name="anglebracketright.cap" unicode="&#xe498;" horiz-adv-x="401" 
d="M31 -120l228 480l-228 480h115l227 -480l-227 -480h-115z" />
    <glyph glyph-name="a.alt" unicode="&#xe4c0;" horiz-adv-x="664" 
d="M313 -11q-53 0 -102 20t-86.5 57t-60 89t-22.5 115q0 64 22 115.5t59.5 88.5t87 57t103.5 20t103.5 -23t80.5 -63v75h106v-540h-106v79q-32 -42 -81.5 -66t-103.5 -24zM327 88q38 0 70.5 14.5t56 39t37 58t13.5 71.5q0 37 -13.5 70.5t-37 58t-56 39t-70.5 14.5t-70.5 -14
t-56.5 -38.5t-37.5 -58t-13.5 -71.5t13.5 -71.5t37.5 -58.5t56.5 -39t70.5 -14z" />
    <glyph glyph-name="lowline" unicode="&#xe511;" horiz-adv-x="527" 
d="M54 -100h420v-92h-420v92z" />
    <glyph glyph-name="underscoremonospace" unicode="&#xe512;" horiz-adv-x="598" 
d="M54 -10h491v-92h-491v92z" />
    <glyph glyph-name="underscoremonospace" unicode="&#xff3f;" horiz-adv-x="598" 
d="M54 -10h491v-92h-491v92z" />
    <glyph glyph-name="at.cap" unicode="&#xe513;" horiz-adv-x="836" 
d="M418 -11q-78 0 -146 29.5t-118.5 80.5t-79.5 119.5t-29 146.5t29.5 146t80.5 119t119.5 80.5t146.5 29.5q84 0 152.5 -28.5t116.5 -75.5t74.5 -108t26.5 -125q0 -42 -11 -80.5t-32 -67t-51.5 -45.5t-69.5 -17q-44 0 -73 16.5t-44 39.5q-19 -26 -51 -41.5t-77 -15.5
q-31 0 -61 12t-52.5 35t-35 56.5t-7.5 77.5q5 46 23.5 79.5t44 55.5t55 33t57.5 11q35 0 61 -11.5t43 -30.5q1 12 2 19t1 11v6h93l-20 -181q-5 -42 7 -61.5t41 -19.5q32 0 49.5 32t17.5 86q0 47 -19.5 92t-56 80t-88.5 56t-116 21q-59 0 -111 -22.5t-90.5 -61.5t-60.5 -91
t-22 -112q0 -59 21.5 -111t59.5 -91t89.5 -61.5t110.5 -22.5q62 0 114.5 23.5t91.5 65.5l69 -57q-50 -54 -120.5 -87.5t-154.5 -33.5zM402 278q40 0 65.5 29t29.5 68q4 38 -16.5 66.5t-59.5 28.5q-38 0 -67.5 -26t-32.5 -69q-3 -20 2 -37.5t16 -31t27 -21t36 -7.5z" />
    <glyph glyph-name="zero.LT" unicode="&#xe53f;" 
d="M318 95q35 0 63.5 12t49 41.5t31.5 79t11 124.5v34q0 75 -10.5 123t-30 76.5t-47.5 39.5t-64 11t-65.5 -12t-49.5 -40.5t-31 -76.5t-11 -121v-34q0 -76 11 -125.5t31 -79t48.5 -41t63.5 -11.5zM319 -10q-62 0 -111 19.5t-83 62.5t-51.5 112t-17.5 168v34q0 95 19.5 162
t55 110t84 62.5t106.5 19.5q63 0 112 -20t82 -63t50 -110t17 -161v-34q0 -101 -19 -170t-53.5 -111.5t-83 -61.5t-107.5 -19z" />
    <glyph glyph-name="one.LT" unicode="&#xe541;" 
d="M54 104h217v468q-5 -16 -15 -32t-26 -29t-38 -21t-51 -8h-11v113h5q70 0 105 36.5t35 98.5h104v-626h206v-104h-531v104z" />
    <glyph glyph-name="two.LT" unicode="&#xe542;" 
d="M63 104q0 46 19.5 83t50.5 66.5t70 54t79 46.5q35 20 68 39.5t58.5 40.5t41 45t15.5 53q0 51 -34 82t-99 31q-36 0 -64 -9.5t-49 -26t-36 -39.5t-25 -50l-102 43q19 40 45 72.5t60 56t77 36t97 12.5q58 0 103 -17t75.5 -45.5t46.5 -66t16 -79.5q0 -46 -19 -81.5
t-49.5 -64t-69 -52t-78.5 -45.5q-36 -20 -69.5 -39.5t-60 -41.5t-42 -47.5t-15.5 -56.5h412v-104h-522v104z" />
    <glyph glyph-name="three.LT" unicode="&#xe543;" 
d="M320 -10q-98 0 -165.5 33.5t-112.5 97.5l91 67q61 -99 187 -99q76 0 117 33.5t41 87.5q0 53 -42 84t-121 31h-97v101h94q78 0 116.5 29.5t38.5 77.5q0 51 -37.5 81.5t-109.5 30.5q-60 0 -102 -26t-70 -68l-86 63q22 28 48.5 51.5t58 40t69 25.5t83.5 9q57 0 103.5 -14.5
t79.5 -41.5t51 -65t18 -86q0 -53 -27.5 -92.5t-80.5 -63.5q58 -23 89.5 -64.5t31.5 -104.5q0 -47 -18 -86.5t-52 -69t-83.5 -46t-112.5 -16.5z" />
    <glyph glyph-name="four.LT" unicode="&#xe544;" 
d="M390 158h-345v100l336 472h115v-473h101v-99h-101v-158h-106v158zM390 257v318l-226 -318h226z" />
    <glyph glyph-name="five.LT" unicode="&#xe545;" 
d="M319 -10q-101 0 -169 44.5t-101 115.5l110 52q20 -52 62 -81.5t100 -29.5q38 0 67.5 12t50 34t31 51.5t10.5 65.5q0 35 -12 64t-33.5 50t-50.5 32.5t-63 11.5q-58 0 -94.5 -25t-62.5 -67l-101 45l51 365h431v-102h-343l-25 -174q27 25 67.5 41t92.5 16q56 0 102.5 -19.5
t80 -54t52 -82t18.5 -102.5q0 -54 -19.5 -102t-55 -83.5t-85.5 -56.5t-111 -21z" />
    <glyph glyph-name="six.LT" unicode="&#xe546;" 
d="M328 -10q-60 0 -111.5 23.5t-90.5 71.5q-17 22 -31 46.5t-24 55t-15.5 69t-5.5 88.5q0 96 25.5 170t72 124.5t112 76t144.5 25.5q38 0 74 -6.5t58 -14.5l-42 -103q-17 8 -44 14t-54 6q-54 0 -98 -16.5t-76 -50t-50.5 -84.5t-21.5 -119q25 62 76 95t123 33q50 0 94 -18.5
t76.5 -52t51.5 -79.5t19 -100t-20 -100.5t-55 -80.5t-83 -53.5t-104 -19.5zM327 91q33 0 61.5 11.5t49.5 32t33 48.5t12 61t-11.5 60.5t-32.5 47.5t-49.5 31.5t-62.5 11.5q-32 0 -60 -11t-48.5 -31.5t-32 -48t-11.5 -60.5t11.5 -61t32 -48.5t48.5 -32t60 -11.5z" />
    <glyph glyph-name="seven.LT" unicode="&#xe547;" 
d="M468 626h-414v104h531v-94l-326 -636h-116z" />
    <glyph glyph-name="eight.LT" unicode="&#xe548;" 
d="M320 -10q-135 0 -202.5 60.5t-67.5 160.5q0 57 31 102.5t83 74.5q-40 26 -62.5 63.5t-22.5 87.5q0 45 16.5 82t47.5 63.5t76.5 41t103.5 14.5q57 0 102 -14.5t75.5 -41t46.5 -63.5t16 -82q0 -49 -22.5 -87t-61.5 -64q51 -28 80 -73t29 -102q0 -50 -17 -91t-50.5 -70.5
t-83.5 -45.5t-117 -16zM321 87q42 0 72.5 10t51 27t30 40t9.5 49q0 56 -39 90.5t-123 34.5q-86 0 -127 -34.5t-41 -90.5t41 -91t126 -35zM322 431q39 0 65.5 8.5t43 23t24 34t7.5 42.5q0 22 -7.5 41.5t-24 34.5t-43 23.5t-63.5 8.5q-38 0 -65 -8.5t-45 -23.5t-26.5 -34.5
t-8.5 -41.5q0 -46 32.5 -77t110.5 -31z" />
    <glyph glyph-name="nine.LT" unicode="&#xe549;" 
d="M280 -10q-68 0 -126 19t-90 46l73 95q24 -23 60.5 -38.5t82.5 -15.5q94 0 145.5 57t59.5 180q-29 -50 -78 -76.5t-112 -26.5q-51 0 -95.5 19t-78 52.5t-53 80t-19.5 101.5t20 102t55.5 81.5t84 54t104.5 19.5q128 0 203 -92q19 -24 33 -50t23 -58.5t13 -72.5t4 -92
q0 -192 -82 -288.5t-227 -96.5zM317 329q34 0 63 11.5t50 32t33 49t12 61.5q0 34 -11.5 63t-32.5 49.5t-51 32t-66 11.5q-33 0 -61.5 -11.5t-50 -32.5t-33.5 -49.5t-12 -62.5q0 -33 12 -61t33.5 -49t51 -32.5t63.5 -11.5z" />
    <glyph glyph-name="zero.inf" unicode="&#xe571;" horiz-adv-x="421" 
d="M210 -126q42 0 59.5 29.5t17.5 87.5v23q0 58 -17 85.5t-59 27.5t-59.5 -28.5t-17.5 -84.5v-23q0 -59 17 -88t59 -29zM211 -217q-38 0 -69.5 11.5t-54.5 36t-36 64t-13 96.5v23q0 54 13.5 92.5t36.5 63t55 36t68 11.5q38 0 70 -12t54.5 -37t35 -63.5t12.5 -90.5v-23
q0 -57 -13.5 -96.5t-37 -64.5t-54.5 -36t-67 -11z" />
    <glyph glyph-name="one.inf" unicode="&#xe572;" horiz-adv-x="243" 
d="M102 -211v292q-8 -24 -30 -37.5t-48 -13.5h-6v91h3q45 0 63.5 24.5t18.5 65.5h89v-422h-90z" />
    <glyph glyph-name="two.inf" unicode="&#xe573;" horiz-adv-x="354" 
d="M34 -136q0 29 10 52t26.5 41t37 32.5t40.5 26.5q32 20 55.5 37.5t23.5 40.5q0 18 -13 30.5t-39 12.5t-43 -17t-27 -40l-79 41q20 45 58 70.5t92 25.5q33 0 60 -9.5t46 -26t29.5 -39t10.5 -48.5q0 -28 -10.5 -49.5t-26.5 -38.5t-36.5 -30.5t-39.5 -25.5q-30 -18 -53 -35
t-25 -39h190v-87h-287v75z" />
    <glyph glyph-name="three.inf" unicode="&#xe574;" horiz-adv-x="355" 
d="M169 -217q-98 0 -153 64l73 61q16 -20 34.5 -30.5t44.5 -10.5q25 0 44 13t19 36t-19.5 35t-49.5 12h-43v83h42q30 0 46 13.5t16 33.5t-15.5 32t-46.5 12q-23 0 -38.5 -10.5t-28.5 -28.5l-75 52q24 29 60.5 48t83.5 19q72 0 113 -32.5t41 -88.5q0 -28 -12.5 -50t-35.5 -37
q27 -15 42.5 -38.5t15.5 -56.5q0 -28 -11 -52t-31.5 -41.5t-50 -27.5t-65.5 -10z" />
    <glyph glyph-name="four.inf" unicode="&#xe575;" horiz-adv-x="391" 
d="M209 -121h-176v83l174 249h90v-251h61v-81h-61v-90h-88v90zM209 -40v113l-79 -113h79z" />
    <glyph glyph-name="five.inf" unicode="&#xe576;" horiz-adv-x="351" 
d="M174 -217q-53 0 -91 22.5t-57 56.5l87 48q8 -17 23 -28.5t38 -11.5q24 0 40.5 15.5t16.5 41.5t-16.5 42t-41.5 16q-21 0 -36 -10.5t-23 -26.5l-83 33l31 230h237v-85h-165l-11 -80q11 10 27 16t42 6q27 0 50.5 -9t41.5 -27t28.5 -44.5t10.5 -60.5q0 -32 -11 -58.5
t-31 -45.5t-47.5 -29.5t-59.5 -10.5z" />
    <glyph glyph-name="six.inf" unicode="&#xe577;" horiz-adv-x="375" 
d="M195 -221q-76 0 -121 51q-20 24 -32 58t-12 92q0 54 15 98t42.5 75t67 47.5t88.5 16.5q29 0 51.5 -4t39.5 -11l-38 -81q-11 5 -27.5 8t-37.5 3q-51 0 -82.5 -35t-35.5 -95q11 32 35.5 50.5t65.5 18.5q60 0 97.5 -40t37.5 -105q0 -32 -11.5 -58.5t-32 -46.5t-49 -31
t-61.5 -11zM196 -138q28 0 46.5 17.5t18.5 46.5t-18.5 47.5t-46.5 18.5q-27 0 -46 -18.5t-19 -48.5q0 -28 19 -45.5t46 -17.5z" />
    <glyph glyph-name="seven.inf" unicode="&#xe578;" horiz-adv-x="340" 
d="M214 125h-186v86h282v-80l-149 -342h-99z" />
    <glyph glyph-name="eight.inf" unicode="&#xe579;" horiz-adv-x="388" 
d="M190 -221q-76 0 -116 34.5t-40 96.5q0 34 15.5 58.5t41.5 40.5q-19 14 -30.5 34.5t-11.5 46.5q0 60 41 93.5t106 33.5q63 0 104 -33.5t41 -93.5q0 -27 -10.5 -47.5t-29.5 -34.5q25 -16 39 -40t14 -59q0 -62 -44.5 -96t-119.5 -34zM195 -135q33 0 49 15t16 36t-16 36.5
t-48 15.5t-48.5 -15.5t-16.5 -36.5t15.5 -36t48.5 -15zM195 43q29 0 42.5 12.5t13.5 33.5q0 20 -13 33t-42 13q-28 0 -42.5 -13t-14.5 -33t13 -33t43 -13z" />
    <glyph glyph-name="nine.inf" unicode="&#xe57a;" horiz-adv-x="381" 
d="M158 -221q-44 0 -73.5 9t-50.5 25l53 76q28 -25 71 -25q50 0 75.5 27.5t30.5 82.5q-13 -26 -36.5 -40.5t-59.5 -14.5q-63 0 -101.5 40t-38.5 106q0 33 12 61t33 48t50 31.5t64 11.5q38 0 68.5 -12.5t53.5 -40.5q21 -24 31 -59t10 -95q0 -112 -48.5 -171.5t-143.5 -59.5z
M185 -2q28 0 47.5 18.5t19.5 49.5q0 29 -19.5 47.5t-47.5 18.5q-29 0 -48 -18.5t-19 -48.5t19 -48.5t48 -18.5z" />
    <glyph glyph-name="plus.inf" unicode="&#xe57b;" horiz-adv-x="283" 
d="M35 38h70v68h74v-68h69v-76h-69v-69h-74v69h-70v76z" />
    <glyph glyph-name="minus.inf" unicode="&#xe57c;" horiz-adv-x="283" 
d="M35 38h213v-76h-213v76z" />
    <glyph glyph-name="equal.inf" unicode="&#xe57d;" horiz-adv-x="280" 
d="M34 85h213v-73h-213v73zM34 -14h213v-74h-213v74z" />
    <glyph glyph-name="parenleft.inf" unicode="&#xe57e;" horiz-adv-x="288" 
d="M187 -288q-74 54 -113 125t-39 166q0 96 40 166t111 124l57 -75q-54 -39 -84.5 -91.5t-30.5 -123.5q0 -70 31 -122.5t85 -92.5l-57 -76v0z" />
    <glyph glyph-name="parenright.inf" unicode="&#xe57f;" horiz-adv-x="288" 
d="M45 -212q54 40 84.5 92.5t30.5 122.5q0 71 -30.5 123.5t-84.5 91.5l58 75q71 -54 111 -124t40 -166q0 -95 -39.5 -166t-112.5 -125z" />
    <glyph glyph-name="Anocross" unicode="&#xe731;" horiz-adv-x="718" 
d="M291 730h110l269 -730h-112l-212 587l-211 -587h-113z" />
    <glyph glyph-name="idotaccent" unicode="&#xe785;" horiz-adv-x="233" 
d="M62 540h109v-540h-109v540zM40 702q0 33 21.5 55t54.5 22q34 0 55.5 -22t21.5 -55t-21.5 -55t-55.5 -22t-55 22t-21 55z" />
    <glyph glyph-name="ohm" unicode="&#xe821;" horiz-adv-x="849" 
d="M36 104h198q-24 28 -47.5 62.5t-42 74t-30 84t-11.5 92.5q0 67 25 126t68 103t101.5 69.5t126.5 25.5q67 0 126 -25.5t102.5 -69t69 -103t25.5 -126.5q0 -48 -11.5 -92.5t-30 -84t-42 -74t-47.5 -62.5h197v-104h-294l-45 91q33 40 63 78t52 77.5t35 81.5t13 91
q0 47 -16.5 87.5t-45 70.5t-67.5 47t-84 17t-83.5 -17t-67 -47t-44.5 -70.5t-16 -87.5q0 -49 13 -91t35 -81.5t52 -77.5t63 -78l-40 -91h-300v104z" />
    <glyph glyph-name="aacute.alt" unicode="&#xe891;" horiz-adv-x="664" 
d="M313 -11q-53 0 -102 20t-86.5 57t-60 89t-22.5 115q0 64 22 115.5t59.5 88.5t87 57t103.5 20t103.5 -23t80.5 -63v75h106v-540h-106v79q-32 -42 -81.5 -66t-103.5 -24zM327 88q38 0 70.5 14.5t56 39t37 58t13.5 71.5q0 37 -13.5 70.5t-37 58t-56 39t-70.5 14.5t-70.5 -14
t-56.5 -38.5t-37.5 -58t-13.5 -71.5t13.5 -71.5t37.5 -58.5t56.5 -39t70.5 -14zM390 775h114l-148 -166h-82z" />
    <glyph glyph-name="agrave.alt" unicode="&#xe892;" horiz-adv-x="664" 
d="M313 -11q-53 0 -102 20t-86.5 57t-60 89t-22.5 115q0 64 22 115.5t59.5 88.5t87 57t103.5 20t103.5 -23t80.5 -63v75h106v-540h-106v79q-32 -42 -81.5 -66t-103.5 -24zM327 88q38 0 70.5 14.5t56 39t37 58t13.5 71.5q0 37 -13.5 70.5t-37 58t-56 39t-70.5 14.5t-70.5 -14
t-56.5 -38.5t-37.5 -58t-13.5 -71.5t13.5 -71.5t37.5 -58.5t56.5 -39t70.5 -14zM174 779h114l116 -166h-82z" />
    <glyph glyph-name="acircumflex.alt" unicode="&#xe893;" horiz-adv-x="664" 
d="M313 -11q-53 0 -102 20t-86.5 57t-60 89t-22.5 115q0 64 22 115.5t59.5 88.5t87 57t103.5 20t103.5 -23t80.5 -63v75h106v-540h-106v79q-32 -42 -81.5 -66t-103.5 -24zM327 88q38 0 70.5 14.5t56 39t37 58t13.5 71.5q0 37 -13.5 70.5t-37 58t-56 39t-70.5 14.5t-70.5 -14
t-56.5 -38.5t-37.5 -58t-13.5 -71.5t13.5 -71.5t37.5 -58.5t56.5 -39t70.5 -14zM296 782h75l119 -166h-91l-66 94l-64 -94h-92z" />
    <glyph glyph-name="adieresis.alt" unicode="&#xe894;" horiz-adv-x="664" 
d="M313 -11q-53 0 -102 20t-86.5 57t-60 89t-22.5 115q0 64 22 115.5t59.5 88.5t87 57t103.5 20t103.5 -23t80.5 -63v75h106v-540h-106v79q-32 -42 -81.5 -66t-103.5 -24zM327 88q38 0 70.5 14.5t56 39t37 58t13.5 71.5q0 37 -13.5 70.5t-37 58t-56 39t-70.5 14.5t-70.5 -14
t-56.5 -38.5t-37.5 -58t-13.5 -71.5t13.5 -71.5t37.5 -58.5t56.5 -39t70.5 -14zM160 677q0 30 19 49t49 19t49 -19t19 -49t-19 -49t-49 -19q-31 0 -49.5 19t-18.5 49zM367 677q0 30 19.5 49t48.5 19q30 0 49.5 -19t19.5 -49t-19.5 -49t-49.5 -19t-49 19t-19 49z" />
    <glyph glyph-name="amacron.alt" unicode="&#xe895;" horiz-adv-x="664" 
d="M313 -11q-53 0 -102 20t-86.5 57t-60 89t-22.5 115q0 64 22 115.5t59.5 88.5t87 57t103.5 20t103.5 -23t80.5 -63v75h106v-540h-106v79q-32 -42 -81.5 -66t-103.5 -24zM327 88q38 0 70.5 14.5t56 39t37 58t13.5 71.5q0 37 -13.5 70.5t-37 58t-56 39t-70.5 14.5t-70.5 -14
t-56.5 -38.5t-37.5 -58t-13.5 -71.5t13.5 -71.5t37.5 -58.5t56.5 -39t70.5 -14zM208 705h264v-77h-264v77z" />
    <glyph glyph-name="abreve.alt" unicode="&#xe896;" horiz-adv-x="664" 
d="M313 -11q-53 0 -102 20t-86.5 57t-60 89t-22.5 115q0 64 22 115.5t59.5 88.5t87 57t103.5 20t103.5 -23t80.5 -63v75h106v-540h-106v79q-32 -42 -81.5 -66t-103.5 -24zM327 88q38 0 70.5 14.5t56 39t37 58t13.5 71.5q0 37 -13.5 70.5t-37 58t-56 39t-70.5 14.5t-70.5 -14
t-56.5 -38.5t-37.5 -58t-13.5 -71.5t13.5 -71.5t37.5 -58.5t56.5 -39t70.5 -14zM337 612q-41 0 -71.5 13t-50.5 35.5t-29.5 52.5t-9.5 65h76q0 -48 21.5 -73.5t63.5 -26.5q41 1 63 26.5t22 73.5h77q0 -35 -11.5 -65t-32.5 -52.5t-51 -35.5t-67 -13z" />
    <glyph glyph-name="aring.alt" unicode="&#xe897;" horiz-adv-x="664" 
d="M313 -11q-53 0 -102 20t-86.5 57t-60 89t-22.5 115q0 64 22 115.5t59.5 88.5t87 57t103.5 20t103.5 -23t80.5 -63v75h106v-540h-106v79q-32 -42 -81.5 -66t-103.5 -24zM327 88q38 0 70.5 14.5t56 39t37 58t13.5 71.5q0 37 -13.5 70.5t-37 58t-56 39t-70.5 14.5t-70.5 -14
t-56.5 -38.5t-37.5 -58t-13.5 -71.5t13.5 -71.5t37.5 -58.5t56.5 -39t70.5 -14zM336 617q-22 0 -41 8.5t-33.5 23t-23 34t-8.5 41.5q0 23 8.5 42.5t23 34t33.5 23t41 8.5q23 0 43 -8.5t34.5 -23t23 -34t8.5 -42.5q0 -22 -8.5 -41.5t-23 -34t-34.5 -23t-43 -8.5zM336 675
q21 0 36 14.5t15 34.5t-15 35t-36 15q-20 0 -34 -16t-14 -36t14 -33.5t34 -13.5z" />
    <glyph glyph-name="atilde.alt" unicode="&#xe898;" horiz-adv-x="664" 
d="M313 -11q-53 0 -102 20t-86.5 57t-60 89t-22.5 115q0 64 22 115.5t59.5 88.5t87 57t103.5 20t103.5 -23t80.5 -63v75h106v-540h-106v79q-32 -42 -81.5 -66t-103.5 -24zM327 88q38 0 70.5 14.5t56 39t37 58t13.5 71.5q0 37 -13.5 70.5t-37 58t-56 39t-70.5 14.5t-70.5 -14
t-56.5 -38.5t-37.5 -58t-13.5 -71.5t13.5 -71.5t37.5 -58.5t56.5 -39t70.5 -14zM167 616q0 58 27.5 93t74.5 35q25 0 43.5 -8t35.5 -18q15 -10 29 -18t28 -8q33 0 33 48h71q0 -59 -26 -93.5t-77 -34.5q-29 0 -50 10.5t-39 21.5q-13 8 -23.5 13.5t-24.5 5.5q-31 0 -31 -47
h-71z" />
    <glyph glyph-name="aogonek.alt" unicode="&#xe899;" horiz-adv-x="664" 
d="M552 -224q-30 0 -53.5 8.5t-40 23.5t-25 35t-8.5 42q-1 37 19 67.5t54 57.5v69q-32 -42 -81.5 -66t-103.5 -24q-53 0 -102 20t-86.5 57t-60 89t-22.5 115q0 64 22 115.5t59.5 88.5t87 57t103.5 20t103.5 -23t80.5 -63v75h106v-540q-49 -34 -70.5 -61t-21.5 -47
q0 -19 12 -29.5t31 -10.5q18 0 31.5 8.5t25.5 20.5l62 -55q-25 -22 -55.5 -36t-66.5 -14zM327 88q38 0 70.5 14.5t56 39t37 58t13.5 71.5q0 37 -13.5 70.5t-37 58t-56 39t-70.5 14.5t-70.5 -14t-56.5 -38.5t-37.5 -58t-13.5 -71.5t13.5 -71.5t37.5 -58.5t56.5 -39t70.5 -14z
" />
    <glyph glyph-name="ordfeminine.alt" unicode="&#xe926;" horiz-adv-x="392" 
d="M176 435q-23 0 -47.5 9t-44.5 28t-32.5 47t-12.5 66q0 39 13 67t33 47t44.5 28t47.5 9q29 0 51 -10t37 -26v30h79v-289h-79v32q-16 -17 -38.5 -27.5t-50.5 -10.5zM194 508q32 0 53 23t21 55t-21 54.5t-53 22.5q-33 0 -55 -21.5t-22 -55.5q0 -33 22 -55.5t55 -22.5z" />
    <glyph glyph-name="interrobangdown" unicode="&#xe935;" horiz-adv-x="551" 
d="M290 -240q-51 0 -93.5 14t-73.5 40t-48 62.5t-17 80.5q0 47 14 75.5t35.5 47t46.5 33t46.5 34.5t35.5 51t14 83v10h79q1 -41 2.5 -90.5t3 -102.5t2 -107t0.5 -104v-28q32 10 52 32.5t32 51.5l99 -37q-23 -63 -82 -104.5t-148 -41.5zM210 440q0 33 21.5 55t54.5 22
q34 0 55.5 -22t21.5 -55t-21.5 -55t-55.5 -22t-55 22t-21 55zM167 -44q0 -33 19.5 -59t54.5 -37v27q0 47 1.5 95.5t4.5 96.5q-15 -14 -29 -24.5t-25.5 -23.5t-18.5 -30.5t-7 -44.5z" />
    <glyph glyph-name="interrobangdown.cap" unicode="&#xe99b;" horiz-adv-x="551" 
d="M290 -10q-51 0 -93.5 14t-73.5 40t-48 62.5t-17 80.5q0 47 14 75.5t35.5 47t46.5 33t46.5 34.5t35.5 51t14 83v10h79q1 -41 2.5 -90.5t3 -102.5t2 -107t0.5 -104v-29q32 11 52 33.5t32 51.5l99 -37q-23 -63 -82 -104.5t-148 -41.5zM210 670q0 33 21.5 55t54.5 22
q34 0 55.5 -22t21.5 -55t-21.5 -55t-55.5 -22t-55 22t-21 55zM167 186q0 -34 19.5 -60t54.5 -37v28q0 47 1.5 95.5t4.5 96.5q-15 -14 -29 -24.5t-25.5 -23.5t-18.5 -30.5t-7 -44.5z" />
    <glyph glyph-name="registered.cap" unicode="&#xe99c;" horiz-adv-x="837" 
d="M419 -10q-78 0 -146 29.5t-118.5 80.5t-80 119t-29.5 146t29.5 146t80 119t118.5 80.5t146 29.5t146 -29.5t118.5 -80.5t80 -119t29.5 -146t-29.5 -146t-80 -119t-118.5 -80.5t-146 -29.5zM419 78q60 0 111.5 22.5t89.5 61.5t60 91.5t22 111.5t-22 111.5t-60 91.5
t-89.5 62t-111.5 23t-112 -23t-89.5 -62t-59 -91.5t-21.5 -111.5t21.5 -111.5t59 -91.5t89.5 -61.5t112 -22.5zM272 557h160q37 0 67 -10.5t50 -28.5t31 -41t11 -48q0 -42 -19.5 -74t-60.5 -46l78 -126h-106l-101 181h43q29 0 49 15.5t20 44.5q0 30 -20.5 42t-49.5 12h-58
v-295h-94v374z" />
    <glyph glyph-name="Aumlaut" unicode="&#xf176;" horiz-adv-x="718" 
d="M95 667q0 30 19 49t49 19t49 -19t19 -49t-19 -49t-49 -19q-31 0 -49.5 19t-18.5 49zM487 667q0 30 19.5 49t48.5 19q30 0 49.5 -19t19.5 -49t-19.5 -49t-49.5 -19t-49 19t-19 49zM304 730h110l282 -730h-113l-59 156h-330l-58 -156h-114zM233 260h252l-126 334z" />
    <glyph glyph-name="Oumlaut" unicode="&#xf177;" horiz-adv-x="855" 
d="M54 683q0 23 14.5 37.5t37.5 14.5t37.5 -14.5t14.5 -37.5t-14.5 -37.5t-37.5 -14.5t-37.5 14.5t-14.5 37.5zM697 683q0 23 14.5 37.5t37.5 14.5t37.5 -14.5t14.5 -37.5t-14.5 -37.5t-37.5 -14.5t-37.5 14.5t-14.5 37.5zM427 -10q-78 0 -146 29.5t-118.5 80.5t-80 119
t-29.5 146t29.5 146t80 119t118.5 80.5t146 29.5t146.5 -29.5t119 -80.5t80 -119t29.5 -146t-29.5 -146t-80 -119t-119 -80.5t-146.5 -29.5zM427 96q56 0 104.5 21t84.5 58t56.5 85.5t20.5 104.5q0 55 -20.5 104.5t-56.5 86t-84.5 58t-104.5 21.5t-104.5 -21.5t-84 -58
t-56 -86t-20.5 -104.5q0 -56 20.5 -104.5t56 -85.5t84 -58t104.5 -21z" />
    <glyph glyph-name="Uumlaut" unicode="&#xf178;" horiz-adv-x="707" 
d="M214 668q0 29 14.5 48t44.5 19t44.5 -19t14.5 -48q0 -30 -15 -49t-44 -19q-30 0 -44.5 19t-14.5 49zM374 668q0 29 15.5 48t43.5 19q29 0 44.5 -19t15.5 -48q0 -30 -15.5 -49t-44.5 -19t-44 19t-15 49zM353 -10q-62 0 -114 20t-89.5 56.5t-58 89t-20.5 118.5v456h111
v-462q0 -37 12.5 -69t35 -56t54.5 -37.5t70 -13.5t69.5 13.5t54 37.5t35 56t12.5 69v462h111v-456q0 -66 -21 -118.5t-58.5 -89t-89.5 -56.5t-114 -20z" />
    <glyph glyph-name="period.T" unicode="&#xf182;" horiz-adv-x="314" 
d="M79 60q0 33 21.5 55t54.5 22q34 0 55.5 -22t21.5 -55t-21.5 -55t-55.5 -22t-55 22t-21 55z" />
    <glyph glyph-name="comma.T" unicode="&#xf183;" horiz-adv-x="314" 
d="M83 -100q46 32 69.5 63t23.5 66v1q-7 -39 -47 -39q-28 0 -44.5 19t-16.5 45q0 38 23 60t59 22q42 0 66 -29t24 -71q0 -54 -33.5 -99t-86.5 -80z" />
    <glyph glyph-name="colon.T" unicode="&#xf184;" horiz-adv-x="314" 
d="M80 60q0 33 21.5 55t54.5 22q34 0 55.5 -22t21.5 -55t-21.5 -55t-55.5 -22t-55 22t-21 55zM80 423q0 33 21.5 55t54.5 22q34 0 55.5 -22t21.5 -55t-21.5 -55t-55.5 -22t-55 22t-21 55z" />
    <glyph glyph-name="semicolon.T" unicode="&#xf185;" horiz-adv-x="314" 
d="M83 -100q46 32 69.5 63t23.5 66v1q-7 -39 -47 -39q-28 0 -44.5 19t-16.5 45q0 38 23 60t59 22q42 0 66 -29t24 -71q0 -54 -33.5 -99t-86.5 -80zM80 423q0 33 21.5 55t54.5 22q34 0 55.5 -22t21.5 -55t-21.5 -55t-55.5 -22t-55 22t-21 55z" />
    <glyph glyph-name="onesixteenth" unicode="&#xf215;" horiz-adv-x="1160" 
d="M596 730h125l-527 -730h-125zM142 308v292q-8 -24 -30 -37.5t-48 -13.5h-6v91h3q45 0 63.5 24.5t18.5 65.5h89v-422h-90zM600 0v292q-8 -24 -30 -37.5t-48 -13.5h-6v91h3q45 0 63.5 24.5t18.5 65.5h89v-422h-90zM940 -10q-76 0 -121 51q-20 24 -32 58t-12 92q0 54 15 98
t42.5 75t67 47.5t88.5 16.5q29 0 51.5 -4t39.5 -11l-38 -81q-11 5 -27.5 8t-37.5 3q-51 0 -82.5 -35t-35.5 -95q11 32 35.5 50.5t65.5 18.5q60 0 97.5 -40t37.5 -105q0 -32 -11.5 -58.5t-32 -46.5t-49 -31t-61.5 -11zM941 73q28 0 46.5 17.5t18.5 46.5t-18.5 47.5
t-46.5 18.5q-27 0 -46 -18.5t-19 -48.5q0 -28 19 -45.5t46 -17.5z" />
    <glyph glyph-name="threesixteenths" unicode="&#xf216;" horiz-adv-x="1253" 
d="M199 302q-98 0 -153 64l73 61q16 -20 34.5 -30.5t44.5 -10.5q25 0 44 13t19 36t-19.5 35t-49.5 12h-43v83h42q30 0 46 13.5t16 33.5t-15.5 32t-46.5 12q-23 0 -38.5 -10.5t-28.5 -28.5l-75 52q24 29 60.5 48t83.5 19q72 0 113 -32.5t41 -88.5q0 -28 -12.5 -50t-35.5 -37
q27 -15 42.5 -38.5t15.5 -56.5q0 -28 -11 -52t-31.5 -41.5t-50 -27.5t-65.5 -10zM689 730h125l-527 -730h-125zM693 0v292q-8 -24 -30 -37.5t-48 -13.5h-6v91h3q45 0 63.5 24.5t18.5 65.5h89v-422h-90zM1033 -10q-76 0 -121 51q-20 24 -32 58t-12 92q0 54 15 98t42.5 75
t67 47.5t88.5 16.5q29 0 51.5 -4t39.5 -11l-38 -81q-11 5 -27.5 8t-37.5 3q-51 0 -82.5 -35t-35.5 -95q11 32 35.5 50.5t65.5 18.5q60 0 97.5 -40t37.5 -105q0 -32 -11.5 -58.5t-32 -46.5t-49 -31t-61.5 -11zM1034 73q28 0 46.5 17.5t18.5 46.5t-18.5 47.5t-46.5 18.5
q-27 0 -46 -18.5t-19 -48.5q0 -28 19 -45.5t46 -17.5z" />
    <glyph glyph-name="fivesixteenths" unicode="&#xf217;" horiz-adv-x="1249" 
d="M214 302q-53 0 -91 22.5t-57 56.5l87 48q8 -17 23 -28.5t38 -11.5q24 0 40.5 15.5t16.5 41.5t-16.5 42t-41.5 16q-21 0 -36 -10.5t-23 -26.5l-83 33l31 230h237v-85h-165l-11 -80q11 10 27 16t42 6q27 0 50.5 -9t41.5 -27t28.5 -44.5t10.5 -60.5q0 -32 -11 -58.5
t-31 -45.5t-47.5 -29.5t-59.5 -10.5zM685 730h125l-527 -730h-125zM689 0v292q-8 -24 -30 -37.5t-48 -13.5h-6v91h3q45 0 63.5 24.5t18.5 65.5h89v-422h-90zM1029 -10q-76 0 -121 51q-20 24 -32 58t-12 92q0 54 15 98t42.5 75t67 47.5t88.5 16.5q29 0 51.5 -4t39.5 -11
l-38 -81q-11 5 -27.5 8t-37.5 3q-51 0 -82.5 -35t-35.5 -95q11 32 35.5 50.5t65.5 18.5q60 0 97.5 -40t37.5 -105q0 -32 -11.5 -58.5t-32 -46.5t-49 -31t-61.5 -11zM1030 73q28 0 46.5 17.5t18.5 46.5t-18.5 47.5t-46.5 18.5q-27 0 -46 -18.5t-19 -48.5q0 -28 19 -45.5
t46 -17.5z" />
    <glyph glyph-name="sevensixteenths" unicode="&#xf218;" horiz-adv-x="1165" 
d="M254 644h-186v86h282v-80l-149 -342h-99zM601 730h125l-527 -730h-125zM605 0v292q-8 -24 -30 -37.5t-48 -13.5h-6v91h3q45 0 63.5 24.5t18.5 65.5h89v-422h-90zM945 -10q-76 0 -121 51q-20 24 -32 58t-12 92q0 54 15 98t42.5 75t67 47.5t88.5 16.5q29 0 51.5 -4
t39.5 -11l-38 -81q-11 5 -27.5 8t-37.5 3q-51 0 -82.5 -35t-35.5 -95q11 32 35.5 50.5t65.5 18.5q60 0 97.5 -40t37.5 -105q0 -32 -11.5 -58.5t-32 -46.5t-49 -31t-61.5 -11zM946 73q28 0 46.5 17.5t18.5 46.5t-18.5 47.5t-46.5 18.5q-27 0 -46 -18.5t-19 -48.5
q0 -28 19 -45.5t46 -17.5z" />
    <glyph glyph-name="ninesixteenths" unicode="&#xf219;" horiz-adv-x="1267" 
d="M198 298q-44 0 -73.5 9t-50.5 25l53 76q28 -25 71 -25q50 0 75.5 27.5t30.5 82.5q-13 -26 -36.5 -40.5t-59.5 -14.5q-63 0 -101.5 40t-38.5 106q0 33 12 61t33 48t50 31.5t64 11.5q38 0 68.5 -12.5t53.5 -40.5q21 -24 31 -59t10 -95q0 -112 -48.5 -171.5t-143.5 -59.5z
M225 517q28 0 47.5 18.5t19.5 49.5q0 29 -19.5 47.5t-47.5 18.5q-29 0 -48 -18.5t-19 -48.5t19 -48.5t48 -18.5zM703 730h125l-527 -730h-125zM707 0v292q-8 -24 -30 -37.5t-48 -13.5h-6v91h3q45 0 63.5 24.5t18.5 65.5h89v-422h-90zM1047 -10q-76 0 -121 51q-20 24 -32 58
t-12 92q0 54 15 98t42.5 75t67 47.5t88.5 16.5q29 0 51.5 -4t39.5 -11l-38 -81q-11 5 -27.5 8t-37.5 3q-51 0 -82.5 -35t-35.5 -95q11 32 35.5 50.5t65.5 18.5q60 0 97.5 -40t37.5 -105q0 -32 -11.5 -58.5t-32 -46.5t-49 -31t-61.5 -11zM1048 73q28 0 46.5 17.5t18.5 46.5
t-18.5 47.5t-46.5 18.5q-27 0 -46 -18.5t-19 -48.5q0 -28 19 -45.5t46 -17.5z" />
    <glyph glyph-name="elevensixteenths" unicode="&#xf220;" horiz-adv-x="1396" 
d="M142 308v292q-8 -24 -30 -37.5t-48 -13.5h-6v91h3q45 0 63.5 24.5t18.5 65.5h89v-422h-90zM378 308v292q-8 -24 -30 -37.5t-48 -13.5h-6v91h3q45 0 63.5 24.5t18.5 65.5h89v-422h-90zM832 730h125l-527 -730h-125zM836 0v292q-8 -24 -30 -37.5t-48 -13.5h-6v91h3
q45 0 63.5 24.5t18.5 65.5h89v-422h-90zM1176 -10q-76 0 -121 51q-20 24 -32 58t-12 92q0 54 15 98t42.5 75t67 47.5t88.5 16.5q29 0 51.5 -4t39.5 -11l-38 -81q-11 5 -27.5 8t-37.5 3q-51 0 -82.5 -35t-35.5 -95q11 32 35.5 50.5t65.5 18.5q60 0 97.5 -40t37.5 -105
q0 -32 -11.5 -58.5t-32 -46.5t-49 -31t-61.5 -11zM1177 73q28 0 46.5 17.5t18.5 46.5t-18.5 47.5t-46.5 18.5q-27 0 -46 -18.5t-19 -48.5q0 -28 19 -45.5t46 -17.5z" />
    <glyph glyph-name="thirteensixteenths" unicode="&#xf221;" horiz-adv-x="1498" 
d="M142 308v292q-8 -24 -30 -37.5t-48 -13.5h-6v91h3q45 0 63.5 24.5t18.5 65.5h89v-422h-90zM938 0v292q-8 -24 -30 -37.5t-48 -13.5h-6v91h3q45 0 63.5 24.5t18.5 65.5h89v-422h-90zM1278 -10q-76 0 -121 51q-20 24 -32 58t-12 92q0 54 15 98t42.5 75t67 47.5t88.5 16.5
q29 0 51.5 -4t39.5 -11l-38 -81q-11 5 -27.5 8t-37.5 3q-51 0 -82.5 -35t-35.5 -95q11 32 35.5 50.5t65.5 18.5q60 0 97.5 -40t37.5 -105q0 -32 -11.5 -58.5t-32 -46.5t-49 -31t-61.5 -11zM1279 73q28 0 46.5 17.5t18.5 46.5t-18.5 47.5t-46.5 18.5q-27 0 -46 -18.5
t-19 -48.5q0 -28 19 -45.5t46 -17.5zM444 302q-98 0 -153 64l73 61q16 -20 34.5 -30.5t44.5 -10.5q25 0 44 13t19 36t-19.5 35t-49.5 12h-43v83h42q30 0 46 13.5t16 33.5t-15.5 32t-46.5 12q-23 0 -38.5 -10.5t-28.5 -28.5l-75 52q24 29 60.5 48t83.5 19q72 0 113 -32.5
t41 -88.5q0 -28 -12.5 -50t-35.5 -37q27 -15 42.5 -38.5t15.5 -56.5q0 -28 -11 -52t-31.5 -41.5t-50 -27.5t-65.5 -10zM934 730h125l-527 -730h-125z" />
    <glyph glyph-name="fifteensixteenths" unicode="&#xf222;" horiz-adv-x="1493" 
d="M142 308v292q-8 -24 -30 -37.5t-48 -13.5h-6v91h3q45 0 63.5 24.5t18.5 65.5h89v-422h-90zM933 0v292q-8 -24 -30 -37.5t-48 -13.5h-6v91h3q45 0 63.5 24.5t18.5 65.5h89v-422h-90zM1273 -10q-76 0 -121 51q-20 24 -32 58t-12 92q0 54 15 98t42.5 75t67 47.5t88.5 16.5
q29 0 51.5 -4t39.5 -11l-38 -81q-11 5 -27.5 8t-37.5 3q-51 0 -82.5 -35t-35.5 -95q11 32 35.5 50.5t65.5 18.5q60 0 97.5 -40t37.5 -105q0 -32 -11.5 -58.5t-32 -46.5t-49 -31t-61.5 -11zM1274 73q28 0 46.5 17.5t18.5 46.5t-18.5 47.5t-46.5 18.5q-27 0 -46 -18.5
t-19 -48.5q0 -28 19 -45.5t46 -17.5zM458 302q-53 0 -91 22.5t-57 56.5l87 48q8 -17 23 -28.5t38 -11.5q24 0 40.5 15.5t16.5 41.5t-16.5 42t-41.5 16q-21 0 -36 -10.5t-23 -26.5l-83 33l31 230h237v-85h-165l-11 -80q11 10 27 16t42 6q27 0 50.5 -9t41.5 -27t28.5 -44.5
t10.5 -60.5q0 -32 -11 -58.5t-31 -45.5t-47.5 -29.5t-59.5 -10.5zM929 730h125l-527 -730h-125z" />
    <glyph glyph-name="aringacute.alt" unicode="&#xf458;" horiz-adv-x="664" 
d="M313 -11q-53 0 -102 20t-86.5 57t-60 89t-22.5 115q0 64 22 115.5t59.5 88.5t87 57t103.5 20t103.5 -23t80.5 -63v75h106v-540h-106v79q-32 -42 -81.5 -66t-103.5 -24zM327 88q38 0 70.5 14.5t56 39t37 58t13.5 71.5q0 37 -13.5 70.5t-37 58t-56 39t-70.5 14.5t-70.5 -14
t-56.5 -38.5t-37.5 -58t-13.5 -71.5t13.5 -71.5t37.5 -58.5t56.5 -39t70.5 -14zM390 1044h114l-148 -166h-82zM318 612q-22 0 -41 8.5t-33.5 23t-23 34t-8.5 41.5q0 23 8.5 42.5t23 34t33.5 23t41 8.5q23 0 43 -8.5t34.5 -23t23 -34t8.5 -42.5q0 -22 -8.5 -41.5t-23 -34
t-34.5 -23t-43 -8.5zM318 670q21 0 36 14.5t15 34.5t-15 35t-36 15q-20 0 -34 -16t-14 -36t14 -33.5t34 -13.5z" />
    <glyph glyph-name="arrowdown.alt" unicode="&#xf459;" horiz-adv-x="1088" 
d="M823 150q-36 -18 -72.5 -41.5t-69.5 -52t-60.5 -61t-46.5 -66.5h-52q-20 34 -50 66t-64 59t-69 48t-65 33l51 94q50 -23 94.5 -59.5t75.5 -74.5v635h104v-631q29 38 72.5 75.5t90.5 63.5zM640 509v38l152 88v-57zM640 693v38l152 88v-57zM640 601v38l152 88v-57zM310 760
v57l147 -85v-38zM310 576v57l147 -85v-38zM310 668v57l147 -85v-38z" />
    <glyph glyph-name="arrowleft.alt" unicode="&#xf460;" horiz-adv-x="1088" 
d="M277 91q-18 36 -41.5 72.5t-52 69.5t-60.5 60.5t-66 46.5v52q34 20 66 50t59 64t47.5 69t32.5 65l95 -51q-23 -50 -59.5 -94.5t-74.5 -75.5h729v-104h-725q38 -29 75.5 -73t63.5 -90zM731 274h38l88 -152h-57zM915 274h38l88 -152h-57zM823 274h38l88 -152h-57zM982 604
h57l-85 -147h-38zM798 604h57l-85 -147h-38zM890 604h57l-85 -147h-38z" />
    <glyph glyph-name="arrowright.alt" unicode="&#xf461;" horiz-adv-x="1088" 
d="M817 642q18 -36 41.5 -72.5t52 -69.5t60.5 -60.5t66 -46.5v-52q-35 -20 -66.5 -50t-58.5 -64t-47.5 -69t-32.5 -65l-95 51q23 50 59.5 94.5t74.5 75.5h-729v104h725q-39 29 -76 72.5t-63 90.5zM363 459h-38l-88 152h57zM179 459h-38l-88 152h57zM271 459h-38l-88 152h57z
M112 129h-57l85 147h38zM296 129h-57l85 147h38zM204 129h-57l85 147h38z" />
    <glyph glyph-name="arrowup.alt" unicode="&#xf462;" horiz-adv-x="1088" 
d="M275 592q36 18 72 41.5t69 52t61 60.5t46 66h53q19 -35 49 -66.5t64 -58.5t69 -47.5t65 -32.5l-51 -95q-50 23 -95 59.5t-75 74.5v-646h-104v641q-29 -38 -72.5 -75t-90.5 -63zM458 38v-39l-152 -88v57zM458 222v-38l-152 -89v57zM458 130v-38l-152 -89v57zM788 -30v-57
l-147 85v39zM788 154v-57l-147 86v38zM788 62v-57l-147 86v38z" />
    <glyph glyph-name="numbersign.alt" unicode="&#xf463;" horiz-adv-x="837" 
d="M438 154l-178 67l-83 -221h-111l98 259l-111 42l1 111l150 -58l63 165l-213 81v110l250 -95l44 115h111l-58 -152l178 -67l83 219h110l-98 -256l110 -42v-110l-150 56l-62 -165l211 -80v-110l-249 94l-44 -117h-109zM301 318l175 -66l62 164l-174 66z" />
    <glyph glyph-name="cent.LT" unicode="&#xf464;" 
d="M273 -4q-47 10 -86 34t-67.5 58.5t-44.5 78t-16 92.5t16 93t44.5 78.5t68 58t85.5 32.5v127h108v-126q69 -12 120.5 -52.5t76.5 -100.5l-96 -42q-20 47 -60 73.5t-92 26.5q-35 0 -65 -13t-52.5 -36t-35.5 -53.5t-13 -65.5t13 -66t35.5 -54t53 -36t66.5 -13q54 0 93.5 29
t58.5 74l97 -41q-26 -62 -77 -104t-123 -54v-124h-108v126z" />
    <glyph glyph-name="copyright.LT" unicode="&#xf465;" 
d="M318 -10q-59 0 -103.5 17t-75 48t-46 74t-15.5 96v274q0 52 17.5 96t49 76t75.5 50.5t98 18.5q55 0 99.5 -18.5t76 -51t48.5 -76.5t17 -94v-275q0 -54 -16.5 -97t-47 -74t-75.5 -47.5t-102 -16.5zM317 70q76 0 115.5 43t39.5 111v275q0 75 -39 118.5t-114 43.5
q-38 0 -67 -12t-48.5 -33.5t-29.5 -51.5t-10 -65v-274q0 -69 38.5 -112t114.5 -43zM318 113q-54 0 -83.5 31t-29.5 79v281q0 48 30.5 80.5t83.5 32.5t82.5 -32t29.5 -81v-105h-87v102q0 11 -7 18.5t-19 7.5t-19 -7.5t-7 -18.5v-279q0 -25 26 -25t26 25v119h87v-119
q0 -48 -30 -78.5t-83 -30.5z" />
    <glyph glyph-name="dollar.LT" unicode="&#xf466;" 
d="M573 209q0 -38 -13.5 -73t-39.5 -64.5t-63.5 -50t-85.5 -27.5v-114h-108v114q-75 10 -128 42t-94 80l93 78q49 -77 131 -96v245q-35 11 -70 26.5t-63 38.5t-45.5 55.5t-17.5 77.5q0 37 13.5 70.5t39 59t61.5 43t80 23.5v103h108v-105q63 -10 106.5 -37t78.5 -67l-89 -67
q-17 26 -41.5 45t-56.5 28v-217q36 -12 72.5 -28t65.5 -40.5t47.5 -59t18.5 -83.5zM463 209q0 40 -27 63t-67 38v-213q45 12 69.5 42.5t24.5 69.5zM178 544q0 -36 24.5 -56.5t62.5 -34.5v187q-42 -9 -64.5 -35t-22.5 -61z" />
    <glyph glyph-name="Euro.LT" unicode="&#xf467;" 
d="M62 512h77q2 49 20.5 91t50 72.5t75 47.5t95.5 17q57 0 103 -20.5t78 -55.5l-79 -71q-17 20 -42.5 31.5t-59.5 11.5q-62 0 -94.5 -34.5t-37.5 -89.5h242l-15 -86h-227v-122h208l-13 -85h-195q2 -57 34.5 -90.5t95.5 -33.5q38 0 63 14t42 37l92 -65q-30 -43 -78.5 -67
t-117.5 -24q-58 0 -102.5 16.5t-75 46.5t-46 72.5t-16.5 93.5h-77v85h77v122h-77v86z" />
    <glyph glyph-name="florin.LT" unicode="&#xf468;" 
d="M98 418h176l33 107q17 59 40 98.5t52.5 63t66 33.5t81.5 10h9v-99q-30 0 -52 -5t-38.5 -17.5t-28 -33.5t-21.5 -54l-32 -103h154v-96h-183l-35 -116q-17 -58 -37.5 -97.5t-48 -63.5t-63.5 -34.5t-85 -10.5h-15v100q31 0 53 5t38 17.5t27.5 34t21.5 53.5l34 112h-147v96z
" />
    <glyph glyph-name="percent.LT" unicode="&#xf469;" 
d="M454 730h125l-415 -730h-125zM183 479q-27 0 -50.5 10.5t-41.5 28t-28 41t-10 50.5t10 51t28 42t41.5 28t50.5 10t51 -10t41.5 -28t28 -42t10.5 -51t-10.5 -50.5t-28 -41t-41.5 -28t-51 -10.5zM183 569q17 0 29 11.5t12 28.5t-12 29t-29 12t-28.5 -12t-11.5 -29
t11.5 -28.5t28.5 -11.5zM436 -11q-27 0 -51 10.5t-41.5 28.5t-28 41.5t-10.5 50.5t10.5 51t28 42t41.5 28t51 10t51 -10t41.5 -28t28 -42t10.5 -51t-10.5 -50.5t-28 -41.5t-41.5 -28.5t-51 -10.5zM436 80q17 0 28.5 11.5t11.5 28.5t-11.5 29t-28.5 12t-28.5 -12t-11.5 -29
t11.5 -28.5t28.5 -11.5z" />
    <glyph glyph-name="registered.LT" unicode="&#xf470;" 
d="M318 -10q-59 0 -103.5 17t-75 48t-46 74t-15.5 96v274q0 52 17.5 96t49 76t75.5 50.5t98 18.5q55 0 99.5 -18.5t76 -51t48.5 -76.5t17 -94v-275q0 -54 -16.5 -97t-47 -74t-75.5 -47.5t-102 -16.5zM317 70q42 0 72.5 13.5t50.5 38.5q32 41 32 102v274q0 75 -39 119
t-114 44q-38 0 -67 -12t-48.5 -33.5t-29.5 -51.5t-10 -65v-274q0 -69 38.5 -112t114.5 -43zM209 608h119q56 0 80.5 -28t24.5 -79v-81q0 -45 -27 -66q24 -21 24 -61v-142q0 -21 10 -29h-88q-9 4 -9 21v146q0 28 -28 28h-19v-195h-87v486zM296 529v-133h21q29 0 29 30v75
q0 14 -6 21t-21 7h-23z" />
    <glyph glyph-name="sterling.LT" unicode="&#xf471;" 
d="M79 422h73q-12 25 -19.5 53.5t-7.5 63.5q0 45 16 82t44 63.5t66.5 41t83.5 14.5q84 0 135.5 -35.5t77.5 -92.5l-100 -45q-17 38 -43.5 57.5t-69.5 19.5q-44 0 -72 -28.5t-28 -75.5q0 -32 10 -60.5t25 -57.5h210v-87h-162q17 -35 29.5 -74t12.5 -88q0 -29 -9 -57
q17 -15 31.5 -25t29.5 -10q20 0 27 12t7 41v86h111v-83q0 -81 -31.5 -114t-97.5 -33q-33 0 -61 16t-54 38q-20 -25 -49 -40t-65 -15q-69 0 -104.5 31t-35.5 80q0 48 32 80t87 32q29 0 54 -9.5t46 -23.5q-1 22 -7 42.5t-16 39.5t-23 37t-26 37h-127v87zM194 67q20 0 35 7.5
t26 21.5q-18 15 -35 24.5t-35 9.5q-16 0 -24.5 -9t-8.5 -23t11.5 -22.5t30.5 -8.5z" />
    <glyph glyph-name="yen.LT" unicode="&#xf472;" 
d="M105 383h156v19l-210 328h122l143 -233l143 233h121l-210 -328v-19h155v-88h-155v-93h155v-88h-155v-114h-109v114h-156v88h156v93h-156v88z" />
    <glyph glyph-name="tbar.alt" horiz-adv-x="432" 
d="M50 326h291v-68h-291v68z" />
    <glyph glyph-name="rcommaaccent.alt" horiz-adv-x="428" 
 />
    <glyph glyph-name="tcommaaccent.alt" horiz-adv-x="432" 
 />
    </font>
</defs>
</svg>
